<svg xmlns="http://www.w3.org/2000/svg" viewBox="0 0 420.04 338.9"><defs><style>.cls-1{fill:#eac13c;}.cls-1,.cls-3,.cls-4,.cls-5{stroke:#1d1d1b;stroke-miterlimit:10;}.cls-1,.cls-3,.cls-4{stroke-width:3px;}.cls-2{fill:#1d1d1b;}.cls-3,.cls-5{fill:#fff;}.cls-4{fill:none;stroke-linecap:round;}.cls-5{stroke-width:2px;}</style></defs><g id="biene"><circle class="cls-1" cx="210.38" cy="145" r="84.21"/><path class="cls-2" d="M137.75,102.38S169,80.18,203.94,76.93s60.34,3.38,60.34,3.38L280.79,98.8s-34.11-4.81-71.52.87-80.65,25.14-80.65,25.14Z"/><path class="cls-2" d="M126.17,145S171,126.89,210,122s81.4,0,81.4,0l3.17,21.11s-52.07-4.48-80.09,0-85.88,22.09-85.88,22.09Z"/><polygon class="cls-2" points="191.31 62.96 198.25 43.63 207.59 60.79 191.31 62.96"/><path class="cls-2" d="M135.89,184.29s48.59-20.85,76.8-22.48,79.46,3.4,79.46,3.4l-5.3,16.1S229.79,176,214,178.46s-68.66,20.06-68.66,20.06Z"/><circle class="cls-1" cx="212.69" cy="203.14" r="55.83"/><path class="cls-3" d="M174.88,141.16S165.59,95.23,119,74.85s-57.5-17.32-63.59-7.68-1.83,40.52,26,52.61S147.84,138.71,174.88,141.16Z"/><path class="cls-3" d="M246.11,135.29S255.4,89.36,302,69s57.5-17.33,63.59-7.69,1.83,40.53-26,52.62S273.15,132.84,246.11,135.29Z"/><path class="cls-4" d="M235.24,169.45s1.66-17.76,16.64-20.26"/><circle class="cls-2" cx="255.1" cy="148.22" r="3.21"/><path class="cls-4" d="M190.88,168.81s-10-14.77-24.35-9.74"/><circle class="cls-2" cx="163.25" cy="159.76" r="3.21"/><ellipse class="cls-5" cx="228.62" cy="193.19" rx="8.9" ry="10.49" transform="translate(-42.47 66.3) rotate(-15.11)"/><ellipse class="cls-5" cx="203.43" cy="194.6" rx="8.9" ry="10.49" transform="matrix(0.98, -0.18, 0.18, 0.98, -32.47, 40.96)"/><ellipse class="cls-2" cx="203.43" cy="197.91" rx="4.5" ry="4.77" transform="translate(-67.53 113.46) rotate(-26.9)"/><ellipse class="cls-2" cx="228.62" cy="195.93" rx="4.49" ry="4.75" transform="translate(-63.91 124.64) rotate(-26.9)"/><path class="cls-4" d="M185,206.11s16.87,16.75,37.66,13S248,201.79,248,201.79"/></g></svg>