<?xml version="1.0" encoding="utf-8"?>
<!-- Generator: Adobe Illustrator 25.2.0, SVG Export Plug-In . SVG Version: 6.00 Build 0)  -->
<svg version="1.1" xmlns="http://www.w3.org/2000/svg" xmlns:xlink="http://www.w3.org/1999/xlink" x="0px" y="0px"
	 viewBox="0 0 420.04 338.9" style="enable-background:new 0 0 420.04 338.9;" xml:space="preserve">
<style type="text/css">
	.st0{fill:#4CB05D;stroke:#000000;stroke-width:3;stroke-miterlimit:10;}
	.st1{fill:none;stroke:#65B555;stroke-width:1.768;stroke-linecap:round;}
	.st2{fill:#1A3B37;}
	.st3{fill:none;stroke:#01914E;stroke-width:2.019;stroke-linecap:round;}
	.st4{fill:none;stroke:#1A3B37;stroke-width:2.8;stroke-linecap:round;}
	.st5{fill:none;stroke:#000000;stroke-width:3;stroke-linecap:round;stroke-miterlimit:10;}
	.st6{fill:none;stroke:#000000;stroke-width:3;stroke-miterlimit:10;}
	.st7{fill:#4CB05D;stroke:#000000;stroke-width:3;}
	.st8{fill:#4CB05D;stroke:#000000;stroke-width:3;stroke-linecap:round;stroke-miterlimit:10;}
	.st9{fill:#193B37;stroke:#000000;stroke-width:4;stroke-miterlimit:10;}
	.st10{fill:#193B37;stroke:#000000;stroke-width:3;stroke-miterlimit:10;}
	.st11{fill:#193B37;stroke:#000000;stroke-width:3;stroke-linecap:round;stroke-miterlimit:10;}
	.st12{fill:#4CB05D;stroke:#000000;stroke-width:5;}
	.st13{fill:none;stroke:#000000;stroke-width:4;stroke-linecap:round;stroke-miterlimit:10;}
	.st14{fill:#FFFFFF;stroke:#000000;stroke-width:2;stroke-miterlimit:10;}
	.st15{fill:none;stroke:#000000;stroke-width:2;stroke-linecap:round;stroke-miterlimit:10;}
	.st16{fill:#01914E;stroke:#000000;stroke-width:5;}
	.st17{fill:#193B37;stroke:#000000;stroke-width:5;}
	.st18{fill:#4081C3;stroke:#000000;}
	.st19{fill:#8B221B;}
	.st20{fill:#EA5B1C;stroke:#000000;stroke-width:3;stroke-miterlimit:10;}
	.st21{fill:#EA5B1C;stroke:#000000;stroke-width:3;stroke-linecap:round;stroke-miterlimit:10;}
	.st22{fill:#EA5B1C;stroke:#C8D761;stroke-width:7;stroke-linecap:round;}
	.st23{fill:#FFFFFF;stroke:#000000;stroke-width:3;stroke-miterlimit:10;}
	.st24{stroke:#000000;stroke-width:3;stroke-miterlimit:10;}
	.st25{fill:#4CB05D;stroke:#000000;stroke-width:4;stroke-miterlimit:10;}
	.st26{fill:#193B37;stroke:#000000;stroke-width:3;}
	.st27{fill:none;stroke:#000000;stroke-width:3.149;stroke-linecap:round;}
	.st28{fill:#EA5A1C;}
	.st29{fill:#8B221B;stroke:#000000;}
	.st30{fill:#926C3C;stroke:#000000;stroke-width:4;stroke-miterlimit:10;}
	.st31{fill:none;stroke:#000000;stroke-width:3;stroke-linecap:round;}
	.st32{fill:#EAC13C;stroke:#000000;stroke-width:3;stroke-miterlimit:10;}
	.st33{fill:#C8D761;stroke:#000000;stroke-width:3;stroke-miterlimit:10;}
	.st34{fill:#EC629B;stroke:#000000;stroke-width:3;stroke-miterlimit:10;}
	.st35{fill:#926C3C;stroke:#000000;stroke-width:3;stroke-miterlimit:10;}
	.st36{fill:#FFFFFF;stroke:#000000;stroke-width:3;stroke-linecap:round;stroke-miterlimit:10;}
	.st37{fill:#BFB8A3;stroke:#000000;stroke-width:3;stroke-miterlimit:10;}
	.st38{fill:#4FAE32;stroke:#000000;stroke-width:2;stroke-miterlimit:10;}
	.st39{fill:#4081C3;stroke:#000000;stroke-width:3;}
	.st40{fill:#FFFFFF;stroke:#000000;stroke-width:3;}
	.st41{fill:#C8D761;stroke:#000000;stroke-width:3;}
	.st42{fill:#D3BD1C;stroke:#000000;stroke-width:3;stroke-miterlimit:10;}
	.st43{fill:#8B221B;stroke:#000000;stroke-width:3;stroke-miterlimit:10;}
	.st44{fill:none;stroke:#000000;stroke-width:6;stroke-linecap:round;stroke-miterlimit:10;}
	.st45{fill:#926C3C;stroke:#000000;stroke-width:3;stroke-linecap:round;stroke-miterlimit:10;}
	.st46{fill:none;stroke:#000000;stroke-width:7;stroke-miterlimit:10;}
	.st47{fill:#4CB05D;stroke:#000000;stroke-width:4;stroke-linecap:round;stroke-miterlimit:10;}
	.st48{fill:#8B221B;stroke:#000000;stroke-width:3;stroke-linecap:round;stroke-miterlimit:10;}
	.st49{fill:#926C3C;}
</style>
<g id="Ebene_5">
</g>
<g id="armebeine">
	<g>
		<path class="st23" d="M170.44,261.94c0,0,4.77,2.53,3.79,4.95c-0.98,2.41-6.36,5.67-9.91,5.31c-3.55-0.36-8.69-0.97-10.77-3.5
			c-2.08-2.53-1.47-5.31-0.61-5.79c0.86-0.48,3.43-1.93,3.43-1.93L170.44,261.94z"/>
		<path class="st23" d="M163.25,279.44c0,0-8.8-1.74-11.11-1.57c-4.72,0.35-7.16,0.84-9.48,1.69c-2.33,0.84-5.14,5.79-6,7.24
			c-0.86,1.45,0,7.84,0,7.84s1.22,1.69,2.33,2.77c1.1,1.09,9.3,3.14,15.91,3.74c6.61,0.6,15.05-1.69,18.16-3.14
			c3.11-1.45,3.38-7.36,3.38-7.36s-0.13-9.17,0-10.98c0.12-1.81-3.38-11.17-3.38-11.17l-6.1,3.42l-10.66-1.35l-3.89-3.97
			l-1.65,11.38"/>
		<path class="st5" d="M176.44,289.09c0,0-6.37,4.95-11.14,5.79c-4.77,0.84-12.12,1.57-16.89,0.72c-4.77-0.84-12.12-5.66-12.12-5.66
			"/>
		<path class="st24" d="M174.36,206.51c0,0-3.43,43.49-3.68,47.71s0,9.17,0,9.17s-1.76,3.77-7.43,3.21
			c-5.66-0.56-6.89-2.73-6.89-2.73s-0.49-13.27,1.1-17.98c1.59-4.71,3.97-46.83,3.97-46.83L174.36,206.51z"/>
	</g>
	<g>
		<path class="st23" d="M127.32,245.45c0,0,4.77,2.53,3.79,4.95c-0.98,2.41-6.36,5.67-9.91,5.31c-3.55-0.36-8.69-0.97-10.77-3.5
			c-2.08-2.53-1.47-5.31-0.61-5.79c0.86-0.48,3.43-1.93,3.43-1.93L127.32,245.45z"/>
		<path class="st23" d="M120.14,262.94c0,0-8.8-1.74-11.11-1.57c-4.72,0.35-7.16,0.84-9.48,1.69c-2.33,0.84-5.14,5.79-6,7.24
			c-0.86,1.45,0,7.84,0,7.84s1.22,1.69,2.33,2.77c1.1,1.09,9.3,3.14,15.91,3.74c6.61,0.6,15.05-1.69,18.16-3.14
			c3.11-1.45,3.38-7.36,3.38-7.36s-0.13-9.17,0-10.98c0.12-1.81-3.38-11.17-3.38-11.17l-6.1,3.42l-10.66-1.35l-3.89-3.97
			l-1.65,11.38"/>
		<path class="st5" d="M133.32,272.59c0,0-6.37,4.95-11.14,5.79c-4.77,0.84-12.12,1.57-16.89,0.72c-4.77-0.84-12.12-5.66-12.12-5.66
			"/>
		<path class="st23" d="M131.24,190.01c0,0-3.43,43.49-3.68,47.71c-0.24,4.22,0,9.17,0,9.17s-1.76,3.77-7.43,3.21
			c-5.66-0.56-6.89-2.73-6.89-2.73s-0.49-13.27,1.1-17.98c1.59-4.71,3.97-46.83,3.97-46.83L131.24,190.01z"/>
	</g>
	<g>
		<path class="st23" d="M269.48,239.25c0,0,4.77,2.53,3.79,4.95c-0.98,2.41-6.36,5.67-9.91,5.31c-3.55-0.36-8.69-0.97-10.77-3.5
			c-2.08-2.53-1.47-5.31-0.61-5.79c0.86-0.48,3.43-1.93,3.43-1.93L269.48,239.25z"/>
		<path class="st23" d="M262.29,256.75c0,0-8.8-1.74-11.11-1.57c-4.72,0.35-7.16,0.84-9.48,1.69c-2.33,0.84-5.14,5.79-6,7.24
			c-0.86,1.45,0,7.84,0,7.84s1.22,1.69,2.33,2.77c1.1,1.09,9.3,3.14,15.91,3.74c6.61,0.6,15.05-1.69,18.16-3.14
			c3.11-1.45,3.38-7.36,3.38-7.36s-0.13-9.17,0-10.98c0.12-1.81-3.38-11.17-3.38-11.17l-6.1,3.42l-10.66-1.35l-3.89-3.97
			l-1.65,11.38"/>
		<path class="st5" d="M275.48,266.4c0,0-6.37,4.95-11.14,5.79c-4.77,0.84-12.12,1.57-16.89,0.72c-4.77-0.84-12.12-5.66-12.12-5.66"
			/>
		<path d="M273.4,183.82c0,0-3.43,43.49-3.68,47.71c-0.24,4.22,0,9.17,0,9.17s-1.76,3.77-7.43,3.21c-5.66-0.56-6.89-2.73-6.89-2.73
			s-0.49-13.27,1.1-17.98c1.59-4.71,3.97-46.83,3.97-46.83L273.4,183.82z"/>
	</g>
	<g>
		<path class="st23" d="M226.36,222.75c0,0,4.77,2.53,3.79,4.95c-0.98,2.41-6.36,5.67-9.91,5.31c-3.55-0.36-8.69-0.97-10.77-3.5
			c-2.08-2.53-1.47-5.31-0.61-5.79c0.86-0.48,3.43-1.93,3.43-1.93L226.36,222.75z"/>
		<path class="st23" d="M219.18,240.25c0,0-8.8-1.74-11.11-1.57c-4.72,0.35-7.16,0.84-9.48,1.69s-5.14,5.79-6,7.24
			c-0.86,1.45,0,7.84,0,7.84s1.22,1.69,2.33,2.77c1.1,1.09,9.3,3.14,15.91,3.74c6.61,0.6,15.05-1.69,18.16-3.14
			c3.11-1.45,3.38-7.36,3.38-7.36s-0.13-9.17,0-10.98s-3.38-11.17-3.38-11.17l-6.1,3.42l-10.66-1.35l-3.89-3.97l-1.65,11.38"/>
		<path class="st5" d="M232.36,249.9c0,0-6.37,4.95-11.14,5.79s-12.12,1.57-16.89,0.72c-4.77-0.84-12.12-5.66-12.12-5.66"/>
		<path class="st23" d="M230.29,167.32c0,0-3.43,43.49-3.68,47.71c-0.24,4.22,0,9.17,0,9.17s-1.76,3.77-7.43,3.21
			c-5.66-0.56-6.89-2.73-6.89-2.73s-0.49-13.27,1.1-17.98c1.59-4.71,3.97-46.83,3.97-46.83L230.29,167.32z"/>
	</g>
</g>
<g id="Ebene_1">
</g>
<g id="face">
</g>
<g id="biene">
</g>
<g id="butt">
</g>
<g id="hair">
</g>
<g id="Ebene_7">
</g>
<g id="kuh">
	<ellipse class="st23" cx="191.4" cy="154.03" rx="90.62" ry="65.2"/>
	<path class="st23" d="M167.59,76.87c0,0,17.58-14.82,26.63-3.02c9.05,11.8-13.32,25.65-13.32,25.65L167.59,76.87z"/>
	<g>
		<path class="st24" d="M83.44,76.32c0,0-17.58-14.82-26.63-3.02s13.32,25.65,13.32,25.65L83.44,76.32z"/>
		<path class="st34" d="M78.54,82.06c0.14-0.19-15.43-11.58-18.5-7.7s12.11,18.66,12.11,18.66L78.54,82.06z"/>
	</g>
	<path class="st35" d="M89.32,70.58c0,0-2.42-5.71-1.23-8.6c1.19-2.88,3.26-6.94,5.43-8.31c2.23-1.42,2.91-2.21,4.25,0
		s1.85,5.43,1.85,6.96c0,1.53,0.73,3.34,0.73,3.34L89.32,70.58z"/>
	<path class="st35" d="M163.26,71.71c0,0,2.42-5.71,1.23-8.6c-1.19-2.88-3.26-6.94-5.43-8.31c-2.23-1.42-2.91-2.21-4.25,0
		c-1.35,2.21-1.85,5.43-1.85,6.96s-0.73,3.34-0.73,3.34L163.26,71.71z"/>
	
		<ellipse transform="matrix(0.7071 -0.7071 0.7071 0.7071 -45.1795 122.3858)" class="st36" cx="125.14" cy="115.73" rx="57.56" ry="57.56"/>
	<ellipse class="st37" cx="125.87" cy="148.16" rx="43.12" ry="25.63"/>
	
		<ellipse transform="matrix(7.577162e-03 -1 1 7.577162e-03 -16.5639 225.0995)" class="st14" cx="105.12" cy="120.89" rx="8.36" ry="7.09"/>
	
		<ellipse transform="matrix(0.1433 -0.9897 0.9897 0.1433 7.6936 251.2646)" class="st14" cx="148.98" cy="121.19" rx="8.36" ry="7.09"/>
	<ellipse transform="matrix(0.9621 -0.2725 0.2725 0.9621 -28.9008 33.7119)" cx="106.91" cy="120.89" rx="2.64" ry="2.79"/>
	<path class="st15" d="M97.77,108.22c0,0,5.14-8.34,12.18-1.53"/>
	<path class="st15" d="M145.44,107.74c0,0,7.67-6.09,11.98,2.7"/>
	<path class="st34" d="M172.49,82.61c-0.14-0.19,15.43-11.58,18.5-7.7c3.07,3.88-12.11,18.66-12.11,18.66L172.49,82.61z"/>
	<ellipse cx="113.58" cy="142.07" rx="2.41" ry="4.08"/>
	<ellipse cx="138.69" cy="142.07" rx="2.41" ry="4.08"/>
	<circle cx="125.87" cy="158.57" r="1.46"/>
	<ellipse transform="matrix(0.9621 -0.2725 0.2725 0.9621 -27.3588 44.814)" cx="147.64" cy="120.89" rx="2.64" ry="2.79"/>
	<path d="M136.56,59.3c0,0-4.91,13.54-3.22,17.13c1.65,3.5,4.27,5.83,7.76,6.86c3.49,1.03,12.4,2.33,12.77,6.42
		c0.37,4.08-1.86,10.95,1.3,13c3.16,2.04,7.61,5.58,10.77,2.97s12.52-10.34,12.52-10.34S166.31,61.9,136.56,59.3z"/>
	<path d="M71.83,95.41c0,0,7.91-0.02,9.13,4.51s2.42,8.44,0,10.96s-2.05,8.11,0,12.02s4.38,11.74,0,12.86
		c-4.38,1.12-9.13,2.23-9.13,2.23S60.93,120.47,71.83,95.41z"/>
	<path class="st38" d="M291.95,144.91c0,0,7.87,1.59,17.48-9.12c0,0-5.39-5.74-4.81-9.45c0.58-3.71,1.7-8.19,5.83-9.5
		c0,0-5.28-11.75,6.88-16.89s19.22,2.08,19.22,2.08s9.77-5.55,16.26,1.44c6.49,6.99,1.72,14.19,1.72,14.19s8.3,6.1,6.38,13.03
		s-9.96,8.29-9.96,8.29s0.38,5.48-3.05,6.96c-3.43,1.49-9.64-0.4-9.64-0.4s-4.05,5.75-10.51,5.76c-6.45,0.01-11.55-8.23-11.55-8.23
		S299.74,151.02,291.95,144.91z"/>
	<path d="M237.41,99.5c0,0-4.91,13.54-3.22,17.13c1.65,3.5,4.27,5.83,7.76,6.86c3.49,1.03,12.4,2.33,12.77,6.42
		c0.37,4.08-1.86,10.95,1.3,13c3.16,2.04,7.61,5.58,10.77,2.97c3.16-2.6,12.52-10.34,12.52-10.34S267.16,102.1,237.41,99.5z"/>
	<path d="M181.95,125.11c0,0,4.3-1.83,9.45-2.57s9.88-0.22,11.06,1.29c1.18,1.51,7.09,5.05,10.33,6.83s4.43,2.66,8.56,4.72
		c4.13,2.07,6.5,4.13,4.72,7.97c-1.77,3.84-0.59,10.14-7.97,10.68c-7.38,0.54-6.93-1.23-13.8-4.19s-10.1-6.01-12.91-1.67
		c-2.82,4.33-2.51,19.69-9.45,17.91c-6.94-1.77-9.6-3.52-11.08-6.04c-1.48-2.52-1.87-7.02-1.87-7.02L181.95,125.11z"/>
	<path d="M109.95,182.64c0,0,20.32-3.41,23.04,0c2.72,3.41,4.29,5.93,8.11,9.7s13.02,7.54,17.43,6.29
		c4.41-1.26,5.21-2.02,10.47,0.25c5.26,2.27,7.77,7.71,7.77,11.07s-4.27,7.86-4.27,7.86s-32.4-7.68-42.99-16.16
		C118.91,193.16,109.95,182.64,109.95,182.64z"/>
</g>
<g id="auto">
</g>
<g id="haus">
</g>
<g id="pizza">
</g>
<g id="flugzeug_1_">
</g>
<g id="tuete">
</g>
<g id="bikeerde">
</g>
<g id="gevegan">
</g>
</svg>
