<svg xmlns="http://www.w3.org/2000/svg" viewBox="0 0 420.04 338.9"><defs><style>.cls-1,.cls-2,.cls-3{fill:#4cb05d;}.cls-1,.cls-2,.cls-3,.cls-4,.cls-5,.cls-6,.cls-7,.cls-9{stroke:#1d1d1b;}.cls-1,.cls-2,.cls-4,.cls-5,.cls-6,.cls-7,.cls-9{stroke-miterlimit:10;}.cls-1,.cls-2,.cls-4,.cls-5{stroke-width:3px;}.cls-2,.cls-4,.cls-6,.cls-9{stroke-linecap:round;}.cls-3{stroke-width:5px;}.cls-4,.cls-5,.cls-6,.cls-9{fill:none;}.cls-6{stroke-width:4px;}.cls-7{fill:#fff;}.cls-7,.cls-9{stroke-width:2px;}.cls-8{fill:#1d1d1b;}</style></defs><g id="armebeine"><path class="cls-1" d="M278.69,224.35s-3.23,7.37.15,9.34,12.71.91,16.52-2.77,9.28-9.09,9.36-14-3.21-7.64-4.66-7.43l-5.8.84Z"/><path class="cls-2" d="M303.33,238.54s8.68-10.11,11.54-12c5.85-3.91,9.16-5.55,12.67-6.67S338.92,222,341.27,223s7.27,9.31,7.27,9.31a40,40,0,0,1-.14,5.42c-.28,2.29-8,12.22-15.15,19s-19.18,11.77-24.16,12.89-10.78-5.64-10.78-5.64-8.36-11-10.18-13-6.41-16.34-6.41-16.34L292,233l11.22-11.36.87-8.28,12.49,12"/><path class="cls-2" d="M296.85,262.06s12,0,18.41-3.32,15.63-9.22,20.43-14.58,8.94-17.81,8.94-17.81"/><path class="cls-1" d="M252.83,200.73s14.21,9.89,18.41,14.68,8.51,10.88,8.51,10.88,5.56,2.86,11.67-3,5.53-9.54,5.53-9.54-11.74-16.2-18-20.33-17.94-13.36-17.94-13.36Z"/><path class="cls-1" d="M154.93,207.87S148.6,218,145.73,228s-6.09,26.13-6.09,26.13l20.18,3.49s.45-15.87,3.66-20.91,9.16-20.61,9.16-20.61l-17.71-8.27"/><path class="cls-1" d="M139.64,254.17l-1.9,2.75-2.23,3.21s-9.17-10.42-17-10.94-14.34-3.73-19.32,3.15-7.14,8.25-6.29,11,5.44,18.8,18.73,22.93,27.05,10.08,37.6,5.27S163,284,164.86,279.39s-3.21-16.05-3.21-16.05.68-1.68,1.22-3.2c.46-1.28.82-2.44.61-2.39C163,257.84,139.64,254.17,139.64,254.17Z"/><path class="cls-1" d="M96.67,255.75c.51-.66,14.69-.66,19.66,6.22s15.52,15.13,26.06,15.59,22.53-3.95,22.53-3.95"/><path class="cls-1" d="M135.51,260.13s7.34,11,26.14,3.21"/><path class="cls-1" d="M92.94,263.34s7.42-2.29,23.39,9.17,19.8,14.32,32.25,13.3,16.28-6.42,16.28-6.42"/><path class="cls-1" d="M161.65,260.13c-4.86.11-9,1.94-13.07,0s-10.84-3.21-10.84-3.21"/><path class="cls-1" d="M116.28,93.06s-2,6.07-7.8,4S93.33,87,93.33,87l-8-5.48L98.88,69.79l3.8-.1,13.23,9.45,1.65,4.16S121,88.7,116.28,93.06Z"/><path class="cls-1" d="M102.68,69.69S91.53,82.37,88.24,83.52s-7,2.58-7.56.2S89.34,76.39,91.6,74s7-7.89,7-7.89,6.05-1.06,4.08,3.61"/><path class="cls-2" d="M89.19,77.31s-5.94,4.25-9.71,4.19S68,79.36,64.53,78,45.36,72,44.86,71.8,38.1,70,39,66.55s8.3-1.85,9-1.55,9.26,3.68,10.18,1.2-16.29-9.54-16.29-9.54-5.51-2.31-3.38-6,13.38.78,13.38.78,8,7,9.78,4.65-11-12-13-15-4.88-6.58-3-8.43,7.18-.85,12,3.93,9.16,12,11.75,11-9.94-16.75-9.94-16.75-4.78-7.4-1.9-9.77S69,25.17,71.37,29.2s14,22.36,14,22.36,1-4.61-.06-8S83.61,34.27,87,32.21s7.93-3.32,7.86.12-3.06,7.77-1.64,11.82,5.84,10.65,5.62,14.42.24,9-2.31,11.67S89.19,77.31,89.19,77.31Z"/><path class="cls-2" d="M81.76,67.63s-1-7.33,4.44-15.5"/><path class="cls-1" d="M299.33,115.54s2.05,6.07,7.81,4,15.15-10,15.15-10l7.95-5.49L316.73,92.27l-3.79-.11-13.23,9.46-1.66,4.16S294.64,111.17,299.33,115.54Z"/><path class="cls-1" d="M312.94,92.16s11.15,12.68,14.44,13.84,7.05,2.58,7.56.2-8.66-7.34-10.93-9.76-7-7.89-7-7.89-6-1-4.08,3.61"/><path class="cls-2" d="M326.43,99.79s5.94,4.25,9.7,4.19,11.46-2.15,15-3.53,19.17-6,19.66-6.18,6.76-1.78,5.87-5.24-8.29-1.86-9-1.55-9.26,3.68-10.17,1.2,16.29-9.54,16.29-9.54,5.51-2.31,3.37-6-13.38.79-13.38.79-8,7-9.77,4.65,11-12,13-15,4.88-6.58,3-8.43-7.18-.85-12.05,3.93-9.16,12-11.75,11,9.94-16.75,9.94-16.75,4.78-7.4,1.9-9.76-11.4,4.11-13.8,8.13-14,22.37-14,22.37-1-4.61,0-8,1.72-9.28-1.66-11.34-7.93-3.32-7.86.12,3.07,7.77,1.65,11.82S316.56,77.27,316.79,81s-.24,9,2.3,11.68S326.43,99.79,326.43,99.79Z"/><path class="cls-2" d="M333.86,90.11s.94-7.34-4.45-15.5"/></g><g id="Ebene_1" data-name="Ebene 1"><circle class="cls-3" cx="204.52" cy="124.72" r="96.8"/><path class="cls-4" d="M191.71,219.65c-29.11-5.65-47.25-28-57.23-46.61-7.72-14.41-13.71-43-11.78-59.88,2.27-19.83,11.59-36.53,26-49.39,23.66-21.13,42.06-37,69.23-35.86"/><path class="cls-4" d="M207.47,221.48c29.75-1.44,48.89-25.53,53.38-29.94,11.81-11.59,22-41.45,23.9-58.36,2.27-19.83-2.31-39.59-12.44-55.25-16.66-25.75-30.37-42.11-54.39-50"/><path class="cls-5" d="M151.05,44s26.7,17.47,61.93,20.4a242.23,242.23,0,0,0,65.45-3.85"/><path class="cls-5" d="M136.07,56.27s29.25,21.9,74,26.63,78.26-6.73,78.26-6.73"/><path class="cls-5" d="M116.33,163.11s36.92,36.3,84.1,41,82.37-22.4,82.37-22.4"/></g><g id="face"><path class="cls-6" d="M145.73,127S162.46,160.11,203,163s60.32-20.36,60.32-20.36"/><ellipse class="cls-7" cx="187.21" cy="122.11" rx="13.72" ry="11.63" transform="translate(17.59 267.66) rotate(-73.75)"/><ellipse class="cls-7" cx="216.66" cy="126.4" rx="13.72" ry="11.63" transform="translate(48.66 312.67) rotate(-78.21)"/><ellipse class="cls-8" cx="184.76" cy="126.71" rx="7.92" ry="8.39"/><ellipse class="cls-8" cx="214.74" cy="131.33" rx="7.92" ry="8.39"/><path class="cls-9" d="M180.45,101.69s11.83-10.86,19.91,3"/><path class="cls-9" d="M212.11,106s13.17-9.19,19.34,5.64"/></g></svg>