<svg xmlns="http://www.w3.org/2000/svg" viewBox="0 0 420.04 338.9"><defs><style>.cls-1,.cls-2,.cls-3{fill:#4cb05d;}.cls-1,.cls-2,.cls-3,.cls-4,.cls-5,.cls-6,.cls-8{stroke:#1d1d1b;}.cls-1,.cls-2,.cls-4,.cls-5,.cls-6,.cls-8{stroke-miterlimit:10;}.cls-1,.cls-2,.cls-4,.cls-5{stroke-width:3px;}.cls-2,.cls-4,.cls-8{stroke-linecap:round;}.cls-3{stroke-width:5px;}.cls-4,.cls-5,.cls-8{fill:none;}.cls-6{fill:#fff;}.cls-6,.cls-8{stroke-width:2px;}.cls-7{fill:#1d1d1b;}</style></defs><g id="armebeine"><path class="cls-1" d="M159.56,252.38s7.09,3.82,5.64,7.45-9.45,8.54-14.72,8-12.91-1.46-16-5.27-2.18-8-.91-8.73l5.09-2.9Z"/><path class="cls-2" d="M148.89,278.73s-13.07-2.62-16.5-2.36c-7,.52-10.63,1.27-14.08,2.54s-7.64,8.73-8.91,10.91,0,11.81,0,11.81a40.15,40.15,0,0,0,3.45,4.18c1.64,1.64,13.82,4.73,23.63,5.64s22.36-2.55,27-4.73,5-11.08,5-11.08-.18-13.82,0-16.54-5-16.82-5-16.82l-9.06,5.14-15.84-2-5.78-6-2.45,17.14"/><path class="cls-2" d="M168.47,293.27S159,300.72,151.93,302s-18,2.36-25.08,1.09-18-8.53-18-8.53"/><path class="cls-1" d="M165.39,217.85s-5.1,16.54-5.46,22.9,0,13.81,0,13.81-2.62,5.68-11,4.84-10.23-4.11-10.23-4.11-.73-20,1.64-27.08,5.9-21.57,5.9-21.57Z"/><polygon class="cls-1" points="109.67 102.71 125.41 110.84 123.01 132.37 104.7 122.11 109.67 108.83 109.67 102.71"/><path class="cls-1" d="M104.7,98.31s4.14.72,4.68,3.6.36,10.31-.72,13.16-3.42,7-5,8.06-4.52,2.55-7.38,1.64"/><path class="cls-2" d="M58.31,111.68s1.43,6.3,2.86,7.62,5,2.39,5,2.39l23-2.07,7-14.29L90.07,87,74.66,88.06s-19.24-4-23.38-4.14-15.29-.54-18.53.72S24.12,87,24.3,90s4.14,5.39,7,5.75,17.26.9,18.16,1.08,9.18,1.26,9.18,2.34-1.21-.1-4.14,2.34-.24,9.61,4.32,12"/><path class="cls-2" d="M87.08,86.44s6.83,14.21,0,15.47S75.74,93.88,75,91.69s-.54-9.93,2-11.55,7.2-3.06,9-2.34,10.61,3.78,13,8.28,5.75,11,5.75,14.75-.72,14.27-3.23,18.47-9.72,9-13,10-11.15,2-15.28,0-6.3-4.5-6.66-6.66-1.26-8.27,2.7-10.79,7.73-5.4,10.61-4.68,6.84,1.8,7.56,4.5.78,8.63-2.94,8.63-5.16-1-5.16-1A3,3,0,0,1,77,122.77"/><path class="cls-2" d="M99.49,99.75s-11.14-3.25-14,9.44"/><path class="cls-1" d="M233.31,271.85s-7.09,3.81-5.64,7.45,9.45,8.54,14.72,8,12.91-1.45,16-5.27,2.18-8,.91-8.72l-5.09-2.91Z"/><path class="cls-2" d="M244,298.2s13.07-2.62,16.5-2.36c7,.52,10.63,1.27,14.08,2.54s7.64,8.72,8.91,10.91,0,11.81,0,11.81a40.56,40.56,0,0,1-3.46,4.18c-1.63,1.64-13.81,4.72-23.62,5.63s-22.36-2.54-27-4.72-5-11.09-5-11.09.18-13.81,0-16.54,5-16.82,5-16.82l9.07,5.15,15.83-2,5.79-6L262.55,296"/><path class="cls-2" d="M224.4,312.74s9.45,7.45,16.54,8.72,18,2.37,25.08,1.09S284,314,284,314"/><path class="cls-1" d="M227.47,237.31s5.11,16.54,5.47,22.9,0,13.82,0,13.82,2.62,5.67,11,4.83,10.23-4.11,10.23-4.11.72-20-1.64-27.08-5.9-21.57-5.9-21.57Z"/></g><g id="Ebene_1" data-name="Ebene 1"><path class="cls-3" d="M314.16,151.38a96.82,96.82,0,0,1-107.75,84.45C153.33,229.4,115.88,181.2,122,128.08c6-52.22,54.53-90.62,107.75-84.45S320.59,98.3,314.16,151.38Z"/><path class="cls-4" d="M209.34,236.14c29.71,2.15,51.6-19.46,56.59-23.3,13.12-10.08,26.8-38.5,30.76-55.06,4.64-19.41,2.46-39.57-5.71-56.35C277.54,73.87,265.9,56,243,45.23"/><path class="cls-5" d="M174.69,53.18s24.39,20.56,59,27.7a242.24,242.24,0,0,0,65.43,4.06"/><path class="cls-5" d="M158.34,63.54s26.4,25.26,70.22,35.33,78.5,2.74,78.5,2.74"/><path class="cls-4" d="M188.81,231c29.68,2.27,51.42-18.7,56.38-22.42,13.05-9.77,26.54-37.43,30.4-53.57,4.52-18.92,5.74-43.49-2.52-59.91-13.57-27-20.44-40.83-43.36-51.44"/><path class="cls-5" d="M125.89,167.23S158.16,207.7,204.44,218s84.47-12.32,84.47-12.32"/><path class="cls-1" d="M286.58,176s-6,2.22-3.8,7.91,10.44,14.88,10.44,14.88l5.7,7.81,11.39-13.82V189l-9.81-13-4.2-1.54S290.81,171.23,286.58,176Z"/><path class="cls-1" d="M310.31,189s-12.38,11.49-13.44,14.8-2.39,7.12,0,7.56,7.1-8.85,9.46-11.18S314,193,314,193s.89-6.08-3.72-4"/><path class="cls-2" d="M303.05,202.71s-4.09,6-3.93,9.81,2.45,11.39,3.93,14.86,6.54,19,6.7,19.49,2,6.71,5.4,5.72,1.64-8.34,1.31-9-3.93-9.16-1.47-10.14,10,16,10,16,2.46,5.44,6.06,3.21-1.15-13.35-1.15-13.35-7.2-7.86-4.91-9.65,12.27,10.7,15.38,12.63,6.71,4.7,8.5,2.74.66-7.2-4.25-11.94-12.27-8.83-11.28-11.45,17,9.49,17,9.49,7.52,4.58,9.81,1.63-4.42-11.28-8.5-13.57-22.74-13.41-22.74-13.41,4.58-1.15,8-.17,9.33,1.47,11.29-2,3.11-8-.33-7.85-7.68,3.27-11.77,2-10.8-5.56-14.56-5.23-9,0-11.61,2.61S303.05,202.71,303.05,202.71Z"/><path class="cls-2" d="M312.92,209.87s7.36.75,15.38-4.86"/></g><g id="face"><ellipse class="cls-6" cx="200.88" cy="127.56" rx="13.72" ry="11.63" transform="translate(20.98 283.33) rotate(-73.3)"/><ellipse class="cls-6" cx="171.93" cy="111.76" rx="13.72" ry="11.63" transform="translate(5.64 231.77) rotate(-68.84)"/><ellipse class="cls-7" cx="169.1" cy="116.14" rx="8.39" ry="7.92" transform="translate(38.92 274.69) rotate(-85.09)"/><ellipse class="cls-7" cx="198.54" cy="132.31" rx="8.39" ry="7.92" transform="translate(49.73 318.8) rotate(-85.09)"/><path class="cls-8" d="M196.92,107.19s12.72-9.8,19.58,4.72"/><path class="cls-8" d="M168.7,91.09s13.91-8,18.79,7.27"/><circle class="cls-7" cx="171.93" cy="148.94" r="8.18"/></g></svg>