<svg xmlns="http://www.w3.org/2000/svg" viewBox="0 0 420.04 338.9"><defs><style>.cls-1,.cls-2,.cls-4{fill:#4cb05d;}.cls-1,.cls-10,.cls-2,.cls-4,.cls-5,.cls-6,.cls-7,.cls-9{stroke:#1d1d1b;}.cls-1,.cls-10,.cls-3,.cls-5,.cls-9{stroke-linecap:round;}.cls-1,.cls-10,.cls-2,.cls-5,.cls-6,.cls-7,.cls-9{stroke-miterlimit:10;}.cls-1,.cls-2,.cls-5,.cls-6{stroke-width:3px;}.cls-3{fill:#ea5b1c;stroke:#c8d761;stroke-width:7px;}.cls-4{stroke-width:5px;}.cls-10,.cls-5,.cls-6,.cls-9{fill:none;}.cls-7{fill:#fff;}.cls-7,.cls-9{stroke-width:2px;}.cls-8{fill:#1d1d1b;}.cls-10{stroke-width:4px;}</style></defs><g id="armebeine"><path class="cls-1" d="M287.48,86.08s10.11-3.8,13.88-2.43,13.8,6.89,14.88,9-5.76,13.78-8,14.23-25.44,2.16-25.44,2.16L270,88.51Z"/><path class="cls-2" d="M208.33,245.89s-7.09,3.82-5.63,7.45,9.45,8.54,14.72,8,12.9-1.46,16-5.27,2.18-8,.91-8.73l-5.09-2.91Z"/><path class="cls-1" d="M219,272.24s13.07-2.62,16.5-2.36c7,.52,10.63,1.27,14.09,2.54s7.63,8.73,8.9,10.91,0,11.81,0,11.81a38.77,38.77,0,0,1-3.45,4.18c-1.64,1.64-13.81,4.73-23.63,5.64s-22.35-2.55-27-4.73-5-11.09-5-11.09.19-13.81,0-16.53,5-16.83,5-16.83l9.06,5.15,15.84-2,5.78-6,2.46,17.14"/><path class="cls-1" d="M199.42,286.78s9.46,7.45,16.54,8.73,18,2.36,25.09,1.09,18-8.54,18-8.54"/><path class="cls-2" d="M202.5,211.36s5.1,16.54,5.47,22.9,0,13.81,0,13.81,2.62,5.68,11,4.84,10.24-4.11,10.24-4.11.72-20-1.64-27.08-5.9-21.57-5.9-21.57Z"/><path class="cls-2" d="M134.59,265.36s7.09,3.81,5.63,7.45-9.45,8.54-14.72,8-12.9-1.45-16-5.27-2.18-8-.91-8.72l5.09-2.91Z"/><path class="cls-1" d="M123.92,291.71s-13.07-2.62-16.5-2.36c-7,.52-10.63,1.27-14.09,2.54s-7.63,8.72-8.9,10.9,0,11.82,0,11.82a39.85,39.85,0,0,0,3.45,4.18c1.64,1.63,13.81,4.72,23.63,5.63s22.35-2.54,27-4.72,5-11.09,5-11.09-.19-13.81,0-16.54-5-16.82-5-16.82l-9.06,5.15-15.84-2-5.78-6-2.46,17.15"/><path class="cls-1" d="M143.5,306.25S134,313.7,127,315s-18,2.36-25.08,1.09-18-8.53-18-8.53"/><path class="cls-2" d="M140.42,230.82s-5.1,16.54-5.47,22.9,0,13.82,0,13.82-2.62,5.67-11,4.83-10.24-4.11-10.24-4.11-.72-20,1.64-27.08,5.9-21.57,5.9-21.57Z"/><line class="cls-3" x1="297.09" y1="99.55" x2="406.87" y2="53.63"/><polygon class="cls-2" points="258.22 96.22 242.49 104.35 244.89 125.87 263.19 115.62 258.22 102.34 258.22 96.22"/><path class="cls-2" d="M263.19,91.82s-4.14.72-4.68,3.6-.36,10.31.72,13.16,3.42,7,5,8.06,4.52,2.55,7.39,1.63"/><path class="cls-1" d="M293.23,81.57l-15.41-1.1-6.16,18.37,7,14.29,23,2.07s3.61-1.08,5.05-2.39c0,0,8.44-5,2.83-11.5s-11.85-5.09-11.85-5.09l-6.13,4.9"/><path class="cls-1" d="M280.82,80s-6.84,14.21,0,15.47,11.33-8,12.05-10.22.54-9.93-2-11.55-7.19-3.06-9-2.34S271.28,75.09,269,79.59s-5.76,11-5.76,14.75.72,14.27,3.24,18.47,9.71,9,12.95,10,11.15,2,15.29,0,6.29-4.5,6.65-6.66,1.26-8.27-2.69-10.79-7.74-5.4-10.62-4.68-6.83,1.8-7.55,4.5-.78,8.63,2.94,8.63,5.15-1,5.15-1a3,3,0,0,0,2.34,3.47"/><path class="cls-1" d="M268.41,93.26s11.14-3.25,14,9.44"/></g><g id="Ebene_1" data-name="Ebene 1"><path class="cls-4" d="M53.52,123.62a96.8,96.8,0,0,0,86.7,106c53.2,5.32,100.27-33.54,106-86.7,5.58-52.26-33.42-100.34-86.7-105.95S58.83,70.42,53.52,123.62Z"/><path class="cls-5" d="M137.29,229.23c-29.46-4.39-46.11-30.26-50.14-35.1-10.6-12.7-17.74-43.42-18-60.44-.29-20,6.24-39.16,17.88-53.74,19.13-24,34.4-38.89,59.08-44.37"/><path class="cls-6" d="M211.07,58.26S182.77,73,147.42,72.4A242.25,242.25,0,0,1,82.68,62.06"/><path class="cls-6" d="M224.76,72s-31.28,18.87-76.24,19.14-77.2-14.48-77.2-14.48"/><path class="cls-5" d="M158.45,228.68c-29.46-4.27-46.09-29.49-50.12-34.2-10.6-12.38-17.73-42.33-18-58.92-.28-19.45,3.89-43.7,15.54-57.92,19.14-23.36,28.87-35.37,53.56-40.72"/><path class="cls-6" d="M242,160.74s-32.28,40.47-78.55,50.79S79,199.21,79,199.21"/><path class="cls-2" d="M81.32,169.55s6,2.22,3.79,7.91-10.44,14.88-10.44,14.88L69,200.15l-11.4-13.83v-3.79l9.81-13,4.2-1.54S77.08,164.74,81.32,169.55Z"/><path class="cls-2" d="M57.58,182.53S70,194,71,197.33s2.39,7.12,0,7.56-7.11-8.85-9.46-11.18-7.7-7.2-7.7-7.2-.9-6.08,3.71-4"/><path class="cls-1" d="M64.85,196.22s4.09,6.05,3.92,9.81-2.45,11.39-3.92,14.86-6.55,19-6.71,19.49-2,6.7-5.4,5.72-1.63-8.34-1.31-9S55.36,228,52.91,227s-10,16-10,16-2.45,5.44-6,3.21S38,232.85,38,232.85s7.2-7.85,4.91-9.65-12.27,10.71-15.38,12.64-6.7,4.7-8.5,2.74-.66-7.2,4.25-11.94,12.27-8.83,11.29-11.45-17,9.49-17,9.49-7.53,4.58-9.82,1.63,4.42-11.28,8.51-13.57S39,199.32,39,199.32s-4.58-1.14-8-.16-9.32,1.47-11.29-2-3.1-8,.33-7.85,7.69,3.27,11.78,2,10.79-5.56,14.55-5.23,9,0,11.62,2.61S64.85,196.22,64.85,196.22Z"/><path class="cls-1" d="M55,203.38s-7.36.75-15.38-4.86"/></g><g id="face"><ellipse class="cls-7" cx="169.27" cy="125.13" rx="11.63" ry="13.72" transform="translate(-8.47 12.35) rotate(-4.08)"/><ellipse class="cls-7" cx="200.96" cy="116.03" rx="11.63" ry="13.72" transform="translate(-15 31.13) rotate(-8.54)"/><ellipse class="cls-8" cx="202.77" cy="120.93" rx="8.39" ry="7.92" transform="translate(55.73 305.63) rotate(-82.29)"/><ellipse class="cls-8" cx="170.51" cy="130.27" rx="8.39" ry="7.92" transform="translate(18.54 281.76) rotate(-82.29)"/><path class="cls-9" d="M177.58,106.12s-10.27-12.35-20.14.32"/><path class="cls-9" d="M208.63,96.56s-11.82-10.88-19.92,3"/><path class="cls-10" d="M157.44,156.82a45,45,0,0,0,19.05,9.93,32.15,32.15,0,0,0,20.8-2c21.32-9.62,25.45-31.51,25.45-31.51"/><path class="cls-8" d="M198.17,171.9c7.18-1.76,12.65-16.71,13.05-17.15s-7.6,7.25-12.41,9.26-14.8,3.61-14.8,3.61S191,173.66,198.17,171.9Z"/></g></svg>