<svg xmlns="http://www.w3.org/2000/svg" viewBox="0 0 420.04 338.9"><defs><style>.cls-1{fill:#4cb05d;stroke-width:5px;}.cls-1,.cls-2,.cls-3,.cls-4,.cls-6,.cls-7{stroke:#1d1d1b;}.cls-2,.cls-3,.cls-6{fill:none;}.cls-2,.cls-6{stroke-linecap:round;}.cls-2,.cls-3,.cls-4,.cls-6{stroke-miterlimit:10;}.cls-2,.cls-3{stroke-width:3px;}.cls-4{fill:#fff;}.cls-4,.cls-6{stroke-width:2px;}.cls-5{fill:#1d1d1b;}.cls-7{fill:#4081c3;}.cls-8{fill:#8b221b;}</style></defs><g id="armebeine"><circle class="cls-1" cx="190.35" cy="159.11" r="96.8" transform="translate(-56.75 181.2) rotate(-45)"/><path class="cls-2" d="M183.45,254.65c-29.41-3.83-48.9-25-60-43-8.59-13.91-16.34-42-15.46-59,1-19.93,9.31-37.18,22.88-50.91,22.31-22.55,39.69-39.53,66.88-40.08"/><path class="cls-2" d="M199.29,255.5c29.6-3.28,47.21-28.51,51.42-33.19,11.07-12.3,19.36-42.73,20.24-59.73,1-19.93-4.76-39.36-15.84-54.37-18.22-24.67-32.92-40.15-57.38-46.56"/><path class="cls-3" d="M132,81.87s27.72,15.79,63.07,16.53a242.14,242.14,0,0,0,65.08-7.9"/><path class="cls-3" d="M117.79,95s30.56,20,75.47,22S271,105.46,271,105.46"/><path class="cls-3" d="M104.71,202.89s39.09,33.94,86.47,35.68S272,211.11,272,211.11"/><ellipse class="cls-4" cx="172.91" cy="157.57" rx="13.72" ry="11.63" transform="translate(-18.83 291.61) rotate(-77.3)"/><ellipse class="cls-4" cx="202.57" cy="160.04" rx="13.72" ry="11.63" transform="translate(15.16 337.58) rotate(-81.76)"/><circle class="cls-5" cx="172.67" cy="160.65" r="9.94"/><path class="cls-6" d="M161.19,139.85c-3.75,2.85,2.42-3.88,20.07-.61"/><circle class="cls-5" cx="201.98" cy="164.13" r="9.94"/><path class="cls-7" d="M237.45,134.64a7.56,7.56,0,0,1,1.9,5.34c-.27,3.05-4.31,5.79-.94,7.4s8.25-2.12,7.44-5S237.45,134.64,237.45,134.64Z"/><path class="cls-7" d="M228.05,122.5a5.72,5.72,0,0,1,1.43,4c-.2,2.3-3.24,4.36-.7,5.57s6.2-1.59,5.59-3.76S228.05,122.5,228.05,122.5Z"/><path class="cls-7" d="M142.94,116.83a5.72,5.72,0,0,0-1.43,4c.21,2.3,3.25,4.36.71,5.57s-6.21-1.6-5.6-3.76S142.94,116.83,142.94,116.83Z"/><path class="cls-5" d="M163,190.57s10.4-10.67,23.73-8.53,24.93,15.19,24.93,15.19S184.33,183.1,163,190.57Z"/><path class="cls-6" d="M200.19,140.58c-4.54,1.25,3.68-2.72,18.87,6.85"/><path class="cls-8" d="M187.9,185.84s6.15,2.91,7.83,7.7,1,7.52,6.06,7.37.75-9.43.75-9.43S193.54,184.43,187.9,185.84Z"/></g></svg>