<svg xmlns="http://www.w3.org/2000/svg" viewBox="0 0 731.58 544.57"><defs><style>.cls-1,.cls-3,.cls-4,.cls-5{fill:#4cb05d;}.cls-1,.cls-12,.cls-13,.cls-14,.cls-15,.cls-2,.cls-3,.cls-4,.cls-5,.cls-6,.cls-7,.cls-9{stroke:#1d1d1b;}.cls-1,.cls-12,.cls-13,.cls-14,.cls-2,.cls-4,.cls-5,.cls-6,.cls-7,.cls-9{stroke-miterlimit:10;}.cls-1,.cls-12,.cls-13,.cls-15,.cls-2,.cls-3,.cls-4,.cls-6{stroke-width:3px;}.cls-10,.cls-15,.cls-2,.cls-6,.cls-9{fill:none;}.cls-10,.cls-13,.cls-15,.cls-2,.cls-4,.cls-9{stroke-linecap:round;}.cls-14,.cls-5{stroke-width:4px;}.cls-7{fill:#fff;}.cls-7,.cls-9{stroke-width:2px;}.cls-8{fill:#1d1d1b;}.cls-10{stroke:#65b555;stroke-width:1.77px;}.cls-11{fill:#1a3b37;}.cls-12,.cls-13{fill:#ea5b1c;}.cls-14{fill:#926c3c;}</style></defs><g id="Ebene_5" data-name="Ebene 5"><path class="cls-1" d="M352.91,293.5s-5.13-12.52-4.13-17.27,3-15.77,3-15.77-1.08-8.45.45-8.75-.81-7.46,1.43-9,1.51-7.36,4.57-8,9.07.53,10.27,1.14,8.11,7.87,8,14.12,2.51,23.54,4.41,25.39,6.22-7.54,6.22-7.54L389.8,265s1.89-3.75,3.51-.63-3,16.82-3.67,17.91-2.38,8.52-3.52,12-10.89,13.54-10.89,13.54l-11-2.26Z"/><path class="cls-1" d="M328.27,281.53s1.67-13.43,4.88-17.07,10.36-12.27,10.36-12.27,3.2-7.89,4.68-7.4,3-6.91,5.67-7.15,4.93-5.67,7.89-4.69,7.65,4.92,8.38,6,3.21,10.84,0,16.21-9.36,21.74-8.62,24.28,9.12-3.51,9.12-3.51l3.79-1.18s3.49-2.34,3.36,1.18-10.91,13.16-12,13.8-6.26,6.25-9,8.74S340.68,305,340.68,305l-8.49-7.38Z"/><path class="cls-2" d="M367,236.06s-4.71,2.32-5.94,7-7.15,24.4-10.85,28.35"/><path class="cls-2" d="M355.33,237l-3.94,10.36s-1.7,12-6.4,16.15"/><path class="cls-2" d="M348.19,244.79c-1.48,1.11-3.7,11.34-4.93,13.56s-4.44,7.15-4.44,7.15"/><path class="cls-3" d="M315.85,291.92s1.12-5.44,4.14-6.86,5.65-3.66,8.47-1.53,9.68,9.4,10.29,13,4,12.1,0,15.53a9.46,9.46,0,0,1-12.3,0C323.42,309.46,315.85,291.92,315.85,291.92Z"/><path class="cls-3" d="M304.35,296.67l18.7-6.7s7.06,2.08,8.47,5.88,3.83,8.44,2.22,10.45S308.66,316,308.66,316l-4.31-19.32"/><path class="cls-3" d="M392.07,292.4s-.91-5.48-3.89-7-5.5-3.87-8.4-1.84-10,9-10.76,12.64-4.47,11.94-.57,15.52a9.47,9.47,0,0,0,12.3.45C383.87,309.66,392.07,292.4,392.07,292.4Z"/><path class="cls-3" d="M403.39,297.57,385,290.19s-7.13,1.82-8.68,5.56-4.13,8.3-2.6,10.37,24.71,10.6,24.71,10.6l5-19.15"/><path class="cls-2" d="M370.83,253.74c1.69,4.54-.4,17.52-1.15,22.88"/></g><g id="armebeine"><path class="cls-1" d="M432.54,433.87s6.95,4.07,5.36,7.65-9.76,8.19-15,7.45-12.85-1.92-15.79-5.85-1.89-8.07-.59-8.75l5.19-2.72Z"/><path class="cls-4" d="M420.91,459.81s-13-3.09-16.4-3c-7,.26-10.67.88-14.17,2s-7.95,8.44-9.3,10.57-.43,11.81-.43,11.81a39.24,39.24,0,0,0,3.3,4.3c1.57,1.7,13.63,5.23,23.4,6.5s22.44-1.73,27.13-3.74,5.42-10.89,5.42-10.89.32-13.81.6-16.53-4.39-17-4.39-17l-9.25,4.81-15.75-2.62-5.56-6.19-3.08,17"/><path class="cls-2" d="M440,475.06s-9.72,7.1-16.85,8.11-18.07,1.7-25.11.17-17.68-9.18-17.68-9.18"/><path class="cls-1" d="M439.63,399.57s-5.7,16.34-6.3,22.68-.5,13.81-.5,13.81-2.83,5.57-11.21,4.43S411.54,436,411.54,436s0-20,2.63-27,6.69-21.34,6.69-21.34Z"/><path class="cls-1" d="M505.52,456s-7.22,3.55-5.9,7.24,9.13,8.88,14.42,8.53,13-1,16.18-4.68,2.47-7.91,1.22-8.69l-5-3.09Z"/><path class="cls-4" d="M515.22,482.74s13.16-2.13,16.58-1.75c7,.78,10.58,1.66,14,3.05s7.31,9,8.5,11.23-.43,11.8-.43,11.8a40,40,0,0,1-3.6,4.05c-1.7,1.58-14,4.22-23.82,4.77s-22.25-3.36-26.78-5.71S495,498.92,495,498.92s.69-13.8.61-16.53,5.62-16.63,5.62-16.63l8.87,5.48,15.9-1.46,6-5.77,1.83,17.22"/><path class="cls-2" d="M495.12,496.56s9.18,7.79,16.22,9.32,17.89,3,25,2S554.67,500,554.67,500"/><path class="cls-1" d="M501,421.3s4.5,16.71,4.63,23.08-.51,13.8-.51,13.8,2.41,5.77,10.85,5.24,10.38-3.73,10.38-3.73,1.45-19.95-.65-27.12-5.11-21.78-5.11-21.78Z"/></g><g id="Ebene_1" data-name="Ebene 1"><path class="cls-5" d="M590.73,338.59A96.8,96.8,0,0,1,480,419c-52.8-8.37-88.46-57.91-80.45-110.77,7.88-52,57.81-88.56,110.77-80.45S599.1,285.79,590.73,338.59Z"/><path class="cls-2" d="M482.88,419.46c29.61,3.23,52.28-17.56,57.41-21.21,13.48-9.6,28.19-37.5,32.75-53.9,5.34-19.23,3.91-39.46-3.65-56.52-12.41-28-23.39-46.34-45.87-57.92"/><path class="cls-6" d="M455,235.35s23.62,21.44,58,29.85a242.07,242.07,0,0,0,65.24,6.44"/><path class="cls-6" d="M438.23,245.11s25.46,26.2,68.88,37.88,78.34,5.61,78.34,5.61"/><path class="cls-2" d="M462.55,413.54c29.58,3.36,52.08-16.81,57.17-20.34,13.39-9.28,27.89-36.43,32.34-52.42,5.21-18.74,7.33-43.26-.33-60-12.57-27.46-18.93-41.54-41.45-53"/><path class="cls-6" d="M402,347.54s30.78,41.63,76.65,53.63S563.51,392,563.51,392"/><path class="cls-1" d="M562.27,362.23s-6.09,2-4.09,7.77,9.89,15.24,9.89,15.24l5.41,8,11.89-13.39.14-3.8-9.33-13.32L572,361.05S566.68,357.58,562.27,362.23Z"/><path class="cls-1" d="M585.51,376.06s-12.79,11-14,14.31-2.65,7-.27,7.55,7.42-8.58,9.86-10.83,8-6.91,8-6.91,1.11-6-3.57-4.12"/><path class="cls-4" d="M576.19,389.42s-4.31,5.9-4.28,9.66,2,11.48,3.38,15,5.84,19.23,6,19.73,1.71,6.77,5.18,5.92,1.94-8.28,1.64-8.94-3.59-9.3-1.1-10.19S596.38,437,596.38,437s2.26,5.53,5.93,3.43-.65-13.38-.65-13.38-6.91-8.11-4.55-9.83S609,428.34,612,430.38s6.53,4.95,8.4,3.05.92-7.17-3.81-12.09-11.94-9.27-10.86-11.85,16.65,10.1,16.65,10.1,7.35,4.85,9.75,2-4-11.44-8-13.88-22.23-14.24-22.23-14.24,4.62-1,8,.13,9.26,1.81,11.35-1.55,3.4-7.89,0-7.85-7.8,3-11.84,1.53-10.58-6-14.36-5.77-9-.33-11.7,2.19S576.19,389.42,576.19,389.42Z"/><path class="cls-4" d="M585.8,396.94s7.33,1,15.54-4.29"/></g><g id="face"><ellipse class="cls-7" cx="478.4" cy="310.64" rx="13.72" ry="11.63" transform="translate(30.2 663.47) rotate(-71.21)"/><ellipse class="cls-7" cx="450.05" cy="293.8" rx="13.72" ry="11.63" transform="translate(2.43 591.29) rotate(-66.75)"/><ellipse class="cls-8" cx="447.12" cy="292.67" rx="8.39" ry="7.92" transform="translate(102.1 700.76) rotate(-82.99)"/><ellipse class="cls-8" cx="474.48" cy="309.31" rx="8.39" ry="7.92" transform="translate(109.61 742.53) rotate(-82.99)"/><path class="cls-9" d="M475.18,290.14s13.08-9.33,19.4,5.44"/><path class="cls-9" d="M447.58,273s14.19-7.52,18.51,8"/><line class="cls-10" x1="228.17" y1="324.42" x2="208.97" y2="345.17"/><polygon class="cls-11" points="285.1 506.51 296.55 506.51 296.55 496.69 285.1 498.33 285.1 506.51"/><path class="cls-12" d="M272.27,452.89s-7.81,4.14-6.2,8.09,10.41,9.28,16.21,8.69,14.22-1.58,17.62-5.73,2.4-8.68,1-9.47l-5.61-3.16Z"/><path class="cls-13" d="M284,481.51s14.4-2.85,18.18-2.57c7.72.57,11.71,1.38,15.52,2.77s8.4,9.47,9.81,11.84,0,12.83,0,12.83a44.9,44.9,0,0,1-3.81,4.54c-1.8,1.77-15.21,5.13-26,6.11s-24.63-2.76-29.71-5.13-5.53-12-5.53-12,.2-15,0-18S268,463.64,268,463.64l10,5.58L295.41,467l6.37-6.5,2.71,18.62"/><path class="cls-2" d="M262.46,497.3s10.41,8.09,18.22,9.47,19.82,2.57,27.63,1.19,19.83-9.27,19.83-9.27"/><path class="cls-14" d="M265.86,362.21s5.61,71.14,6,78.05,0,15,0,15,2.89,6.16,12.15,5.25,11.28-4.46,11.28-4.46.79-21.71-1.81-29.41S287,350,287,350Z"/><path class="cls-12" d="M218.36,452.89s7.81,4.14,6.21,8.09-10.41,9.28-16.22,8.69-14.21-1.58-17.62-5.73-2.4-8.68-1-9.47l5.61-3.16Z"/><path class="cls-13" d="M206.61,481.51s-14.4-2.85-18.18-2.57c-7.72.57-11.71,1.38-15.51,2.77s-8.41,9.47-9.81,11.84,0,12.83,0,12.83a44.18,44.18,0,0,0,3.8,4.54c1.8,1.77,15.21,5.13,26,6.11s24.63-2.76,29.72-5.13,5.52-12,5.52-12-.2-15,0-18-5.52-18.26-5.52-18.26l-10,5.58L195.22,467l-6.37-6.5-2.7,18.62"/><path class="cls-2" d="M228.17,497.3s-10.41,8.09-18.22,9.47-19.82,2.57-27.63,1.19-19.83-9.27-19.83-9.27"/><path class="cls-14" d="M224.77,362.21s-5.61,71.14-6,78.05,0,15,0,15-2.89,6.16-12.15,5.25-11.28-4.46-11.28-4.46-.79-21.71,1.81-29.41S203.63,350,203.63,350Z"/><path class="cls-5" d="M339.58,356.82l-46.78-78.7c19.91-1.35,26.83-17.48,15.39-36.45l-46.42-76.95c-11.62-19.26-29.06-18.5-39,1.7l-39.53,80.71c-9.75,19.89-1.45,35.36,18.5,35L162,364.57c-9.77,20.28-1,36,19.64,35.09l141.39-6.17c20.61-.9,28-17.32,16.51-36.67"/><ellipse class="cls-7" cx="261.62" cy="220.85" rx="10.74" ry="12.66" transform="translate(-33.74 47.69) rotate(-9.79)"/><ellipse class="cls-7" cx="231.21" cy="219.72" rx="10.74" ry="12.66" transform="translate(-19.4 22.41) rotate(-5.33)"/><ellipse class="cls-8" cx="234.14" cy="224.27" rx="7.31" ry="7.74" transform="translate(-66.07 101.81) rotate(-21.58)"/><ellipse class="cls-8" cx="264.77" cy="224.27" rx="7.31" ry="7.74" transform="translate(-63.92 113.08) rotate(-21.58)"/><path class="cls-15" d="M255.32,246.3s-6.1,4.85-16.95,0"/><path class="cls-2" d="M429.4,302.41s.26,20.41,12.64,27.19,34.42,7.13,42.22,3.06"/></g></svg>