<svg xmlns="http://www.w3.org/2000/svg" viewBox="0 0 420.04 338.9"><defs><style>.cls-1,.cls-2,.cls-3{fill:#4cb05d;}.cls-1,.cls-2,.cls-3,.cls-4,.cls-5{stroke:#1d1d1b;}.cls-1,.cls-2,.cls-4,.cls-5{stroke-miterlimit:10;stroke-width:3px;}.cls-2,.cls-4{stroke-linecap:round;}.cls-3{stroke-width:5px;}.cls-4,.cls-5{fill:none;}</style></defs><g id="armebeine"><path class="cls-1" d="M120.63,218.75s4.47,1.27,8.93,7.34,6,18.49,6,18.49-6.7,12.76-11.91,13.08-14.65,3.42-18.38,2.12-17.62-9.49-18.37-13.21-5-16.14-6.7-18.62S73.45,213.23,74,211.4s3.23-7.29,6-8.53,12-3.1,12-3.1Z"/><path class="cls-2" d="M112.85,212.39s.53-2.23,3.48,0a8.85,8.85,0,0,1,3.27,5.74l-11.88,8-7.24-1.59,1.59-4.85Z"/><path class="cls-1" d="M116.28,93.06s-2,6.07-7.8,4S93.33,87,93.33,87l-8-5.48L98.88,69.79l3.8-.1,13.23,9.45,1.65,4.16S121,88.7,116.28,93.06Z"/><path class="cls-1" d="M102.68,69.69S91.53,82.37,88.24,83.52s-7,2.58-7.56.2S89.34,76.39,91.6,74s7-7.89,7-7.89,6.05-1.06,4.08,3.61"/><path class="cls-2" d="M89.19,77.31s-5.94,4.25-9.71,4.19S68,79.36,64.53,78,45.36,72,44.86,71.8,38.1,70,39,66.55s8.3-1.85,9-1.55,9.26,3.68,10.18,1.2-16.29-9.54-16.29-9.54-5.51-2.31-3.38-6,13.38.78,13.38.78,8,7,9.78,4.65-11-12-13-15-4.88-6.58-3-8.43,7.18-.85,12,3.93,9.16,12,11.75,11-9.94-16.75-9.94-16.75-4.78-7.4-1.9-9.77S69,25.17,71.37,29.2s14,22.36,14,22.36,1-4.61-.06-8S83.61,34.27,87,32.21s7.93-3.32,7.86.12-3.06,7.77-1.64,11.82,5.84,10.65,5.62,14.42.24,9-2.31,11.67S89.19,77.31,89.19,77.31Z"/><path class="cls-1" d="M289.38,142.32s-3.41,5.42,1.82,8.58,17.35,5.41,17.35,5.41l9.28,2.7.59-17.9-2.32-3-15.69-4.28-4.27,1.34S289.8,135.92,289.38,142.32Z"/><path class="cls-1" d="M316.1,138.1s-2.79,16.66-1.61,19.94,2.45,7.09,4.61,6,.23-11.35.67-14.64,1.7-10.4,1.7-10.4-3-5.36-5.37-.89"/><path class="cls-2" d="M318.7,153.38s.46,7.29,2.88,10.17,8.9,7.53,12.18,9.37S350.54,184,351,184.27s5.65,4.11,7.77,1.24-3.79-7.61-4.45-7.93-8.7-4.86-7.36-7.13,17.69,6.6,17.69,6.6,5.26,2.82,6.75-1.15-9.06-9.87-9.06-9.87-10.49-1.83-9.77-4.65,16.25,1,19.89.62,8.18-.37,8.41-3-3.88-6.1-10.66-6.86-15.11.49-15.93-2.18,19.27-2.87,19.27-2.87,8.75-1,8.77-4.7-10.39-6.24-15-5.56-26.19,3.26-26.19,3.26,2.93-3.71,6.25-5,8.28-4.52,7.74-8.44-2.43-8.24-5.05-6-4.1,7.29-8.13,8.75-11.95,2.18-14.73,4.74-7.12,5.49-7.6,9.16S318.7,153.38,318.7,153.38Z"/><path class="cls-1" d="M226.55,219.66c.85,1-.42,15.91,2.55,23.56s6,14.44,6,14.44,7.4-6.37,11.35-6l7.77.85s-4.25-17.41-4.68-19.54-3.09-22.82-3.09-22.82Z"/><path class="cls-1" d="M228.66,276.7s-4.31-6.58-8.85-6.58-12.7.91-13.61,4.54-3.58,9.53-1.68,12.48,2.13,12.25,7.12,14.06,22.69,14.52,22.69,14.52,8.25,2.73,12.07-2.27,10.17-13.61,13.57-15,9.08-7.26,9.3-10.66,0-9.76,0-9.76,1.34-3.63.1-5.9-4.63-8.85-6.22-9.75a3.84,3.84,0,0,1-1-1.2c-1.67-2.59-4.19-8.23-8-8.65-4.65-.51-18.25,4.85-19.16,7.12s-2.49,10-1.58,11.35S228.66,276.7,228.66,276.7Z"/><path class="cls-2" d="M219.59,280.1s5.81-.54,9.07-3.4"/><path class="cls-2" d="M207.47,282.37s.77,10.21,6,11.35,10.21.22,16.56-10.21,17.93-13.62,22.92-14.07,16.9,6.14,16.9,6.14"/><path class="cls-1" d="M216.18,303.56s5.9-1.15,12.48-9.47,10.89-15.35,20.08-17.39,17.92.91,20.59,3.4"/><path class="cls-2" d="M233.82,268.59s5.57-7.46,14.17-8.6a24.78,24.78,0,0,1,14.93,2.72"/><path class="cls-2" d="M123.67,176.71l-17.64,8S88.39,192,91.92,199.77s10.58,18.46,10.58,18.46,2.63,3.19,7,0a6.86,6.86,0,0,0,2.57-7.81l-4.47-10.29,26.69-12.36Z"/><path class="cls-1" d="M100.48,224.5A19.87,19.87,0,0,0,98,234.66a114.16,114.16,0,0,0,1.22,14.39s9.81,3.42,13.59,3.48,14.42-5.25,14.42-5.25l7-5.75"/><path class="cls-1" d="M78.11,213.38c.88,2,5.67,8.82,7.26,13.61s5.14,13.69,7.8,17.21a15.52,15.52,0,0,0,6.09,4.85"/></g><g id="Ebene_1" data-name="Ebene 1"><circle class="cls-3" cx="204.52" cy="124.72" r="96.8"/><path class="cls-4" d="M191.71,219.65c-29.11-5.65-47.25-28-57.23-46.61-7.72-14.41-13.71-43-11.78-59.88,2.27-19.83,11.59-36.53,26-49.39,23.66-21.13,42.06-37,69.23-35.86"/><path class="cls-4" d="M207.47,221.48c29.75-1.44,48.89-25.53,53.38-29.94,11.81-11.59,22-41.45,23.9-58.36,2.27-19.83-2.31-39.59-12.44-55.25-16.66-25.75-30.37-42.11-54.39-50"/><path class="cls-5" d="M151.05,44s26.7,17.47,61.93,20.4a242.23,242.23,0,0,0,65.45-3.85"/><path class="cls-5" d="M136.07,56.27s29.25,21.9,74,26.63,78.26-6.73,78.26-6.73"/></g><g id="butt"><path class="cls-4" d="M217.92,211.4c-13.36,0-27.63-9.72-27.63-25.86s7.69-28.92,21.06-28.92"/><path class="cls-4" d="M187,151.88s8.94,3.56,9.53,12.11"/><path class="cls-4" d="M167,193.3s5,8.31,12.26,9.52c0,0,6.73,1.78,12.54-4.36"/></g></svg>