<svg width="350" height="282" viewBox="0 0 350 282" fill="none" xmlns="http://www.w3.org/2000/svg">
<path d="M253.709 77.0278C253.709 77.0278 262.133 73.8741 265.275 75.0058C268.416 76.1374 276.774 80.739 277.674 82.5363C278.573 84.3336 272.874 94.0027 271.024 94.3855C269.174 94.7599 249.826 96.1828 249.826 96.1828L239.169 79.0498L253.709 77.0278Z" fill="#00904E" stroke="black" stroke-width="3" stroke-miterlimit="10" stroke-linecap="round"/>
<path d="M187.757 210.006C187.757 210.006 181.849 213.185 183.066 216.206C184.274 219.226 190.94 223.312 195.331 222.862C199.723 222.413 206.08 221.656 208.655 218.477C211.23 215.299 210.472 211.82 209.413 211.221C208.355 210.614 205.172 208.8 205.172 208.8L187.757 210.006Z" fill="#00904E" stroke="black" stroke-width="3" stroke-miterlimit="10"/>
<path d="M196.648 231.932C196.648 231.932 207.539 229.752 210.397 229.969C216.238 230.401 219.254 231.025 222.137 232.082C225.012 233.139 228.495 239.338 229.561 241.152C230.628 242.966 229.561 250.979 229.561 250.979C229.561 250.979 228.045 253.093 226.687 254.457C225.329 255.822 215.179 258.393 206.997 259.142C198.823 259.899 188.374 257.029 184.524 255.206C180.674 253.392 180.341 245.978 180.341 245.978C180.341 245.978 180.499 234.487 180.341 232.215C180.191 229.944 184.516 218.219 184.516 218.219L192.065 222.505L205.264 220.807L210.08 215.823L212.121 230.085" fill="#00904E"/>
<path d="M196.648 231.932C196.648 231.932 207.539 229.752 210.397 229.969C216.238 230.401 219.254 231.025 222.137 232.082C225.012 233.139 228.495 239.338 229.561 241.152C230.628 242.966 229.561 250.979 229.561 250.979C229.561 250.979 228.045 253.093 226.687 254.457C225.329 255.822 215.179 258.393 206.997 259.142C198.823 259.899 188.374 257.029 184.524 255.206C180.674 253.392 180.341 245.978 180.341 245.978C180.341 245.978 180.499 234.487 180.341 232.215C180.191 229.944 184.516 218.219 184.516 218.219L192.065 222.505L205.264 220.807L210.08 215.823L212.121 230.085" stroke="black" stroke-width="3" stroke-miterlimit="10" stroke-linecap="round"/>
<path d="M180.333 244.031C180.333 244.031 188.215 250.23 194.115 251.287C200.023 252.344 209.105 253.251 215.013 252.194C220.921 251.137 230.02 245.096 230.02 245.096" stroke="black" stroke-width="3" stroke-miterlimit="10" stroke-linecap="round"/>
<path d="M182.899 181.274C182.899 181.274 187.149 195.037 187.457 200.329C187.765 205.621 187.457 211.82 187.457 211.82C187.457 211.82 189.64 216.547 196.648 215.848C203.656 215.149 205.172 212.428 205.172 212.428C205.172 212.428 205.772 195.794 203.806 189.894C201.839 183.995 198.889 171.946 198.889 171.946L182.899 181.274Z" fill="#00904E" stroke="black" stroke-width="3" stroke-miterlimit="10"/>
<path d="M229.328 85.4653L216.213 92.2303L218.221 110.137L233.469 101.608L229.328 90.5578V85.4653Z" fill="#00904E" stroke="black" stroke-width="3" stroke-miterlimit="10"/>
<path d="M233.469 81.8041C233.469 81.8041 230.02 82.4032 229.57 84.7997C229.12 87.1961 229.27 93.3786 230.17 95.7501C231.07 98.1216 233.019 101.558 234.369 102.457C235.719 103.356 238.136 104.579 240.527 103.813" fill="#00904E"/>
<path d="M233.469 81.8041C233.469 81.8041 230.02 82.4032 229.57 84.7997C229.12 87.1961 229.27 93.3786 230.17 95.7501C231.07 98.1216 233.019 101.558 234.369 102.457C235.719 103.356 238.136 104.579 240.527 103.813" stroke="black" stroke-width="3" stroke-miterlimit="10"/>
<path d="M258.5 73.2751L245.66 72.3597L240.527 87.6372L246.393 99.5363L265.533 101.259C265.533 101.259 268.541 100.36 269.741 99.2617C269.741 99.2617 276.774 95.0762 272.099 89.7008C267.425 84.3171 262.217 85.4654 262.217 85.4654L257.109 89.5427" fill="#00904E"/>
<path d="M258.5 73.2751L245.66 72.3597L240.527 87.6372L246.393 99.5363L265.533 101.259C265.533 101.259 268.541 100.36 269.741 99.2617C269.741 99.2617 276.774 95.0762 272.099 89.7008C267.425 84.3171 262.217 85.4654 262.217 85.4654L257.109 89.5427" stroke="black" stroke-width="3" stroke-miterlimit="10" stroke-linecap="round"/>
<path d="M248.16 71.927C248.16 71.927 242.46 83.7512 248.16 84.7997C253.859 85.8481 257.6 78.1262 258.2 76.2956C258.8 74.4733 258.65 68.0328 256.551 66.6848C254.451 65.3368 250.559 64.1386 249.06 64.7377C247.56 65.3368 240.219 67.883 238.269 71.6275C236.319 75.372 233.469 80.7557 233.469 83.901C233.469 87.0464 234.069 95.7751 236.169 99.27C238.269 102.765 244.26 106.801 246.96 107.549C249.66 108.298 256.251 109.197 259.7 107.549C263.15 105.902 264.95 103.805 265.25 102.008C265.55 100.21 266.3 95.1261 263 93.0292C259.7 90.9323 256.559 88.5358 254.159 89.135C251.759 89.7341 248.46 90.6327 247.868 92.8794C247.268 95.1261 247.218 100.06 250.318 100.06C253.418 100.06 254.617 99.2617 254.617 99.2617C254.617 99.2617 254.167 101.558 256.567 102.157" fill="#00904E"/>
<path d="M248.16 71.927C248.16 71.927 242.46 83.7512 248.16 84.7997C253.859 85.8481 257.6 78.1262 258.2 76.2956C258.8 74.4733 258.65 68.0328 256.551 66.6848C254.451 65.3368 250.559 64.1386 249.06 64.7377C247.56 65.3368 240.219 67.883 238.269 71.6275C236.319 75.372 233.469 80.7557 233.469 83.901C233.469 87.0464 234.069 95.7751 236.169 99.27C238.269 102.765 244.26 106.801 246.96 107.549C249.66 108.298 256.251 109.197 259.7 107.549C263.15 105.902 264.95 103.805 265.25 102.008C265.55 100.21 266.3 95.1261 263 93.0292C259.7 90.9323 256.559 88.5358 254.159 89.135C251.759 89.7341 248.46 90.6327 247.868 92.8794C247.268 95.1261 247.218 100.06 250.318 100.06C253.418 100.06 254.617 99.2617 254.617 99.2617C254.617 99.2617 254.167 101.558 256.567 102.157" stroke="black" stroke-width="3" stroke-miterlimit="10" stroke-linecap="round"/>
<path d="M237.819 83.0024C237.819 83.0024 247.101 80.2981 249.501 90.8575" stroke="black" stroke-width="3" stroke-miterlimit="10" stroke-linecap="round"/>
<path d="M126.313 226.207C126.313 226.207 132.221 229.386 131.004 232.407C129.788 235.427 123.13 239.513 118.739 239.063C114.347 238.606 107.99 237.857 105.415 234.678C102.84 231.5 103.598 228.021 104.657 227.422C105.715 226.815 108.898 225.001 108.898 225.001L126.313 226.207Z" fill="#00904E" stroke="black" stroke-width="3" stroke-miterlimit="10"/>
<path d="M117.422 248.133C117.422 248.133 106.532 245.953 103.673 246.17C97.8323 246.602 94.816 247.226 91.9329 248.283C89.0582 249.34 85.5752 255.539 84.5086 257.353C83.4504 259.167 84.5086 267.18 84.5086 267.18C84.5086 267.18 86.0251 269.294 87.3833 270.658C88.7416 272.023 98.8906 274.594 107.073 275.343C115.247 276.1 125.696 273.23 129.546 271.407C133.396 269.593 133.729 262.179 133.729 262.179C133.729 262.179 133.571 250.688 133.729 248.416C133.879 246.145 129.554 234.42 129.554 234.42L122.005 238.706L108.806 237.008L103.99 232.024L101.949 246.286" fill="#00904E"/>
<path d="M117.422 248.133C117.422 248.133 106.532 245.953 103.673 246.17C97.8323 246.602 94.816 247.226 91.9329 248.283C89.0582 249.34 85.5752 255.539 84.5086 257.353C83.4504 259.167 84.5086 267.18 84.5086 267.18C84.5086 267.18 86.0251 269.294 87.3833 270.658C88.7416 272.023 98.8906 274.594 107.073 275.343C115.247 276.1 125.696 273.23 129.546 271.407C133.396 269.593 133.729 262.179 133.729 262.179C133.729 262.179 133.571 250.688 133.729 248.416C133.879 246.145 129.554 234.42 129.554 234.42L122.005 238.706L108.806 237.008L103.99 232.024L101.949 246.286" stroke="black" stroke-width="3" stroke-miterlimit="10" stroke-linecap="round"/>
<path d="M133.737 260.232C133.737 260.232 125.855 266.431 119.955 267.488C114.056 268.545 104.965 269.452 99.0572 268.395C93.1495 267.338 84.0503 261.297 84.0503 261.297" stroke="black" stroke-width="3" stroke-miterlimit="10" stroke-linecap="round"/>
<path d="M131.171 197.467C131.171 197.467 126.921 211.23 126.613 216.522C126.313 221.814 126.613 228.013 126.613 228.013C126.613 228.013 124.43 232.739 117.422 232.04C110.414 231.342 108.898 228.621 108.898 228.621C108.898 228.621 108.298 211.987 110.264 206.087C112.231 200.188 115.181 188.139 115.181 188.139L131.171 197.467Z" fill="#00904E" stroke="black" stroke-width="3" stroke-miterlimit="10"/>
<path d="M251.793 86.5304L343.267 48.3119" stroke="black" stroke-width="7" stroke-linecap="round"/>
<path d="M58.7611 108.265C54.3281 152.533 86.6751 192 131.004 196.426C175.333 200.853 214.555 168.518 219.287 124.283C223.937 80.7889 191.44 40.7897 147.044 36.1216C102.74 31.4702 63.1856 63.9971 58.7611 108.265Z" fill="#00904E" stroke="black" stroke-width="5"/>
<path d="M128.563 196.143C104.015 192.491 90.1414 170.956 86.7834 166.937C77.9509 156.361 72.0015 130.798 71.8015 116.636C71.5598 100.036 77.001 84.0508 86.7001 71.9187C102.64 51.9815 115.364 39.5665 135.937 35.0066" stroke="black" stroke-width="3" stroke-miterlimit="10" stroke-linecap="round"/>
<path d="M190.04 53.8787C190.04 53.8787 166.459 66.1356 137.004 65.6446C107.548 65.1537 83.0587 57.0407 83.0587 57.0407" stroke="black" stroke-width="3" stroke-miterlimit="10"/>
<path d="M201.447 65.2703C201.447 65.2703 175.375 80.9804 137.92 81.1967C100.465 81.4131 73.593 69.1479 73.593 69.1479" stroke="black" stroke-width="3" stroke-miterlimit="10"/>
<path d="M146.194 195.686C121.647 192.133 107.781 171.147 104.432 167.228C95.6076 156.926 89.6665 132.005 89.4665 118.2C89.2332 102.016 92.7162 81.8374 102.424 70.0049C118.372 50.5586 126.48 40.5733 147.053 36.1216" stroke="black" stroke-width="3" stroke-miterlimit="10" stroke-linecap="round"/>
<path d="M215.821 139.153C215.821 139.153 188.924 172.828 150.369 181.415C111.806 190.003 79.984 171.164 79.984 171.164" stroke="black" stroke-width="3" stroke-miterlimit="10"/>
<path d="M81.9172 146.484C81.9172 146.484 86.925 148.331 85.0836 153.066C83.2337 157.808 76.3844 165.439 76.3844 165.439L71.6348 171.938L62.1441 160.438V157.276L70.3183 146.484L73.818 145.202C73.818 145.202 78.3925 142.481 81.9172 146.484Z" fill="#00904E" stroke="black" stroke-width="3" stroke-miterlimit="10"/>
<path d="M62.1441 157.284C62.1441 157.284 72.4597 166.845 73.343 169.608C74.2346 172.37 75.3345 175.532 73.343 175.898C71.3515 176.265 67.4269 168.534 65.4604 166.596C63.4939 164.657 59.0444 160.604 59.0444 160.604C59.0444 160.604 58.3028 155.537 62.1441 157.284Z" fill="#00904E" stroke="black" stroke-width="3" stroke-miterlimit="10"/>
<path d="M68.2018 168.676C68.2018 168.676 71.6098 173.71 71.4765 176.839C71.3432 179.967 69.435 186.316 68.2018 189.204C66.9769 192.083 62.7523 205.014 62.6107 205.422C62.4774 205.829 60.9775 211.005 58.1111 210.181C55.2531 209.366 56.7446 203.241 57.0196 202.692C57.2945 202.151 60.2942 195.07 58.2444 194.255C56.1946 193.439 49.9286 207.593 49.9286 207.593C49.9286 207.593 47.8871 212.12 44.8874 210.264C41.8877 208.409 45.8373 199.156 45.8373 199.156C45.8373 199.156 51.8367 192.624 49.9286 191.126C48.0204 189.628 39.7045 200.038 37.1131 201.635C34.5217 203.233 31.522 205.555 30.0221 203.915C28.5223 202.276 29.4805 197.924 33.5635 193.98C37.6464 190.036 43.7875 186.633 42.9709 184.452C42.1543 182.272 28.7972 192.349 28.7972 192.349C28.7972 192.349 22.5312 196.16 20.623 193.714C18.7149 191.267 24.306 184.319 27.714 182.414C31.122 180.508 46.6622 171.264 46.6622 171.264C46.6622 171.264 42.8459 170.315 39.9878 171.131C37.1298 171.946 32.2219 172.354 30.5804 169.5C28.9472 166.645 27.989 162.834 30.8554 162.968C33.7134 163.101 37.2631 165.689 40.6711 164.598C44.0791 163.508 49.6703 159.972 52.8033 160.247C55.9363 160.521 60.3026 160.247 62.4774 162.427C64.6522 164.607 68.2018 168.676 68.2018 168.676Z" fill="#00904E" stroke="black" stroke-width="3" stroke-miterlimit="10" stroke-linecap="round"/>
<path d="M59.9693 174.642C59.9693 174.642 53.8365 175.266 47.1538 170.598L59.9693 174.642Z" fill="#00904E"/>
<path d="M59.9693 174.642C59.9693 174.642 53.8365 175.266 47.1538 170.598" stroke="black" stroke-width="3" stroke-miterlimit="10" stroke-linecap="round"/>
<path d="M156.02 120.912C161.359 120.532 165.323 115.126 164.874 108.836C164.425 102.547 159.733 97.7564 154.394 98.1364C149.056 98.5164 145.092 103.923 145.541 110.212C145.99 116.502 150.681 121.292 156.02 120.912Z" fill="white" stroke="black" stroke-width="2" stroke-miterlimit="10"/>
<path d="M183.314 113.242C188.606 112.449 192.137 106.751 191.199 100.516C190.261 94.2805 185.211 89.8693 179.918 90.663C174.625 91.4567 171.095 97.1547 172.033 103.39C172.97 109.625 178.021 114.036 183.314 113.242Z" fill="white" stroke="black" stroke-width="2" stroke-miterlimit="10"/>
<path d="M189.673 106.908C190.191 103.087 187.683 99.5938 184.071 99.1054C180.459 98.6169 177.111 101.318 176.593 105.139C176.075 108.96 178.583 112.454 182.195 112.942C185.807 113.431 189.155 110.729 189.673 106.908Z" fill="black"/>
<path d="M162.791 114.677C163.309 110.856 160.801 107.363 157.189 106.874C153.577 106.386 150.229 109.087 149.711 112.908C149.192 116.729 151.7 120.223 155.312 120.711C158.924 121.2 162.272 118.498 162.791 114.677Z" fill="black"/>
<path d="M162.135 93.7032C162.135 93.7032 153.577 83.4267 145.353 93.9778" stroke="black" stroke-width="2" stroke-miterlimit="10" stroke-linecap="round"/>
<path d="M188.007 85.7483C188.007 85.7483 178.158 76.695 171.409 88.2363" stroke="black" stroke-width="2" stroke-miterlimit="10" stroke-linecap="round"/>
<path d="M145.344 135.899C145.344 135.899 151.827 142.023 161.218 144.162C166.326 145.319 172.292 145.302 178.55 142.481C196.315 134.468 199.756 116.261 199.756 116.261" stroke="black" stroke-width="4" stroke-miterlimit="10" stroke-linecap="round"/>
<path d="M179.291 148.439C185.274 146.974 189.824 134.535 190.165 134.168C190.499 133.802 183.832 140.201 179.825 141.874C175.817 143.546 167.492 144.878 167.492 144.878C167.492 144.878 173.333 149.903 179.291 148.439Z" fill="black"/>
</svg>
