<svg xmlns="http://www.w3.org/2000/svg" viewBox="0 0 420.04 338.9"><defs><style>.cls-1,.cls-5{fill:none;}.cls-1{stroke:#65b555;stroke-width:1.77px;}.cls-1,.cls-4,.cls-5{stroke-linecap:round;}.cls-2{fill:#1a3b37;}.cls-3,.cls-4{fill:#ea5b1c;}.cls-10,.cls-3,.cls-4,.cls-5,.cls-7,.cls-8{stroke:#1d1d1b;}.cls-3,.cls-4,.cls-5,.cls-7,.cls-8{stroke-miterlimit:10;}.cls-3,.cls-4,.cls-5,.cls-7{stroke-width:3px;}.cls-6{fill:#1d1d1b;}.cls-7{fill:#4cb05d;}.cls-8{fill:#fff;stroke-width:2px;}.cls-9{fill:#ea5a1c;}.cls-10{fill:#8b221b;}</style></defs><g id="Ebene_5" data-name="Ebene 5"><line class="cls-1" x1="83.28" y1="214.16" x2="71.54" y2="226.85"/><polygon class="cls-2" points="118.07 325.47 125.07 325.47 125.07 319.47 118.07 320.47 118.07 325.47"/></g><g id="armebeine"><path class="cls-3" d="M110.23,292.7s-4.77,2.53-3.79,4.94,6.36,5.67,9.91,5.31,8.69-1,10.77-3.5,1.47-5.31.61-5.79l-3.43-1.93Z"/><path class="cls-4" d="M117.42,310.19s8.8-1.74,11.11-1.57a33.46,33.46,0,0,1,9.48,1.69c2.33.85,5.14,5.79,6,7.24s0,7.84,0,7.84a27.61,27.61,0,0,1-2.33,2.78c-1.1,1.08-9.3,3.13-15.91,3.74s-15-1.69-18.16-3.14-3.38-7.36-3.38-7.36.13-9.17,0-11,3.38-11.16,3.38-11.16l6.1,3.41,10.67-1.35,3.89-4,1.65,11.39"/><path class="cls-5" d="M104.23,319.84s6.37,5,11.14,5.79,12.12,1.57,16.89.73,12.12-5.67,12.12-5.67"/><path class="cls-6" d="M106.31,237.27s3.43,43.48,3.68,47.7,0,9.17,0,9.17,1.76,3.77,7.43,3.21,6.89-2.72,6.89-2.72.48-13.27-1.11-18-4-46.83-4-46.83Z"/><path class="cls-3" d="M77.28,292.7s4.77,2.53,3.79,4.94-6.36,5.67-9.91,5.31-8.69-1-10.77-3.5-1.47-5.31-.61-5.79l3.42-1.93Z"/><path class="cls-4" d="M70.09,310.19s-8.8-1.74-11.11-1.57a33.31,33.31,0,0,0-9.48,1.69c-2.33.85-5.14,5.79-6,7.24s0,7.84,0,7.84a26.89,26.89,0,0,0,2.32,2.78c1.11,1.08,9.31,3.13,15.91,3.74s15.06-1.69,18.17-3.14,3.38-7.36,3.38-7.36-.13-9.17,0-11-3.37-11.16-3.37-11.16l-6.11,3.41-10.66-1.35-3.9-4-1.65,11.39"/><path class="cls-5" d="M83.28,319.84s-6.37,5-11.14,5.79-12.12,1.57-16.89.73-12.13-5.67-12.13-5.67"/><path class="cls-6" d="M81.2,237.27s-3.43,43.48-3.68,47.7,0,9.17,0,9.17-1.76,3.77-7.43,3.21-6.89-2.72-6.89-2.72-.49-13.27,1.1-18,4-46.83,4-46.83Z"/></g><g id="Ebene_1" data-name="Ebene 1"><path class="cls-7" d="M151.37,234l-28.59-48.11c12.17-.82,16.4-10.68,9.4-22.28l-28.37-47c-7.1-11.77-17.76-11.3-23.81,1L55.83,166.92c-6,12.16-.89,21.61,11.31,21.37L42.85,238.71c-6,12.39-.6,22,12,21.45l86.42-3.78c12.6-.55,17.12-10.58,10.09-22.41"/></g><g id="face"><ellipse class="cls-8" cx="103.72" cy="150.86" rx="6.56" ry="7.74" transform="translate(-24.14 19.83) rotate(-9.79)"/><ellipse class="cls-8" cx="85.13" cy="150.16" rx="6.56" ry="7.74" transform="translate(-13.57 8.55) rotate(-5.33)"/><ellipse class="cls-6" cx="86.92" cy="147.03" rx="4.47" ry="4.73" transform="translate(-47.98 42.27) rotate(-21.58)"/><ellipse class="cls-6" cx="105.65" cy="148.25" rx="4.47" ry="4.73" transform="translate(-47.11 49.24) rotate(-21.58)"/><ellipse class="cls-6" cx="107.13" cy="167.02" rx="3.57" ry="2.75"/><path class="cls-6" d="M211.68,115.24c4.54,29.36-43.28,42.27-62.15,24.7-.54-.5-15.15,15.53-15.64,15-.73-.82,12.7-18.26,12.08-19.19a23.67,23.67,0,0,1-3.39-8.58C137.2,92.42,205.12,80.71,211.68,115.24Z"/><path class="cls-6" d="M241,91.61c5.58,35.73-74.29,49.5-81,14C154.4,69.87,234.27,56.1,241,91.61Z"/><path class="cls-6" d="M256.11,117c4.54,28.82-65.61,40.92-71,12.24C180.59,100.41,250.74,88.32,256.11,117Z"/><path class="cls-6" d="M267.43,77c5.74,37-66.67,49.52-73.66,12.71C188,52.72,260.44,40.24,267.43,77Z"/><path class="cls-6" d="M298.66,51.86c5.95,38.08-79.2,52.76-86.34,14.89C206.37,28.67,291.51,14,298.66,51.86Z"/><path class="cls-6" d="M314.8,78.91c4.84,30.73-70,43.62-75.67,13C234.29,61.24,309.08,48.34,314.8,78.91Z"/><path class="cls-6" d="M297.77,116.91c5.73,37-66.67,49.52-73.66,12.71C218.37,92.59,290.77,80.1,297.77,116.91Z"/><path class="cls-6" d="M329,91.73c5.94,38.08-79.2,52.76-86.34,14.89C236.71,68.54,321.85,53.86,329,91.73Z"/><path class="cls-6" d="M345.14,118.78c4.84,30.73-69.95,43.62-75.67,13.05C264.63,101.11,339.42,88.21,345.14,118.78Z"/><circle class="cls-6" cx="297.39" cy="67.85" r="21.31"/><ellipse class="cls-6" cx="317.45" cy="90.67" rx="36.94" ry="25.9" transform="translate(-10.79 55.29) rotate(-9.79)"/><path class="cls-9" d="M298.28,94.63l-23,12.55c-.94-5.45,23.63-10,20.44-28.48-2.27-13.17-20.88-11.56-28-1L270,90.59c4.7-5.62,14.09-10.9,19.31-11.81,2.11-.36,3.47-.42,3.66.63.14.84-1.37,1.73-3.63,2.52-6.87,2.33-20.39,6.89-17.68,22.56l1.26,7.34,27.53-4.64Zm-37.09,15.85c-1.78,1.62-5.67-2-13.85-12.9-7.69-10.46-10-15.26-8.32-17,1.9-1.65,5.66,1.94,13.4,12.28,8.06,10.91,10.69,15.89,8.77,17.66m-7.93,5.77c12.28-2.12,16.29-12.71,14.38-23.77-2-11.5-9.11-19-21.39-16.85s-16.5,11.54-14.51,23c1.91,11.06,9.23,19.7,21.52,17.58m-34.07,5.88c17-2.94,12.65-17.24,11.16-19.21-.47,5.86-3.07,7.4-5.79,7.87C213.22,112.74,206,84.46,213.5,83.17c2.94-.51,5.76,7.53,4.16,16.85,5,4.18,13.28.68,11.64-8.82-1-6.06-6.29-11.62-17.13-9.75-12.78,2.2-16.82,11.6-14.81,23.27,1.93,11.17,9.38,19.56,21.83,17.41"/><path class="cls-10" d="M109,165.77h11.47l18.54-20.16s-.2,2.72,3.08,2.92l-19.5,18.87a3.14,3.14,0,0,1-2.12,1.12c-1.48.19-11.47,0-11.47,0S107.56,167.91,109,165.77Z"/></g></svg>