<svg xmlns="http://www.w3.org/2000/svg" viewBox="0 0 420.04 338.9"><defs><style>.cls-1{fill:#4cb05d;stroke-width:5px;}.cls-1,.cls-10,.cls-2,.cls-3,.cls-4,.cls-5,.cls-7,.cls-8,.cls-9{stroke:#1d1d1b;}.cls-10,.cls-2,.cls-3,.cls-4{fill:none;}.cls-10,.cls-2,.cls-4,.cls-5{stroke-linecap:round;}.cls-10,.cls-2,.cls-3,.cls-4,.cls-5,.cls-7,.cls-8,.cls-9{stroke-miterlimit:10;}.cls-2,.cls-3,.cls-7{stroke-width:3px;}.cls-4{stroke-width:4px;}.cls-11,.cls-5{fill:#fff;}.cls-10,.cls-5,.cls-8,.cls-9{stroke-width:2px;}.cls-6{fill:#1d1d1b;}.cls-7{fill:#547abc;}.cls-8{fill:#c8d761;}.cls-9{fill:#ea5b1c;}</style></defs><g id="armebeine"><circle class="cls-1" cx="156.3" cy="150.74" r="96.8" transform="translate(-60.81 154.67) rotate(-45)"/><path class="cls-2" d="M161.79,246.37c-29.66,0-51.71-18.46-65.06-34.87-10.32-12.68-21.64-39.57-23-56.54-1.54-19.9,4.43-38.07,16.11-53.43C109.1,76.28,124.15,57.2,151,53.15"/><path class="cls-3" d="M88.46,81.68S118,93.76,153.13,89.93A242.33,242.33,0,0,0,216.65,73.7"/><path class="cls-3" d="M76.08,96.57s32.88,15.92,77.67,12.06S229.3,87.14,229.3,87.14"/><path class="cls-3" d="M77,205.21s43.14,28.61,90.35,24.22S244,191.77,244,191.77"/><path class="cls-4" d="M184.88,147.23s22.74,29.33,63.09,24.5"/><path class="cls-2" d="M184.72,242.06c-29.65.11-51.63-17.39-64.91-33-10.27-12-21.48-37.61-22.74-53.77-1.47-18.94,4.57-36.28,16.31-50.95,19.3-24.12,34.41-42.34,61.31-46.31"/><ellipse class="cls-5" cx="236.71" cy="131.3" rx="7.29" ry="12.33" transform="matrix(0.99, -0.15, 0.15, 0.99, -16.99, 36.91)"/><ellipse class="cls-6" cx="238.38" cy="131.88" rx="1.66" ry="4.19"/></g><g id="auto-2" data-name="auto"><path class="cls-7" d="M26.22,208.59l44.87-5.34,17,7,2,5.33H257.58s-6.34-3.66-3.47-7c0,0-21.72-18.61-38.94-23.25l-2.46-10.57,74.6,40.78S366,219.65,404.12,243v15.17l3.69,8.19v29.1l-7,3.69H39.34s-13.12-6.56-20.09-10.24A24.69,24.69,0,0,1,12.7,271.7c0-11.07,0-11.89,4.09-15.16l1.64-21.73S11.47,219.26,26.22,208.59Z"/><circle class="cls-6" cx="80.62" cy="291.28" r="33.2"/><circle class="cls-6" cx="332.15" cy="289.5" r="33.2"/><path class="cls-8" d="M374.5,230.28c1.41.44,0,28.19,0,28.19h29.62V243Z"/><polygon class="cls-9" points="16.8 256.54 34.65 256.54 34.65 235.11 18.27 235.11 16.8 256.54"/><path class="cls-10" d="M146.22,220.09s23.5,23.52,23.5,38.38v40.69"/><circle class="cls-11" cx="80.62" cy="291.28" r="20.24"/><circle class="cls-11" cx="332.15" cy="289.5" r="20.24"/><path class="cls-10" d="M288,282.66s1.38-37.43,44.17-36.29,42.35,36.29,42.35,36.29"/><path class="cls-10" d="M37.37,282.66s1.38-37.43,44.17-36.29,42.34,36.29,42.34,36.29"/></g></svg>