<svg xmlns="http://www.w3.org/2000/svg" viewBox="0 0 420.04 338.9"><defs><style>.cls-1{fill:#4cb05d;stroke-width:5px;}.cls-1,.cls-2,.cls-3,.cls-4,.cls-5,.cls-7{stroke:#1d1d1b;}.cls-2,.cls-3,.cls-4,.cls-7{fill:none;}.cls-2,.cls-4,.cls-7{stroke-linecap:round;}.cls-2,.cls-3,.cls-4,.cls-5,.cls-7{stroke-miterlimit:10;}.cls-2,.cls-3{stroke-width:3px;}.cls-4{stroke-width:4px;}.cls-5{fill:#fff;}.cls-5,.cls-7{stroke-width:2px;}.cls-6{fill:#1d1d1b;}</style></defs><g id="armebeine"><circle class="cls-1" cx="199.82" cy="213.88" r="96.8" transform="translate(-92.71 203.94) rotate(-45)"/><path class="cls-2" d="M192.91,309.42c-29.4-3.83-48.89-25-60-43-8.6-13.91-16.35-42-15.46-59,1-19.93,9.3-37.18,22.88-50.91C162.62,134,180,117,207.2,116.42"/><path class="cls-2" d="M208.75,310.27c29.61-3.28,47.22-28.51,51.42-33.19,11.07-12.3,19.36-42.73,20.25-59.73,1-19.93-4.76-39.36-15.85-54.37-18.21-24.67-32.91-40.15-57.37-46.56"/><path class="cls-3" d="M141.45,136.64s27.73,15.79,63.07,16.53a242.25,242.25,0,0,0,65.09-7.9"/><path class="cls-3" d="M127.26,149.8s30.55,20,75.46,22,77.7-11.57,77.7-11.57"/><path class="cls-3" d="M114.17,257.66s39.09,33.94,86.47,35.68,80.84-27.46,80.84-27.46"/><path class="cls-4" d="M153.76,217.76s10.4,42.38,40.67,42.6,47.46-37.24,47.46-37.24"/><ellipse class="cls-5" cx="182.37" cy="212.34" rx="13.72" ry="11.63" transform="translate(-64.87 343.57) rotate(-77.3)"/><ellipse class="cls-5" cx="212.04" cy="214.81" rx="13.72" ry="11.63" transform="translate(-30.94 393.87) rotate(-81.76)"/><ellipse class="cls-6" cx="184.39" cy="206.98" rx="7.92" ry="8.39" transform="translate(-12.46 11.81) rotate(-3.55)"/><ellipse class="cls-6" cx="212.81" cy="209.47" rx="7.92" ry="8.39" transform="translate(-12.56 13.57) rotate(-3.55)"/><path class="cls-7" d="M174.36,194.72s10.67-6.2,20.07,1.79"/><path class="cls-7" d="M205.81,189.94s11.14-11.57,20.07,1.79"/></g><g id="hair"><path class="cls-6" d="M313.65,211.66s13.3-17.83,13.43-29.28-3.59-27.41-10.85-33a143.47,143.47,0,0,0-14.9-10s-2.17-20.67-9.73-23.74-18.22-13.9-18.22-13.9,7.75-17.93,2.58-27.49-7.74-27.48-47-35.85-68.15-.59-78,6-28.4,29.87-33.56,47.8c0,0-8.26,28.68,10.84,43s35,27.64,52.7,28.52,42.58,1,51.22,0,26.24-5.82,26.24-5.82-1.27,24.63,5,33.23,15.06,24.14,15.06,24.14S267.93,238,265.73,244.52s-2.25,20.34-2.25,20.34l26.42-19.14-2.58-37.05S295.81,229.52,313.65,211.66Z"/><path class="cls-6" d="M134.53,141s-17.23,19.22-18,23.51-5.36,13.57-4.64,16.08S118,214.39,118,214.39L133.48,226V199.54l-6.54-20L158.2,147Z"/><path class="cls-3" d="M221.38,89.27s-14.59,18.43-8.57,27.15,21.34,13.77,31.06,15.45"/></g></svg>