<svg width="216" height="174" viewBox="0 0 216 174" fill="none" xmlns="http://www.w3.org/2000/svg">
<path d="M143.313 115.187C143.313 115.187 141.652 118.971 143.39 119.982C145.128 120.994 149.926 120.45 151.885 118.565C153.849 116.676 156.652 113.898 156.698 111.377C156.739 108.857 155.048 107.455 154.302 107.563C153.556 107.671 151.319 107.994 151.319 107.994L143.313 115.187Z" fill="#193B37" stroke="black" stroke-width="3" stroke-miterlimit="10"/>
<path d="M155.983 122.473C155.983 122.473 160.452 117.282 161.923 116.301C164.926 114.299 166.633 113.457 168.433 112.877C170.233 112.296 174.29 113.991 175.494 114.473C176.702 114.951 179.232 119.253 179.232 119.253C179.232 119.253 179.299 120.855 179.155 122.036C179.011 123.217 175.056 128.315 171.364 131.786C167.677 135.257 161.501 137.824 158.94 138.404C156.379 138.984 153.397 135.508 153.397 135.508C153.397 135.508 149.098 129.861 148.162 128.819C147.226 127.771 144.866 120.429 144.866 120.429L150.167 119.644L155.937 113.811L156.384 109.56L162.807 115.721" fill="#00904E"/>
<path d="M155.983 122.473C155.983 122.473 160.452 117.282 161.923 116.301C164.926 114.299 166.633 113.457 168.433 112.877C170.233 112.296 174.29 113.991 175.494 114.473C176.702 114.951 179.232 119.253 179.232 119.253C179.232 119.253 179.299 120.855 179.155 122.036C179.011 123.217 175.056 128.315 171.364 131.786C167.677 135.257 161.501 137.824 158.94 138.404C156.379 138.984 153.397 135.508 153.397 135.508C153.397 135.508 149.098 129.861 148.162 128.819C147.226 127.771 144.866 120.429 144.866 120.429L150.167 119.644L155.937 113.811L156.384 109.56L162.807 115.721" stroke="black" stroke-width="3" stroke-miterlimit="10" stroke-linecap="round"/>
<path d="M152.651 134.548C152.651 134.548 158.843 134.574 162.118 132.849C165.394 131.124 170.156 128.115 172.624 125.358C175.092 122.601 177.216 116.214 177.216 116.214" stroke="black" stroke-width="3" stroke-miterlimit="10" stroke-linecap="round"/>
<path d="M130.014 103.06C130.014 103.06 137.322 108.138 139.482 110.597C141.641 113.056 143.858 116.183 143.858 116.183C143.858 116.183 146.717 117.652 149.859 114.653C153.001 111.655 152.703 109.755 152.703 109.755C152.703 109.755 146.665 101.438 143.462 99.3171C140.258 97.1966 134.241 92.4577 134.241 92.4577L130.014 103.06Z" fill="#00904E" stroke="black" stroke-width="3" stroke-miterlimit="10"/>
<path d="M79.6707 106.726C79.6707 106.726 76.4156 111.901 74.9346 117.076C73.4536 122.257 71.8029 130.497 71.8029 130.497L82.175 132.289C82.175 132.289 82.4116 124.141 84.0623 121.554C85.713 118.966 88.7727 110.972 88.7727 110.972L79.6707 106.726Z" fill="#00904E" stroke="black" stroke-width="3" stroke-miterlimit="10"/>
<path d="M71.808 130.497L70.831 131.904L69.6842 133.557C69.6842 133.557 64.9687 128.202 60.9628 127.941C56.9569 127.679 53.5886 126.025 51.0277 129.558C48.4668 133.09 47.3561 133.794 47.7932 135.206C48.2303 136.617 50.5855 144.858 57.4248 146.978C64.2642 149.099 71.3349 152.154 76.7601 149.684C82.1853 147.215 83.836 145.803 84.7771 143.446C85.7181 141.089 83.1264 135.206 83.1264 135.206C83.1264 135.206 83.4761 134.338 83.7537 133.557C83.9903 132.905 84.1754 132.31 84.0674 132.33C83.836 132.382 71.808 130.497 71.808 130.497Z" fill="#00904E" stroke="black" stroke-width="3" stroke-miterlimit="10"/>
<path d="M49.7112 131.309C49.9735 130.97 57.2654 130.97 59.8211 134.502C62.3769 138.035 67.7969 142.27 73.2221 142.506C78.6473 142.743 84.8079 140.478 84.8079 140.478" stroke="black" stroke-width="3" stroke-miterlimit="10"/>
<path d="M69.6842 133.557C69.6842 133.557 73.4587 139.205 83.1264 135.206" stroke="black" stroke-width="3" stroke-miterlimit="10"/>
<path d="M47.7932 135.206C47.7932 135.206 51.6088 134.03 59.8211 139.914C68.0335 145.798 69.9979 147.266 76.4053 146.742C82.8127 146.219 84.777 143.446 84.777 143.446" stroke="black" stroke-width="3" stroke-miterlimit="10"/>
<path d="M83.1264 133.557C80.6272 133.614 78.488 134.548 76.4053 133.557C74.3227 132.567 70.831 131.904 70.831 131.904" fill="#193B37"/>
<path d="M83.1264 133.557C80.6272 133.614 78.488 134.548 76.4053 133.557C74.3227 132.567 70.831 131.904 70.831 131.904" stroke="black" stroke-width="3" stroke-miterlimit="10"/>
<path d="M59.7955 47.7794C59.7955 47.7794 58.7413 50.8959 55.7793 49.8382C52.8224 48.7806 47.9886 44.6834 47.9886 44.6834L43.8953 41.8699L50.8426 35.832L52.7967 35.7806L59.6001 40.6376L60.4485 42.7735C60.4537 42.7684 62.2124 45.5409 59.7955 47.7794Z" fill="#00904E" stroke="black" stroke-width="3" stroke-miterlimit="10"/>
<path d="M52.8018 35.7806C52.8018 35.7806 47.0681 42.2909 45.3762 42.8864C43.6844 43.482 41.7509 44.2111 41.4886 42.9891C41.2264 41.7672 45.9419 39.2206 47.1092 37.9781C48.2765 36.7356 50.7037 33.9272 50.7037 33.9272C50.7037 33.9272 53.8149 33.3829 52.8018 35.7806Z" fill="#00904E" stroke="black" stroke-width="3" stroke-miterlimit="10"/>
<path d="M45.8648 39.6929C45.8648 39.6929 42.8102 41.875 40.8767 41.8442C38.938 41.8134 34.9887 40.7403 33.1837 40.0318C31.3839 39.3233 23.3258 36.9359 23.0687 36.8588C22.8115 36.7818 19.5924 35.9449 20.0501 34.1685C20.5078 32.392 24.3131 33.2135 24.6577 33.3727C24.997 33.5318 29.4195 35.2621 29.8926 33.9888C30.3657 32.7155 21.5157 29.0907 21.5157 29.0907C21.5157 29.0907 18.6822 27.9047 19.7827 26.0307C20.8832 24.1567 26.6632 26.4363 26.6632 26.4363C26.6632 26.4363 30.7976 30.02 31.6924 28.8237C32.5872 27.6274 26.0152 22.6677 24.9816 21.1018C23.948 19.5358 22.4721 17.7235 23.4543 16.7736C24.4365 15.8238 27.1466 16.3372 29.6509 18.7914C32.1552 21.2456 34.3613 24.9679 35.6932 24.4237C37.025 23.8846 30.5817 15.8238 30.5817 15.8238C30.5817 15.8238 28.1236 12.0244 29.6046 10.8076C31.0856 9.59079 35.4669 12.9178 36.7011 14.9869C37.9352 17.056 43.9107 26.4722 43.9107 26.4722C43.9107 26.4722 44.4352 24.1053 43.885 22.3546C43.3347 20.6038 43.0005 17.59 44.7386 16.5374C46.4767 15.4849 48.8165 14.8329 48.7805 16.5991C48.7445 18.3652 47.2069 20.5884 47.932 22.6729C48.6571 24.7574 50.9403 28.1357 50.822 30.0713C50.7037 32.007 50.9454 34.687 49.6393 36.0682C48.3331 37.4493 45.8648 39.6929 45.8648 39.6929Z" fill="#00904E" stroke="black" stroke-width="3" stroke-miterlimit="10" stroke-linecap="round"/>
<path d="M42.044 34.723C42.044 34.723 41.5555 30.9544 44.3324 26.7649Z" fill="#00904E"/>
<path d="M42.044 34.723C42.044 34.723 41.5555 30.9544 44.3324 26.7649" stroke="black" stroke-width="3" stroke-miterlimit="10" stroke-linecap="round"/>
<path d="M153.926 59.3212C153.926 59.3212 154.981 62.4377 157.943 61.38C160.905 60.3224 165.733 56.2253 165.733 56.2253L169.827 53.4117L162.879 47.3738L160.925 47.3224L154.122 52.1795L153.273 54.3153C153.268 54.3102 151.515 57.0775 153.926 59.3212Z" fill="#00904E" stroke="black" stroke-width="3" stroke-miterlimit="10"/>
<path d="M160.925 47.3173C160.925 47.3173 166.659 53.8275 168.351 54.4231C170.043 55.0187 171.976 55.7477 172.238 54.5258C172.501 53.3038 167.785 50.7573 166.618 49.5148C165.451 48.2723 163.023 45.4638 163.023 45.4638C163.023 45.4638 159.912 44.9247 160.925 47.3173Z" fill="#00904E" stroke="black" stroke-width="3" stroke-miterlimit="10"/>
<path d="M167.862 51.2348C167.862 51.2348 170.917 53.4168 172.85 53.386C174.789 53.3552 178.738 52.2821 180.543 51.5736C182.343 50.8651 190.401 48.4777 190.658 48.4006C190.916 48.3236 194.135 47.4867 193.677 45.7103C193.219 43.9338 189.414 44.7553 189.069 44.9145C188.725 45.0736 184.308 46.8039 183.835 45.5306C183.361 44.2573 192.211 40.6325 192.211 40.6325C192.211 40.6325 195.045 39.4465 193.944 37.5725C192.844 35.6985 187.064 37.9781 187.064 37.9781C187.064 37.9781 182.929 41.5618 182.035 40.3655C181.14 39.1641 187.707 34.2147 188.74 32.6487C189.774 31.0828 191.25 29.2704 190.268 28.3206C189.285 27.3707 186.575 27.8841 184.071 30.3383C181.567 32.7925 179.361 36.5148 178.029 35.9706C176.697 35.4264 183.14 27.3707 183.14 27.3707C183.14 27.3707 185.598 23.5714 184.117 22.3545C182.636 21.1377 178.255 24.4647 177.021 26.5338C175.787 28.6029 169.811 38.0192 169.811 38.0192C169.811 38.0192 169.287 35.6523 169.837 33.9015C170.387 32.1507 170.721 29.1369 168.983 28.0844C167.245 27.0319 164.905 26.3798 164.941 28.146C164.977 29.9122 166.515 32.1353 165.79 34.2198C165.06 36.2992 162.782 39.6827 162.9 41.6183C163.018 43.5539 162.777 46.234 164.083 47.6151C165.399 48.9859 167.862 51.2348 167.862 51.2348Z" fill="#00904E" stroke="black" stroke-width="3" stroke-miterlimit="10" stroke-linecap="round"/>
<path d="M171.683 46.2648C171.683 46.2648 172.172 42.4962 169.395 38.3067Z" fill="#00904E"/>
<path d="M171.683 46.2648C171.683 46.2648 172.172 42.4962 169.395 38.3067" stroke="black" stroke-width="3" stroke-miterlimit="10" stroke-linecap="round"/>
<path d="M105.172 113.734C132.663 113.734 154.95 91.4831 154.95 64.0348C154.95 36.5865 132.663 14.3352 105.172 14.3352C77.68 14.3352 55.3936 36.5865 55.3936 64.0348C55.3936 91.4831 77.68 113.734 105.172 113.734Z" fill="#00904E" stroke="black" stroke-width="5"/>
<path d="M98.5843 112.774C83.6148 109.878 74.2866 98.4134 69.1494 88.8432C65.1795 81.4447 62.0992 66.7813 63.0917 58.0993C64.259 47.9232 69.0517 39.3438 76.4567 32.7412C88.6235 21.8925 98.0855 13.7444 112.062 14.3297" stroke="black" stroke-width="3" stroke-miterlimit="10" stroke-linecap="round"/>
<path d="M106.689 113.714C121.987 112.974 131.83 100.606 134.139 98.3416C140.212 92.391 145.436 77.0601 146.434 68.378C147.601 58.2019 145.246 48.0567 140.032 40.0113C131.47 26.7906 124.42 18.3909 112.068 14.3297" stroke="black" stroke-width="3" stroke-miterlimit="10" stroke-linecap="round"/>
<path d="M77.6754 22.601C77.6754 22.601 91.4004 31.5705 109.522 33.0749C127.639 34.5792 143.179 31.0982 143.179 31.0982" stroke="black" stroke-width="3" stroke-miterlimit="10"/>
<path d="M69.9722 28.8905C69.9722 28.8905 85.0136 40.1294 108.005 42.563C130.991 44.9915 148.249 39.1076 148.249 39.1076" stroke="black" stroke-width="3" stroke-miterlimit="10"/>
<path d="M59.8212 83.7449C59.8212 83.7449 78.8016 102.377 103.063 104.78C127.325 107.178 145.426 93.2792 145.426 93.2792" stroke="black" stroke-width="3" stroke-miterlimit="10"/>
<path d="M74.9397 65.2C74.9397 65.2 83.548 82.2046 104.39 83.7089C125.232 85.2133 135.409 73.2556 135.409 73.2556" stroke="black" stroke-width="4" stroke-miterlimit="10" stroke-linecap="round"/>
<path d="M102.012 64.3702C103.103 60.6354 101.416 56.8595 98.2455 55.9364C95.0746 55.0134 91.62 57.2927 90.5294 61.0275C89.4387 64.7623 91.1251 68.5382 94.2959 69.4613C97.4668 70.3843 100.921 68.1049 102.012 64.3702Z" fill="white" stroke="black" stroke-width="2" stroke-miterlimit="10"/>
<path d="M117.265 66.1182C118.061 62.3099 116.085 58.6765 112.852 58.0028C109.619 57.329 106.352 59.8701 105.556 63.6784C104.76 67.4868 106.736 71.1202 109.969 71.7939C113.202 72.4676 116.469 69.9266 117.265 66.1182Z" fill="white" stroke="black" stroke-width="2" stroke-miterlimit="10"/>
<path d="M95.0104 69.3638C97.2597 69.3638 99.0831 67.4352 99.0831 65.0562C99.0831 62.6771 97.2597 60.7485 95.0104 60.7485C92.7611 60.7485 90.9376 62.6771 90.9376 65.0562C90.9376 67.4352 92.7611 69.3638 95.0104 69.3638Z" fill="black"/>
<path d="M110.427 71.7359C112.677 71.7359 114.5 69.8073 114.5 67.4282C114.5 65.0492 112.677 63.1206 110.427 63.1206C108.178 63.1206 106.354 65.0492 106.354 67.4282C106.354 69.8073 108.178 71.7359 110.427 71.7359Z" fill="black"/>
<path d="M92.794 52.2103C92.794 52.2103 98.8826 46.6345 103.038 53.766" stroke="black" stroke-width="2" stroke-miterlimit="10" stroke-linecap="round"/>
<path d="M109.075 54.4283C109.075 54.4283 115.847 49.7048 119.02 57.324" stroke="black" stroke-width="2" stroke-miterlimit="10" stroke-linecap="round"/>
</svg>
