<svg xmlns="http://www.w3.org/2000/svg" viewBox="0 0 420.04 338.9"><defs><style>.cls-1,.cls-2,.cls-3,.cls-4{fill:#4cb05d;}.cls-1,.cls-10,.cls-2,.cls-3,.cls-4,.cls-5,.cls-6,.cls-7,.cls-8{stroke:#1d1d1b;}.cls-1,.cls-10,.cls-2,.cls-3,.cls-5,.cls-6,.cls-7,.cls-8{stroke-miterlimit:10;}.cls-1,.cls-7{stroke-width:4px;}.cls-2,.cls-3,.cls-5,.cls-6{stroke-width:3px;}.cls-10,.cls-3,.cls-5,.cls-7{stroke-linecap:round;}.cls-4{stroke-width:5px;}.cls-10,.cls-5,.cls-6,.cls-7{fill:none;}.cls-8{fill:#fff;}.cls-10,.cls-8{stroke-width:2px;}.cls-9{fill:#1d1d1b;}</style></defs><g id="armebeine"><polygon class="cls-1" points="314.66 95.07 298.93 103.19 301.33 124.72 319.63 114.46 314.66 101.19 314.66 95.07"/><path class="cls-2" d="M319.63,90.66s-4.14.72-4.68,3.6-.35,10.32.72,13.16,3.42,7,5,8.07,4.52,2.54,7.39,1.63"/><path class="cls-2" d="M358.11,114.05s3.61-1.08,5.05-2.4,2.34-5.7,2.34-5.7,17.45,3.6,18.88,4,10.62.72,12.78,0A5.11,5.11,0,0,0,400,103.2c-1.26-3.12-11.52-6.78-13.86-6.86s-14.57-2.26-16.36-2.44-4.14-1.26-4.14-2.34,8.27-2.15,9.18-2.33,15.28-.72,18.16-1.08,6.83-2.7,7-5.76-5.21-4.14-8.45-5.4-14.39-.89-18.53-.71-23.38,4.14-23.38,4.14l-15.41-1.1L328.1,97.68l7,14.3Z"/><polygon class="cls-1" points="107.72 116.22 91.83 118.88 89.97 138.84 108.49 136.99 107.72 116.22"/><path class="cls-2" d="M85.45,115.69s7.18,3.62,7.45,8.06-.8,11.1-1.86,13-5.59,4-5.59,4-7.19,7.45-8.78,8.25-10.38,4-10.38,4-7.19,3.46-10.11,3.19-9.85-2.66-10.11-6.12c0,0-5.86-4-6.39-7.71a20.82,20.82,0,0,1,0-6.38s-3.46-3.73-3.73-6.13a42.71,42.71,0,0,1,0-6s-4-4.87-3.19-8.06,4.26-8.28,8.78-8.27A50,50,0,0,1,53.25,109c1.6.54,6.39-1.83,4.52-5.83s-6.38-9.6-6.38-13.06,2.66-14.63,6.92-14.37,5,2.44,5.85,8.27S69,98.12,72.68,101.18,83.59,112,85.45,115.69Z"/><line class="cls-2" x1="85.45" y1="115.69" x2="85.45" y2="140.7"/><path class="cls-3" d="M62.8,118.08s3,15.06,13.6,13.25"/><path class="cls-3" d="M53.25,109s5.06,3.73,3.73,7.19-5.33,6.79-20.49,7"/><path class="cls-3" d="M55.31,119.86s5.07,1.57,5.87,3.89,1.74,6.35-1.17,7.58-8.36,3.25-19,4"/><path class="cls-3" d="M61.73,131.33s3.29,1.7,3.71,4c.61,3.5-1.09,5.05-3.71,6.65s-15.66,8-15.66,8"/><path class="cls-3" d="M64,140.34a3.56,3.56,0,0,1,4.66.36c1.24,1.06,1.89,3.47.74,6.92-.8,2.39-6.62,6.83-6.62,6.83"/><path class="cls-2" d="M159.22,250.64s7.09,3.82,5.63,7.46-9.45,8.54-14.72,8-12.9-1.45-16-5.27-2.18-8-.91-8.72l5.09-2.91Z"/><path class="cls-3" d="M148.55,277s-13.07-2.62-16.5-2.37c-7,.53-10.64,1.28-14.09,2.55s-7.63,8.72-8.9,10.9,0,11.82,0,11.82a39.85,39.85,0,0,0,3.45,4.18c1.63,1.63,13.81,4.72,23.63,5.63s22.35-2.54,27-4.72,5-11.09,5-11.09-.19-13.81,0-16.54-5-16.82-5-16.82l-9.06,5.15-15.84-2-5.79-6L130,274.81"/><path class="cls-3" d="M168.13,291.54s-9.46,7.45-16.55,8.72-18,2.36-25.08,1.09-18-8.53-18-8.53"/><path class="cls-2" d="M165.05,216.11s-5.11,16.54-5.47,22.9,0,13.82,0,13.82-2.62,5.67-11,4.83-10.24-4.11-10.24-4.11-.72-20,1.64-27.08,5.9-21.57,5.9-21.57Z"/><path class="cls-3" d="M337.26,78.79s-6.84,14.21,0,15.47,11.33-8,12.05-10.22.54-9.92-2-11.54-7.19-3.06-9-2.34-10.61,3.78-12.95,8.27-5.76,11-5.76,14.75.72,14.27,3.24,18.47,9.71,9,12.95,9.95,11.15,2,15.29,0,6.29-4.49,6.65-6.65,1.26-8.28-2.69-10.79-7.74-5.4-10.62-4.68-6.83,1.8-7.55,4.5-.78,8.63,2.94,8.63,5.15-1,5.15-1a3,3,0,0,0,2.34,3.48"/><path class="cls-2" d="M346.36,89.45c.25-.34,16.44,1.21,19.14,16.5"/><path class="cls-3" d="M324.85,92.1s11.14-3.24,14,9.44"/><path class="cls-2" d="M248.2,250.64s-7.09,3.82-5.64,7.46,9.46,8.54,14.73,8,12.9-1.45,16-5.27,2.18-8,.91-8.72l-5.09-2.91Z"/><path class="cls-3" d="M258.87,277s13.07-2.62,16.5-2.37c7,.53,10.63,1.28,14.08,2.55s7.64,8.72,8.91,10.9,0,11.82,0,11.82a41.32,41.32,0,0,1-3.45,4.18c-1.64,1.63-13.82,4.72-23.63,5.63s-22.35-2.54-27-4.72-5-11.09-5-11.09.18-13.81,0-16.54,5-16.82,5-16.82l9.06,5.15,15.84-2,5.78-6,2.45,17.15"/><path class="cls-3" d="M239.29,291.54s9.45,7.45,16.54,8.72,18,2.36,25.08,1.09,18-8.53,18-8.53"/><path class="cls-2" d="M242.37,216.11s5.1,16.54,5.46,22.9,0,13.82,0,13.82,2.63,5.67,11,4.83,10.23-4.11,10.23-4.11.73-20-1.64-27.08-5.9-21.57-5.9-21.57Z"/></g><g id="Ebene_1" data-name="Ebene 1"><circle class="cls-4" cx="204.52" cy="124.72" r="96.8"/><path class="cls-5" d="M191.71,219.65c-29.11-5.65-47.25-28-57.23-46.61-7.72-14.41-13.71-43-11.78-59.88,2.27-19.83,11.59-36.53,26-49.39,23.66-21.13,42.06-37,69.23-35.86"/><path class="cls-5" d="M207.47,221.48c29.75-1.44,48.89-25.53,53.38-29.94,11.81-11.59,22-41.45,23.9-58.36,2.27-19.83-2.31-39.59-12.44-55.25-16.66-25.75-30.37-42.11-54.39-50"/><path class="cls-6" d="M151.05,44s26.7,17.47,61.93,20.4a242.23,242.23,0,0,0,65.45-3.85"/><path class="cls-6" d="M136.07,56.27s29.25,21.9,74,26.63,78.26-6.73,78.26-6.73"/><path class="cls-6" d="M116.33,163.11s36.92,36.3,84.1,41,82.37-22.4,82.37-22.4"/></g><g id="face"><path class="cls-7" d="M145.73,127S162.46,160.11,203,163s60.32-20.36,60.32-20.36"/><ellipse class="cls-8" cx="187.21" cy="122.11" rx="13.72" ry="11.63" transform="translate(17.59 267.66) rotate(-73.75)"/><ellipse class="cls-8" cx="216.66" cy="126.4" rx="13.72" ry="11.63" transform="translate(48.66 312.67) rotate(-78.21)"/><ellipse class="cls-9" cx="184.76" cy="126.71" rx="7.92" ry="8.39"/><ellipse class="cls-9" cx="214.74" cy="131.33" rx="7.92" ry="8.39"/><path class="cls-10" d="M180.45,101.69s11.83-10.86,19.91,3"/><path class="cls-10" d="M212.11,106s13.17-9.19,19.34,5.64"/></g></svg>