<svg xmlns="http://www.w3.org/2000/svg" viewBox="0 0 420.04 338.9"><defs><style>.cls-1{fill:#4cb05d;stroke-width:5px;}.cls-1,.cls-2,.cls-3,.cls-4,.cls-5,.cls-7{stroke:#1d1d1b;}.cls-2,.cls-3,.cls-4,.cls-7{fill:none;}.cls-2,.cls-4,.cls-7{stroke-linecap:round;}.cls-2,.cls-3,.cls-4,.cls-5,.cls-7{stroke-miterlimit:10;}.cls-2,.cls-3{stroke-width:3px;}.cls-4{stroke-width:4px;}.cls-5{fill:#fff;}.cls-5,.cls-7{stroke-width:2px;}.cls-6{fill:#1d1d1b;}</style></defs><g id="armebeine"><circle class="cls-1" cx="212.1" cy="169.77" r="96.8" transform="translate(-57.92 199.7) rotate(-45)"/><path class="cls-2" d="M205.2,265.31c-29.41-3.83-48.9-25-60-43-8.59-13.91-16.34-42-15.46-59,1-19.93,9.31-37.18,22.88-50.9,22.3-22.56,39.69-39.53,66.88-40.08"/><path class="cls-2" d="M221,266.16c29.6-3.28,47.21-28.51,51.42-33.18,11.07-12.31,19.36-42.73,20.24-59.73,1-19.93-4.76-39.37-15.84-54.38-18.22-24.66-32.92-40.15-57.38-46.55"/><path class="cls-3" d="M153.74,92.54s27.72,15.78,63.07,16.52a242.46,242.46,0,0,0,65.08-7.89"/><path class="cls-3" d="M139.54,105.7s30.55,20,75.47,22,77.69-11.56,77.69-11.56"/><path class="cls-3" d="M126.46,213.55s39.09,33.94,86.47,35.68,80.83-27.45,80.83-27.45"/><path class="cls-4" d="M153.56,175.68s18.75,32,59.4,32.43,58.94-24.05,58.94-24.05"/><ellipse class="cls-5" cx="194.66" cy="168.24" rx="13.72" ry="11.63" transform="translate(-12.26 321.14) rotate(-77.3)"/><ellipse class="cls-5" cx="224.32" cy="170.7" rx="13.72" ry="11.63" transform="translate(23.23 368.24) rotate(-81.76)"/><ellipse class="cls-6" cx="192.5" cy="172.99" rx="7.92" ry="8.39" transform="translate(-10.34 12.24) rotate(-3.55)"/><ellipse class="cls-6" cx="222.71" cy="175.74" rx="7.92" ry="8.39" transform="translate(-10.45 14.12) rotate(-3.55)"/><path class="cls-7" d="M186.64,148.28s11.15-11.57,20.07,1.79"/><path class="cls-7" d="M218.51,150.63s12.58-10,19.65,4.43"/></g></svg>