<svg xmlns="http://www.w3.org/2000/svg" viewBox="0 0 420.04 338.9"><defs><style>.cls-1{fill:#4cb05d;stroke-width:5px;}.cls-1,.cls-2,.cls-3,.cls-4,.cls-5{stroke:#1d1d1b;}.cls-2,.cls-3,.cls-4,.cls-5{fill:none;stroke-miterlimit:10;}.cls-2,.cls-4,.cls-5{stroke-linecap:round;}.cls-2,.cls-3{stroke-width:3px;}.cls-4{stroke-width:4px;}.cls-5{stroke-width:2px;}</style></defs><g id="armebeine"><circle class="cls-1" cx="212.1" cy="169.77" r="96.8" transform="translate(-57.92 199.7) rotate(-45)"/><path class="cls-2" d="M205.2,265.31c-29.41-3.83-48.9-25-60-43-8.59-13.91-16.34-42-15.46-59,1-19.93,9.31-37.18,22.88-50.9,22.3-22.56,39.69-39.53,66.88-40.08"/><path class="cls-3" d="M153.74,92.54s27.72,15.78,63.07,16.52a242.46,242.46,0,0,0,65.08-7.89"/><path class="cls-3" d="M139.54,105.7s30.55,20,75.47,22,77.69-11.56,77.69-11.56"/><path class="cls-3" d="M126.46,213.55s39.09,33.94,86.47,35.68,80.83-27.45,80.83-27.45"/><path class="cls-4" d="M240.9,173s18.75,32,59.39,32.43"/><path class="cls-5" d="M280.22,161.7s11.15,11.58,20.07-1.78"/><path class="cls-2" d="M228.49,264c-29.41-3.72-49-23.92-60.11-41.07-8.63-13.27-16.45-40.08-15.6-56.26,1-19,9.21-35.38,22.74-48.42,22.25-21.42,39.59-37.55,66.78-38"/></g></svg>