<svg xmlns="http://www.w3.org/2000/svg" viewBox="0 0 420.04 338.9"><defs><style>.cls-1,.cls-11{fill:#8b221b;}.cls-1,.cls-10,.cls-11,.cls-12,.cls-2,.cls-3,.cls-4,.cls-5,.cls-6,.cls-8,.cls-9{stroke:#1d1d1b;}.cls-1,.cls-10,.cls-11,.cls-12,.cls-3,.cls-4,.cls-5,.cls-6,.cls-8,.cls-9{stroke-miterlimit:10;}.cls-1,.cls-11,.cls-12,.cls-3,.cls-4,.cls-9{stroke-width:3px;}.cls-10,.cls-2,.cls-9{fill:#4cb05d;}.cls-2{stroke-width:5px;}.cls-3,.cls-4,.cls-5,.cls-8{fill:none;}.cls-10,.cls-11,.cls-3,.cls-5{stroke-linecap:round;}.cls-10,.cls-5{stroke-width:4px;}.cls-6{fill:#fff;stroke-width:2px;}.cls-7{fill:#1d1d1b;}.cls-8{stroke-width:7px;}.cls-12{fill:#c8d761;}</style></defs><g id="bikeerde"><path class="cls-1" d="M238.67,186.17l12,4s6.83.18,6.6-5.33-1-15.17-1-15.17a15.73,15.73,0,0,0-9.9-4.48c-5.89-.24-26.87,0-26.87,0s-8.95.47-9.19,4.71-.57,8.49,3.37,8.72,15.72,1.89,15.72,1.89l1.65,2.12-5.36,12.28,7.45,3.19Z"/><polygon class="cls-1" points="215.25 267.8 291.13 267.8 290.02 274.58 208.54 274.58 215.25 267.8"/><circle class="cls-2" cx="248.43" cy="96.72" r="76.86" transform="translate(4.38 203.99) rotate(-45)"/><path class="cls-3" d="M253.91,172.57c23.35-3,38.82-19.84,47.65-34.12,6.83-11,13-33.38,12.28-46.87a61.09,61.09,0,0,0-18.17-40.42C278,33.25,264.16,19.77,242.57,19.34"/><path class="cls-4" d="M294.77,35.39s-22,12.53-50.08,13.12A192.23,192.23,0,0,1,193,42.24"/><path class="cls-4" d="M306,45.84S281.78,61.75,246.12,63.3s-61.68-9.18-61.68-9.18"/><path class="cls-4" d="M316.43,131.48s-31,26.94-68.66,28.32S183.6,138,183.6,138"/><path class="cls-5" d="M225.57,99.27c3-1.69-18.28,20.14-47.16,20.14"/><path class="cls-3" d="M235.41,171.53c23.36-2.95,38.87-19,47.73-32.61,6.85-10.54,13.06-31.82,12.39-44.67-.78-15.07-7.31-28.09-18.06-38.44-17.66-17-31.43-29.81-53-30.18"/><ellipse class="cls-6" cx="186.91" cy="87.75" rx="10.89" ry="9.24" transform="translate(62.82 252.79) rotate(-78.21)"/><ellipse class="cls-7" cx="185.39" cy="91.67" rx="6.29" ry="6.66"/><polygon class="cls-1" points="229.33 187.97 236.77 191.16 296.76 261.81 291.16 265.8 233.29 196.35 208.54 257.82 202.15 256.22 227.3 195.15 146.21 191.96 193.37 258.22 188.75 261.81 137.87 194.26 140.92 186.55 229.33 187.97"/><circle class="cls-8" cx="109.41" cy="272.42" r="52.22"/><circle class="cls-8" cx="300.65" cy="270.14" r="52.22"/><circle class="cls-7" cx="201.15" cy="270.14" r="16.16"/><circle class="cls-7" cx="300.7" cy="272.5" r="10.68"/><circle class="cls-7" cx="110.55" cy="270.59" r="10.68"/><path class="cls-1" d="M112,259.81l29-73.26L146.67,172s-22.35-2.79-21.95-15.17,14-17,14-17h8l3.59-3.8,8.48,1.23,19.47.76s3.19,4.79,2,7.19-5.59,2.39-5.59,2.39l-34.87-1.09s-9.35,5-8.76,9.74c.83,6.68,13.7,8.56,18.16,8.56a58.48,58.48,0,0,1,7.11.36l-10,20.35-29.87,76.24Z"/><line class="cls-1" x1="233.77" y1="183.1" x2="236.78" y2="184.84"/><path class="cls-9" d="M210.25,245l-9.87-36s-4-7.13,1.61-10.86,28.79-26.57,28.79-26.57l19.05,2-32.51,25.38s-5.5,3.81-3.38,9.3,15.48,39.21,15.48,39.21l-17.91,3Z"/><path class="cls-9" d="M233.22,252.54s7.85,19.68,6.23,26.39-3,13.08-3,13.08-21.09,5-32.65,5.3-28.27,0-28.27,0-11.67-3.45-12.47-4.24-1.59-19.36,5.84-23.6,20.68,1.06,24.39-.8,12.47-12.73,12.47-12.73l13.05-5.49Z"/><path class="cls-9" d="M215.82,245.07s-12.85,1.33-12,5a28,28,0,0,0,1.92,5.83l14.24-3.4h10.15s4.77,1.28,3.45-2S220.51,244.32,215.82,245.07Z"/><path class="cls-4" d="M236.45,286.17s-25.14,4.25-38.66,3.72-33.48-3.72-33.48-3.72"/><path class="cls-10" d="M194.06,172l31.79,4.33,24-35.66s-6.82-9.93-13.05-6L222,161.14l-12.19.16-7.63-6.91L189.5,165.08Z"/><path class="cls-9" d="M183.7,165.37l-13.83-3c-5.74-3.51-6.89-11.06-6.46-16.48,1.88-1.73,11.32,4.79,10.87.25-.47-2.45-1.66-6.06-2.81-6.38s-4.69-1.59-5.63-.23-4.37-5.35.86-6.89,11.45-3.24,13.64-1.36.11-3.34,3.93-4.42c11.23-4.51,23.07,10.45,23,20.67C206.49,154.62,188.66,161.44,183.7,165.37Z"/><path class="cls-9" d="M209.76,161.3s3.63-4.5,2.39-6.7-1.68-4.48-3.81-4.65-8-.67-10.17.73c-5.64,3.86-13.48,9.77-13.18,16.5,2.06,4,4.91,6.56,9.07,4.84l-1.92-3.71a9.73,9.73,0,0,1,3.48-6.86C202.8,156.45,205.78,155.37,209.76,161.3Z"/><path class="cls-1" d="M174.4,61.33s8.91-29,37.3-39.8,48.43-9.87,65.6-6.05S320.58,34.81,327.78,51c6.25,14.05,7.23,25,6,34.07a125.12,125.12,0,0,1-4.93,20.53c-1.67,5-25.36,4.23-25.36,4.23l-20.93-2.48.71-9s1.45-9.16-7-13.72-13.7-5.88-17-2.37-8.54,10.7-8.54,10.7L228,90.55,225,83Z"/><path class="cls-11" d="M184.44,54.12c.81-.25,46.59,19.11,46.59,19.11l22.71,2.7"/><path class="cls-12" d="M230.66,91.74s4.51,31.11-19.31,58l.8,4.88,10,2.46,13.09-19.65s8.8-23.71,13.14-43.84Z"/></g></svg>