<svg xmlns="http://www.w3.org/2000/svg" viewBox="0 0 420.04 622.44"><defs><style>.cls-1,.cls-10,.cls-9{fill:#4cb05d;}.cls-1,.cls-10,.cls-2,.cls-3,.cls-4,.cls-5,.cls-7,.cls-8,.cls-9{stroke:#1d1d1b;}.cls-1{stroke-width:5px;}.cls-2,.cls-4,.cls-5,.cls-7{fill:none;}.cls-10,.cls-2,.cls-4,.cls-7{stroke-linecap:round;}.cls-10,.cls-2,.cls-3,.cls-4,.cls-5,.cls-7,.cls-8,.cls-9{stroke-miterlimit:10;}.cls-2{stroke-width:4px;}.cls-3{fill:#fff;}.cls-3,.cls-7{stroke-width:2px;}.cls-10,.cls-4,.cls-5,.cls-8,.cls-9{stroke-width:3px;}.cls-6{fill:#1d1d1b;}.cls-11,.cls-8{fill:#926c3c;}</style></defs><g id="gevegan"><circle class="cls-1" cx="204.52" cy="408.26" r="96.8"/><path class="cls-2" d="M145.73,410.53s16.73,33.12,57.27,36.05,60.32-20.36,60.32-20.36"/><ellipse class="cls-3" cx="187.21" cy="405.65" rx="13.72" ry="11.63" transform="translate(-254.62 471.85) rotate(-73.75)"/><ellipse class="cls-3" cx="216.66" cy="409.94" rx="13.72" ry="11.63" transform="translate(-228.9 538.27) rotate(-78.21)"/><path class="cls-4" d="M191.71,503.19c-29.11-5.65-47.25-28-57.23-46.61-7.72-14.41-13.71-43-11.78-59.88,2.27-19.83,11.59-36.53,26-49.39,23.66-21.13,42.06-37,69.23-35.86"/><path class="cls-4" d="M207.47,505c29.75-1.44,48.89-25.53,53.38-29.94,11.81-11.59,22-41.45,23.9-58.36,2.27-19.83-2.31-39.59-12.44-55.25-16.66-25.75-30.37-42.11-54.39-50"/><path class="cls-5" d="M116.33,446.65s36.92,36.3,84.1,41,82.37-22.4,82.37-22.4"/><ellipse class="cls-6" cx="184.76" cy="410.25" rx="7.92" ry="8.39"/><ellipse class="cls-6" cx="214.74" cy="414.87" rx="7.92" ry="8.39"/><path class="cls-7" d="M180.45,385.23s11.83-10.86,19.91,3"/><path class="cls-7" d="M212.11,389.55s13.17-9.19,19.34,5.64"/><path class="cls-5" d="M151.05,327.56S177.75,345,213,348a242.23,242.23,0,0,0,65.45-3.85"/><path class="cls-5" d="M136.07,339.81s29.25,21.9,74,26.63,78.26-6.73,78.26-6.73"/><polygon class="cls-8" points="84.25 186.95 80.66 329.02 335.09 347.96 344.63 206.07 84.25 186.95"/><path class="cls-9" d="M278.69,507.89s-3.23,7.37.15,9.34,12.71.91,16.52-2.77,9.28-9.09,9.36-14-3.21-7.64-4.66-7.43l-5.8.84Z"/><path class="cls-10" d="M303.33,522.08s8.68-10.11,11.54-12c5.85-3.91,9.16-5.55,12.67-6.67s11.38,2.17,13.73,3.11,7.27,9.31,7.27,9.31a40,40,0,0,1-.14,5.42c-.28,2.29-8,12.22-15.15,19S314.07,552,309.09,553.1s-10.78-5.64-10.78-5.64-8.36-11-10.18-13-6.41-16.34-6.41-16.34L292,516.56l11.22-11.36.87-8.28,12.49,12"/><path class="cls-10" d="M296.85,545.59s12,0,18.41-3.31,15.63-9.22,20.43-14.58,8.94-17.81,8.94-17.81"/><path class="cls-9" d="M252.83,484.27S267,494.16,271.24,499s8.51,10.88,8.51,10.88,5.56,2.86,11.67-3,5.53-9.54,5.53-9.54-11.74-16.2-18-20.33-17.94-13.36-17.94-13.36Z"/><path class="cls-9" d="M154.93,491.41s-6.33,10.08-9.2,20.17-6.09,26.13-6.09,26.13l20.18,3.49s.45-15.87,3.66-20.91,9.16-20.61,9.16-20.61l-17.71-8.27"/><path class="cls-9" d="M139.64,537.71l-1.9,2.75-2.23,3.21s-9.17-10.42-17-10.94-14.34-3.73-19.32,3.15-7.14,8.25-6.29,11,5.44,18.8,18.73,22.93,27.05,10.08,37.6,5.27,13.76-7.56,15.59-12.15-3.21-16-3.21-16,.68-1.68,1.22-3.21c.46-1.27.82-2.43.61-2.38C163,541.38,139.64,537.71,139.64,537.71Z"/><path class="cls-9" d="M96.67,539.29c.51-.66,14.69-.66,19.66,6.22s15.52,15.13,26.06,15.59,22.53-4,22.53-4"/><path class="cls-9" d="M135.51,543.67s7.34,11,26.14,3.21"/><path class="cls-9" d="M92.94,546.88s7.42-2.29,23.39,9.17,19.8,14.32,32.25,13.3,16.28-6.42,16.28-6.42"/><path class="cls-9" d="M161.65,543.67c-4.86.11-9,1.94-13.07,0s-10.84-3.21-10.84-3.21"/><path class="cls-9" d="M116.28,376.6s-2,6.07-7.8,4-15.15-10-15.15-10l-8-5.48,13.51-11.76,3.8-.1,13.23,9.45,1.65,4.16S121,372.24,116.28,376.6Z"/><path class="cls-9" d="M102.68,353.23s-11.15,12.68-14.44,13.83-7,2.58-7.56.2,8.66-7.33,10.92-9.75,7-7.89,7-7.89,6.05-1.06,4.08,3.61"/><path class="cls-10" d="M89.19,360.85s-5.94,4.25-9.71,4.19-11.45-2.15-15-3.52-19.17-6-19.67-6.18-6.76-1.79-5.87-5.25,8.3-1.85,9-1.55,9.26,3.68,10.18,1.2-16.29-9.54-16.29-9.54-5.51-2.31-3.38-6,13.38.78,13.38.78,8,7,9.78,4.65-11-12-13-15-4.88-6.58-3-8.43,7.18-.85,12,3.93,9.16,12,11.75,11-9.94-16.74-9.94-16.74-4.78-7.4-1.9-9.77,11.4,4.11,13.8,8.14,14,22.36,14,22.36,1-4.61-.06-8-1.72-9.28,1.66-11.34,7.93-3.32,7.86.12-3.06,7.77-1.64,11.82,5.84,10.65,5.62,14.42.24,9-2.31,11.67S89.19,360.85,89.19,360.85Z"/><path class="cls-10" d="M81.76,351.17s-1-7.34,4.44-15.5"/><path class="cls-9" d="M299.33,399.08s2.05,6.07,7.81,4,15.15-10,15.15-10l7.95-5.49-13.51-11.75-3.79-.11-13.23,9.46-1.66,4.16S294.64,394.71,299.33,399.08Z"/><path class="cls-9" d="M312.94,375.7s11.15,12.68,14.44,13.84,7.05,2.58,7.56.2S326.28,382.4,324,380s-7-7.89-7-7.89-6-1-4.08,3.61"/><path class="cls-10" d="M326.43,383.33s5.94,4.25,9.7,4.19,11.46-2.15,15-3.53,19.17-6,19.66-6.18,6.76-1.78,5.87-5.24-8.29-1.86-9-1.55-9.26,3.68-10.17,1.2,16.29-9.54,16.29-9.54,5.51-2.31,3.37-6-13.38.79-13.38.79-8,7-9.77,4.65,11-12,13-15,4.88-6.58,3-8.43-7.18-.85-12.05,3.93-9.16,12-11.75,11,9.94-16.75,9.94-16.75,4.78-7.4,1.9-9.76-11.4,4.11-13.8,8.13-14,22.37-14,22.37-1-4.61,0-8,1.72-9.29-1.66-11.34-7.93-3.32-7.86.12,3.07,7.77,1.65,11.82-5.85,10.64-5.62,14.41-.24,9,2.3,11.68S326.43,383.33,326.43,383.33Z"/><path class="cls-10" d="M333.86,373.65s.94-7.34-4.45-15.5"/><path class="cls-11" d="M122.49,245a25.71,25.71,0,0,0-3.17-12.69,25.39,25.39,0,0,0-3.76-5.15c-1.66-1.75-3.75-3.44-6.31-2.62-2.26.72-3.89,3.1-5,5.05a27,27,0,0,0-2.63,6.39,56.74,56.74,0,0,0-2,14.08A61.38,61.38,0,0,0,101,264.46c.91,4.21,2.12,8.79,4.49,12.44,2.2,3.37,5.79,6.09,10,5.05s6.65-5.4,8-9.24c1.57-4.52,1.89-10.43-1.87-14-3.17-3-8.4-3.83-11.7-.59-2.31,2.25,1.23,5.78,3.53,3.53a2.36,2.36,0,0,1,2.23-.61,4.91,4.91,0,0,1,2.62,1.43c2.1,2.24,1.33,6.07.43,8.72-.71,2.1-2.07,5.49-4.57,6-2.31.44-4.07-2.11-5.08-4a38.07,38.07,0,0,1-3.22-9.8,56.2,56.2,0,0,1-.37-22.26,26.62,26.62,0,0,1,3.43-9.65,11.51,11.51,0,0,1,1.7-2.05c.2-.2-.09,0,0,0,.36.34.75.66,1.11,1a20,20,0,0,1,3.16,4.25A20.54,20.54,0,0,1,117.49,245c0,3.22,5,3.22,5,0Z"/><path class="cls-6" d="M133.63,255.9a37,37,0,0,0-8.48-28.45,2.51,2.51,0,0,0-3-.39c-5.21,3.66-7,9.76-7.79,15.78a154.21,154.21,0,0,0-1.71,20.91c0,6.89.84,13.92,3.47,20.34,1.25,3.06,2.8,6.34,5.89,7.94a5.78,5.78,0,0,0,4.42.49c1.94-.63,3.07-2.27,3.91-4,1.76-3.68,3.12-7.8,2.15-11.9a10.05,10.05,0,0,0-6.73-7.45c-3.09-.92-4.41,3.9-1.33,4.82a5.18,5.18,0,0,1,3.31,4.31c.44,2.61-.6,5.37-1.72,7.69a6.25,6.25,0,0,1-.84,1.57c-.11.12-.49.28-.31.26-.79.06-1.75-1.13-2.15-1.64-1.59-2.06-2.47-4.94-3.19-7.4-3.2-11-1.79-22.83-.42-34,.57-4.62,1.45-10.5,5.57-13.39l-3-.39a32.2,32.2,0,0,1,7,24.91,2.52,2.52,0,0,0,2.5,2.5,2.57,2.57,0,0,0,2.5-2.5Z"/><path class="cls-6" d="M139.39,258.47c-5.22,8-8.68,19.15-2.26,27.6,2.78,3.65,8.25,6.58,12.51,3.47,4-2.92,3.85-9,3.2-13.35a26.54,26.54,0,0,0-7.27-14.51c-2.25-2.31-5.79,1.23-3.54,3.53a21.57,21.57,0,0,1,5.37,9.37,20.38,20.38,0,0,1,.76,5.26,10.53,10.53,0,0,1-.67,4.69c-1.41,2.88-5,.38-6.27-1.29a14,14,0,0,1-2.53-9.86c.39-4.49,2.61-8.67,5-12.39,1.75-2.7-2.57-5.21-4.32-2.52Z"/><path class="cls-6" d="M167.43,232l20.38,58.22a2.52,2.52,0,0,0,4.92-.66A223.09,223.09,0,0,1,206.3,233a2.5,2.5,0,1,0-4.82-1.33,228,228,0,0,0-13.75,57.86l4.91-.67-20.38-58.22a2.58,2.58,0,0,0-3.08-1.75,2.54,2.54,0,0,0-1.75,3.08Z"/><path class="cls-6" d="M206.79,269.38a15.16,15.16,0,0,0,9.93.24c2.87-1,5.77-3.18,5.46-6.54s-3.51-5.14-6.51-5.51a11.65,11.65,0,0,0-7.94,2.08c-5.24,3.65-7,10-6.44,16.13.47,5.59,2.2,12.34,8.1,14.42a10.75,10.75,0,0,0,13.42-6.62c1-3.07-3.83-4.38-4.82-1.33-.77,2.36-3.65,3.81-6.23,3.42a5.1,5.1,0,0,1-3.13-2,13.19,13.19,0,0,1-2-5.25c-.76-3.9-.84-8.4,1.28-11.9,1.57-2.6,5.35-5.08,8.46-3.64.11.05.87.49.89.61.08.62-1.51,1.21-1.9,1.35a10.75,10.75,0,0,1-7.27-.24A2.52,2.52,0,0,0,205,266.3a2.57,2.57,0,0,0,1.75,3.08Z"/><path class="cls-6" d="M241.62,255.34a9.64,9.64,0,0,0-9.14-1.81,8.85,8.85,0,0,0-6.12,6.84,9.82,9.82,0,0,0,2.77,8.77,7.44,7.44,0,0,0,10.18.26c3.48-3,3.4-8.06,2-12.09a2.5,2.5,0,0,0-4.82,1.33q1.49,9.41,2.4,18.9.45,4.66.76,9.33c.19,3,.6,6.14,0,9.09-1.54,7.9-12,11.53-17.57,5.5-2.8-3-3.88-7.83-2.19-11.53a2.57,2.57,0,0,0-.89-3.42,2.52,2.52,0,0,0-3.42.9c-4.53,9.83,2.7,22.74,14.07,22.11a16.53,16.53,0,0,0,13.06-7.66,17.29,17.29,0,0,0,2.19-8.86c.05-3.67-.34-7.39-.64-11q-1-12.37-3-24.65l-4.82,1.33c.78,2.2,1.57,5.43-.58,7.16-1.8,1.43-3.82-.29-4.42-2.06a4.21,4.21,0,0,1,1.36-4.89,4.62,4.62,0,0,1,5.27,0,2.56,2.56,0,0,0,3.54,0,2.51,2.51,0,0,0,0-3.53Z"/><path class="cls-6" d="M260.43,256.62c-4-2-8.43-.2-10.81,3.34s-2.75,8.44-2,12.39,4.09,7.63,8.41,7.74c4.11.1,6.82-3.38,7.35-7.15a18.77,18.77,0,0,0-.45-6.67c-.48-2.26-1-4.51-.23-6.76l-4.91-.67a35.55,35.55,0,0,0,8,24.88,2.5,2.5,0,0,0,3.53,0,2.54,2.54,0,0,0,0-3.53,30.53,30.53,0,0,1-6.52-21.35,2.48,2.48,0,0,0-2.17-2.45,2.54,2.54,0,0,0-2.75,1.79,13.43,13.43,0,0,0-.26,6.95,44.83,44.83,0,0,1,.93,5.28,6.06,6.06,0,0,1-.87,3.94,2.18,2.18,0,0,1-2.53.54c-3.22-1.26-3.12-5.87-2.6-8.68a7.54,7.54,0,0,1,2.11-4.55,3.11,3.11,0,0,1,3.22-.72,2.55,2.55,0,0,0,3.42-.9,2.52,2.52,0,0,0-.89-3.42Z"/><path class="cls-6" d="M268.37,264.82q2.56,10.4,5.83,20.58l4.82-1.32a44.3,44.3,0,0,1-2.67-11.1c-.3-3.15-.74-7.2,1.13-10,1.2-1.78,3.84-2.85,5.29-.9,1.72,2.31,1.59,6,1.85,8.75l1.4,14.07a2.57,2.57,0,0,0,2.5,2.5,2.52,2.52,0,0,0,2.5-2.5l-1.47-14.8c-.39-3.91-.51-8.26-3.13-11.44-2.89-3.49-7.83-3.23-11.16-.56s-4.19,7.34-4.11,11.47a47.87,47.87,0,0,0,3.05,15.8,2.56,2.56,0,0,0,3.07,1.75,2.52,2.52,0,0,0,1.75-3.07q-3.25-10.2-5.83-20.59c-.77-3.12-5.59-1.8-4.82,1.33Z"/><path class="cls-6" d="M296.43,236.88l3.13,39.9a2.56,2.56,0,0,0,2.5,2.5,2.52,2.52,0,0,0,2.5-2.5l-3.13-39.9a2.57,2.57,0,0,0-2.5-2.5,2.52,2.52,0,0,0-2.5,2.5Z"/><path class="cls-6" d="M297.85,298.18a7,7,0,0,0-.43,1.1,8.81,8.81,0,0,0-.17,1.13,5.72,5.72,0,0,0,.17,1.75,4.72,4.72,0,0,0,.18.53,6.64,6.64,0,0,0,.48,1.05,7.51,7.51,0,0,0,.69.91,2.72,2.72,0,0,0,.43.4l.5.39a2,2,0,0,0,.93.3,1.51,1.51,0,0,0,.67,0,2,2,0,0,0,.93-.3,6,6,0,0,0,.65-.37,9.14,9.14,0,0,0,1-.82,5.37,5.37,0,0,0,.51-.56,9.18,9.18,0,0,0,.77-1.08,10.67,10.67,0,0,0,.53-1.2c0-.12.08-.24.11-.36a2.94,2.94,0,0,0,.12-.77,2.46,2.46,0,0,0-.22-1,1.21,1.21,0,0,0-.17-.36,4.46,4.46,0,0,0-.58-.72,6.53,6.53,0,0,0-.72-.58,4.23,4.23,0,0,0-1.16-.54,2.66,2.66,0,0,0-.38-.1,6.53,6.53,0,0,0-1-.11,6.4,6.4,0,0,0-1,.12,1.85,1.85,0,0,0-.4.12,1.78,1.78,0,0,0-.85.44,1.85,1.85,0,0,0-.65.71,2.52,2.52,0,0,0-.25,1.92,2.55,2.55,0,0,0,1.15,1.5l.6.25a2.47,2.47,0,0,0,1.32,0,2.42,2.42,0,0,1,.46-.13l-.66.09a2.18,2.18,0,0,1,.57,0l-.66-.09a2.17,2.17,0,0,1,.5.13l-.59-.25a2.5,2.5,0,0,1,.5.29l-.51-.39a2.13,2.13,0,0,1,.33.34l-.39-.51.06.09-.25-1.93a5.67,5.67,0,0,1-.22.66l.25-.6a4.93,4.93,0,0,1-.58,1l.39-.51a4.94,4.94,0,0,1-.85.86l.5-.39a5,5,0,0,1-.84.5l3,.39a2.84,2.84,0,0,1-.52-.52l.39.51a3,3,0,0,1-.43-.74l.25.6a3.31,3.31,0,0,1-.24-.87l.09.67a3.46,3.46,0,0,1,0-.85l-.09.66a3.52,3.52,0,0,1,.21-.77l-.26.6s0-.07.05-.1a1.82,1.82,0,0,0,.29-.93,1.85,1.85,0,0,0,0-1,2.58,2.58,0,0,0-1.15-1.5,2.5,2.5,0,0,0-1.93-.25,2.44,2.44,0,0,0-1.49,1.15Z"/></g></svg>