<svg width="282" height="228" viewBox="0 0 282 228" fill="none" xmlns="http://www.w3.org/2000/svg">
<g clip-path="url(#clip0)">
<path d="M137.307 149.032C173.199 149.032 202.296 119.875 202.296 83.9084C202.296 47.9416 173.199 18.7848 137.307 18.7848C101.416 18.7848 72.3194 47.9416 72.3194 83.9084C72.3194 119.875 101.416 149.032 137.307 149.032Z" fill="#00904E" stroke="#2C232E" stroke-width="5"/>
<path d="M128.707 147.773C109.164 143.978 96.9853 128.956 90.2784 116.415C85.0955 106.721 81.074 87.5065 82.3697 76.1301C83.8937 62.7959 90.1508 51.554 99.8185 42.9022C115.703 28.6867 128.056 18.0099 146.304 18.7769" stroke="#2C232E" stroke-width="3" stroke-miterlimit="10" stroke-linecap="round"/>
<path d="M139.288 149.004C159.261 148.035 172.111 131.828 175.125 128.861C183.054 121.064 189.875 100.975 191.178 89.5988C192.702 76.2646 189.627 62.9708 182.819 52.4286C171.641 35.1049 162.437 24.0984 146.31 18.7769" stroke="#2C232E" stroke-width="3" stroke-miterlimit="10" stroke-linecap="round"/>
<path d="M101.41 29.6151C101.41 29.6151 119.328 41.3683 142.987 43.3395C166.639 45.3107 186.928 40.7494 186.928 40.7494" stroke="#2C232E" stroke-width="3" stroke-miterlimit="10"/>
<path d="M91.3526 37.8565C91.3526 37.8565 110.99 52.5833 141.007 55.7722C171.017 58.9544 193.548 51.2445 193.548 51.2445" stroke="#2C232E" stroke-width="3" stroke-miterlimit="10"/>
<path d="M78.0998 109.735C78.0998 109.735 102.88 134.149 134.555 137.298C166.23 140.44 189.862 122.228 189.862 122.228" stroke="#2C232E" stroke-width="3" stroke-miterlimit="10"/>
<path d="M97.838 85.4344C97.838 85.4344 109.077 107.716 136.287 109.688C163.497 111.659 176.784 95.9901 176.784 95.9901" stroke="#2C232E" stroke-width="4" stroke-miterlimit="10" stroke-linecap="round"/>
<path d="M133.182 84.3471C134.606 79.4532 132.405 74.5055 128.265 73.296C124.125 72.0865 119.615 75.0732 118.191 79.9671C116.767 84.8609 118.969 89.8087 123.109 91.0182C127.248 92.2277 131.759 89.241 133.182 84.3471Z" fill="white" stroke="#2C232E" stroke-width="2" stroke-miterlimit="10"/>
<path d="M153.096 86.6377C154.135 81.6475 151.556 76.8864 147.334 76.0036C143.113 75.1208 138.849 78.4505 137.809 83.4407C136.77 88.4309 139.349 93.1919 143.571 94.0748C147.792 94.9576 152.056 91.6279 153.096 86.6377Z" fill="white" stroke="#2C232E" stroke-width="2" stroke-miterlimit="10"/>
<path d="M124.041 90.8905C126.978 90.8905 129.359 88.3634 129.359 85.246C129.359 82.1287 126.978 79.6015 124.041 79.6015C121.105 79.6015 118.724 82.1287 118.724 85.246C118.724 88.3634 121.105 90.8905 124.041 90.8905Z" fill="#2C232E"/>
<path d="M144.169 93.9987C147.105 93.9987 149.486 91.4716 149.486 88.3542C149.486 85.2368 147.105 82.7097 144.169 82.7097C141.232 82.7097 138.852 85.2368 138.852 88.3542C138.852 91.4716 141.232 93.9987 144.169 93.9987Z" fill="#2C232E"/>
<path d="M121.148 68.4135C121.148 68.4135 129.097 61.1072 134.521 70.4519" stroke="#2C232E" stroke-width="2" stroke-miterlimit="10" stroke-linecap="round"/>
<path d="M142.403 71.3198C142.403 71.3198 151.245 65.1304 155.387 75.1142" stroke="#2C232E" stroke-width="2" stroke-miterlimit="10" stroke-linecap="round"/>
<path d="M214.588 60.9929C214.588 60.9929 211.809 61.4773 211.446 63.4148C211.084 65.3524 211.205 70.351 211.93 72.2684C212.655 74.1858 214.226 76.9643 215.313 77.6909C216.401 78.4175 218.348 79.4064 220.275 78.7875" fill="#00904E"/>
<path d="M214.588 60.9929C214.588 60.9929 211.809 61.4773 211.446 63.4148C211.084 65.3524 211.205 70.351 211.93 72.2684C212.655 74.1858 214.226 76.9643 215.313 77.6909C216.401 78.4175 218.348 79.4064 220.275 78.7875" stroke="#2C232E" stroke-width="3" stroke-miterlimit="10"/>
<path d="M240.422 76.7288C240.422 76.7288 242.846 76.0023 243.813 75.1142C244.78 74.2262 245.384 71.2794 245.384 71.2794C245.384 71.2794 257.099 73.7014 258.066 73.9436C259.033 74.1858 265.189 74.428 266.639 73.9436C268.089 73.4592 269.419 71.5216 268.573 69.4226C267.733 67.3236 260.839 64.868 259.274 64.8142C257.71 64.7603 249.492 63.2937 248.284 63.1726C247.076 63.0515 245.505 62.3249 245.505 61.5984C245.505 60.8718 251.057 60.1452 251.668 60.0241C252.272 59.903 261.933 59.5397 263.86 59.2975C265.786 59.0553 268.452 57.481 268.566 55.4224C268.68 53.3637 265.061 52.6371 262.893 51.7894C260.724 50.9418 253.232 51.184 250.453 51.3051C247.673 51.4261 234.756 54.0903 234.756 54.0903L224.41 53.3503L220.275 65.7022L225.001 75.3228L240.422 76.7288Z" fill="#00904E" stroke="#2C232E" stroke-width="3" stroke-miterlimit="10"/>
<path d="M72.3194 78.1887L61.6514 79.9783L60.4027 93.4067L72.8364 92.1621L72.3194 78.1887Z" fill="#2C232E"/>
<path d="M57.3681 77.8322C57.3681 77.8322 62.1885 80.2676 62.3698 83.2546C62.5511 86.2417 61.8327 90.7223 61.121 91.9737C60.4094 93.225 57.3681 94.658 57.3681 94.658C57.3681 94.658 52.5477 99.6701 51.4735 100.208C50.3993 100.747 44.5048 102.893 44.5048 102.893C44.5048 102.893 39.6844 105.22 37.7173 105.039C35.7502 104.857 31.1043 103.249 30.9298 100.921C30.9298 100.921 27.0023 98.2371 26.6397 95.7277C26.2839 93.2183 26.6397 91.4355 26.6397 91.4355C26.6397 91.4355 24.3168 88.9261 24.1356 87.3114C23.9543 85.6968 24.1356 83.2479 24.1356 83.2479C24.1356 83.2479 21.4568 79.9716 21.9939 77.8254C22.531 75.6793 24.8539 72.2549 27.8885 72.2684C30.9231 72.2818 34.676 72.995 35.7502 73.3515C36.8244 73.7081 40.0402 72.1204 38.7847 69.4226C37.536 66.7248 34.4947 62.9708 34.4947 60.643C34.4947 58.3153 36.2805 50.7937 39.1406 50.9754C42.0006 51.157 42.5377 52.6169 43.068 56.5392C43.6051 60.4614 46.2839 66.0117 48.7881 68.0703C51.2923 70.1357 56.1194 75.3228 57.3681 77.8322Z" fill="#00904E" stroke="#2C232E" stroke-width="3" stroke-miterlimit="10"/>
<path d="M57.3681 77.8322V94.658" stroke="#2C232E" stroke-width="3" stroke-miterlimit="10"/>
<path d="M42.1617 79.4401C42.1617 79.4401 44.1489 89.5719 51.2923 88.3542" stroke="#2C232E" stroke-width="3" stroke-miterlimit="10" stroke-linecap="round"/>
<path d="M35.7502 73.3516C35.7502 73.3516 39.1473 75.861 38.2544 78.182C37.3614 80.5098 34.6827 82.7501 24.4981 82.9048" stroke="#2C232E" stroke-width="3" stroke-miterlimit="10" stroke-linecap="round"/>
<path d="M37.1332 80.6376C37.1332 80.6376 40.5437 81.6938 41.0741 83.2547C41.6112 84.8155 42.2423 87.5267 40.2886 88.3542C38.3349 89.1817 34.676 90.5407 27.5327 91.0789" stroke="#2C232E" stroke-width="3" stroke-miterlimit="10" stroke-linecap="round"/>
<path d="M41.4433 88.3542C41.4433 88.3542 43.6588 89.4912 43.9341 91.0789C44.3436 93.4336 43.2023 94.4831 41.4433 95.5528C39.6844 96.6292 30.9298 100.921 30.9298 100.921" stroke="#2C232E" stroke-width="3" stroke-miterlimit="10" stroke-linecap="round"/>
<path d="M42.9808 94.4158C42.9808 94.4158 44.4376 93.2116 46.116 94.658C46.9485 95.3711 47.3849 96.9925 46.6128 99.3136C46.0758 100.921 42.1684 103.915 42.1684 103.915" stroke="#2C232E" stroke-width="3" stroke-miterlimit="10" stroke-linecap="round"/>
<path d="M106.895 168.622C106.895 168.622 111.655 171.192 110.674 173.634C109.694 176.076 104.33 179.379 100.792 179.016C97.2539 178.646 92.1314 178.04 90.0569 175.471C87.9823 172.901 88.5933 170.088 89.4459 169.604C90.2985 169.113 92.8632 167.646 92.8632 167.646L106.895 168.622Z" fill="#00904E" stroke="#2C232E" stroke-width="3" stroke-miterlimit="10"/>
<path d="M99.7312 186.356C99.7312 186.356 90.9565 184.593 88.6537 184.768C83.9474 185.118 81.5171 185.623 79.1942 186.477C76.878 187.331 74.0717 192.343 73.2123 193.81C72.3597 195.277 73.2123 201.755 73.2123 201.755C73.2123 201.755 74.4342 203.464 75.5285 204.568C76.6228 205.671 84.8001 207.75 91.3929 208.355C97.9857 208.961 106.398 206.646 109.5 205.173C112.601 203.706 112.87 197.712 112.87 197.712C112.87 197.712 112.742 188.421 112.87 186.585C112.997 184.748 109.506 175.269 109.506 175.269L103.424 178.733L92.7893 177.361L88.9088 173.331L87.264 184.862" fill="#00904E"/>
<path d="M99.7312 186.356C99.7312 186.356 90.9565 184.593 88.6537 184.768C83.9474 185.118 81.5171 185.623 79.1942 186.477C76.878 187.331 74.0717 192.343 73.2123 193.81C72.3597 195.277 73.2123 201.755 73.2123 201.755C73.2123 201.755 74.4342 203.464 75.5285 204.568C76.6228 205.671 84.8001 207.75 91.3929 208.355C97.9857 208.961 106.398 206.646 109.5 205.173C112.601 203.706 112.87 197.712 112.87 197.712C112.87 197.712 112.742 188.421 112.87 186.585C112.997 184.748 109.506 175.269 109.506 175.269L103.424 178.733L92.7893 177.361L88.9088 173.331L87.264 184.862" stroke="#2C232E" stroke-width="3" stroke-miterlimit="10" stroke-linecap="round"/>
<path d="M112.877 196.138C112.877 196.138 106.525 201.15 101.772 202.004C97.0189 202.859 89.6943 203.592 84.9343 202.738C80.1744 201.883 72.8431 196.999 72.8431 196.999" stroke="#2C232E" stroke-width="3" stroke-miterlimit="10" stroke-linecap="round"/>
<path d="M110.809 145.391C110.809 145.391 107.385 156.519 107.136 160.798C106.888 165.076 107.136 170.088 107.136 170.088C107.136 170.088 105.377 173.91 99.7312 173.345C94.085 172.779 92.8632 170.58 92.8632 170.58C92.8632 170.58 92.3798 157.131 93.9642 152.361C95.5486 147.591 97.9252 137.85 97.9252 137.85L110.809 145.391Z" fill="#2C232E"/>
<path d="M226.424 53.0071C226.424 53.0071 221.832 62.5671 226.424 63.4148C231.017 64.2625 234.031 58.0192 234.514 56.5392C234.998 55.0658 234.877 49.8586 233.185 48.7687C231.493 47.6788 228.358 46.7101 227.149 47.1945C225.941 47.6788 220.026 49.7375 218.455 52.7649C216.884 55.7924 214.588 60.1452 214.588 62.6882C214.588 65.2313 215.072 72.2886 216.763 75.1142C218.455 77.9398 223.282 81.2027 225.458 81.8082C227.633 82.4137 232.943 83.1403 235.723 81.8082C238.502 80.4761 239.952 78.7808 240.194 77.3276C240.436 75.8744 241.04 71.7638 238.381 70.0685C235.723 68.3731 233.192 66.4355 231.258 66.9199C229.325 67.4043 226.666 68.1309 226.189 69.9474C225.713 71.7638 225.666 75.7533 228.163 75.7533C230.661 75.7533 231.627 75.1075 231.627 75.1075C231.627 75.1075 231.265 76.9643 233.198 77.4487" fill="#00904E"/>
<path d="M226.424 53.0071C226.424 53.0071 221.832 62.5671 226.424 63.4148C231.017 64.2625 234.031 58.0192 234.514 56.5392C234.998 55.0658 234.877 49.8586 233.185 48.7687C231.493 47.6788 228.358 46.7101 227.149 47.1945C225.941 47.6788 220.026 49.7375 218.455 52.7649C216.884 55.7924 214.588 60.1452 214.588 62.6882C214.588 65.2313 215.072 72.2886 216.763 75.1142C218.455 77.9398 223.282 81.2027 225.458 81.8082C227.633 82.4137 232.943 83.1403 235.723 81.8082C238.502 80.4761 239.952 78.7808 240.194 77.3276C240.436 75.8744 241.04 71.7638 238.381 70.0685C235.723 68.3731 233.192 66.4355 231.258 66.9199C229.325 67.4043 226.666 68.1309 226.189 69.9474C225.713 71.7638 225.666 75.7533 228.163 75.7533C230.661 75.7533 231.627 75.1075 231.627 75.1075C231.627 75.1075 231.265 76.9643 233.198 77.4487" stroke="#2C232E" stroke-width="3" stroke-miterlimit="10" stroke-linecap="round"/>
<path d="M232.534 60.1788C232.702 59.9501 243.571 60.9929 245.384 71.2794L232.534 60.1788Z" fill="#00904E"/>
<path d="M232.534 60.1788C232.702 59.9501 243.571 60.9929 245.384 71.2794" stroke="#2C232E" stroke-width="3" stroke-miterlimit="10"/>
<path d="M218.093 61.9616C218.093 61.9616 225.572 59.7752 227.505 68.3125" stroke="#2C232E" stroke-width="3" stroke-miterlimit="10" stroke-linecap="round"/>
<path d="M211.252 63.9598L200.691 69.4293L202.302 83.9072L214.588 77.0047L211.252 68.0704V63.9598Z" fill="#2C232E"/>
<path d="M166.633 168.622C166.633 168.622 161.873 171.192 162.853 173.634C163.833 176.076 169.197 179.379 172.735 179.016C176.274 178.646 181.396 178.04 183.471 175.471C185.545 172.901 184.934 170.088 184.081 169.604C183.229 169.113 180.664 167.646 180.664 167.646L166.633 168.622Z" fill="#00904E" stroke="#2C232E" stroke-width="3" stroke-miterlimit="10"/>
<path d="M173.796 186.356C173.796 186.356 182.571 184.593 184.874 184.768C189.58 185.118 192.01 185.623 194.333 186.477C196.649 187.331 199.456 192.343 200.315 193.81C201.174 195.277 200.315 201.755 200.315 201.755C200.315 201.755 199.093 203.464 197.999 204.568C196.905 205.671 188.727 207.75 182.135 208.355C175.542 208.961 167.13 206.646 164.028 205.173C160.926 203.706 160.658 197.712 160.658 197.712C160.658 197.712 160.785 188.421 160.658 186.585C160.53 184.748 164.021 175.269 164.021 175.269L170.104 178.733L180.738 177.361L184.619 173.331L186.263 184.862" fill="#00904E"/>
<path d="M173.796 186.356C173.796 186.356 182.571 184.593 184.874 184.768C189.58 185.118 192.01 185.623 194.333 186.477C196.649 187.331 199.456 192.343 200.315 193.81C201.174 195.277 200.315 201.755 200.315 201.755C200.315 201.755 199.093 203.464 197.999 204.568C196.905 205.671 188.727 207.75 182.135 208.355C175.542 208.961 167.13 206.646 164.028 205.173C160.926 203.706 160.658 197.712 160.658 197.712C160.658 197.712 160.785 188.421 160.658 186.585C160.53 184.748 164.021 175.269 164.021 175.269L170.104 178.733L180.738 177.361L184.619 173.331L186.263 184.862" stroke="#2C232E" stroke-width="3" stroke-miterlimit="10" stroke-linecap="round"/>
<path d="M160.651 196.138C160.651 196.138 167.002 201.15 171.755 202.004C176.508 202.859 183.833 203.592 188.593 202.738C193.353 201.883 200.684 196.999 200.684 196.999" stroke="#2C232E" stroke-width="3" stroke-miterlimit="10" stroke-linecap="round"/>
<path d="M162.719 145.391C162.719 145.391 166.143 156.519 166.391 160.798C166.639 165.076 166.391 170.088 166.391 170.088C166.391 170.088 168.15 173.91 173.796 173.345C179.442 172.779 180.664 170.58 180.664 170.58C180.664 170.58 181.148 157.131 179.563 152.361C177.979 147.591 175.602 137.85 175.602 137.85L162.719 145.391Z" fill="#2C232E"/>
</g>
<defs>
<clipPath id="clip0">
<rect width="282" height="228" fill="white"/>
</clipPath>
</defs>
</svg>
