<svg xmlns="http://www.w3.org/2000/svg" viewBox="0 0 420.04 550.29"><defs><style>.cls-1,.cls-2,.cls-3{fill:#4cb05d;}.cls-1,.cls-2,.cls-3,.cls-4,.cls-5,.cls-6,.cls-8{stroke:#1d1d1b;}.cls-1,.cls-13,.cls-14,.cls-2,.cls-4,.cls-5,.cls-6,.cls-8{stroke-miterlimit:10;}.cls-1,.cls-10,.cls-13,.cls-2,.cls-4,.cls-5,.cls-9{stroke-width:3px;}.cls-2,.cls-4,.cls-8{stroke-linecap:round;}.cls-3{stroke-width:5px;}.cls-10,.cls-13,.cls-14,.cls-18,.cls-4,.cls-5,.cls-8,.cls-9{fill:none;}.cls-11,.cls-12,.cls-15,.cls-16,.cls-17,.cls-6{fill:#fff;}.cls-14,.cls-6{stroke-width:2px;}.cls-7{fill:#1d1d1b;}.cls-8{stroke-width:4px;}.cls-10,.cls-13,.cls-14,.cls-18,.cls-9{stroke:#fff;}.cls-10{stroke-dasharray:10.19 10.19;}.cls-12{font-size:22px;}.cls-12,.cls-15,.cls-16,.cls-17{font-family:Arial-Black, Arial Black;font-weight:800;}.cls-15{font-size:19px;}.cls-16{font-size:12px;}.cls-17{font-size:8.53px;}</style></defs><g id="mathe"><g id="erde"><path class="cls-1" d="M157.94,309s7.09,3.81,5.63,7.45-9.45,8.54-14.72,8-12.9-1.46-16-5.27-2.18-8-.91-8.73L137,307.5Z"/><path class="cls-2" d="M147.27,335.31s-13.07-2.62-16.5-2.36c-7,.52-10.64,1.27-14.09,2.54s-7.63,8.73-8.9,10.91,0,11.81,0,11.81a38.77,38.77,0,0,0,3.45,4.18c1.63,1.64,13.81,4.73,23.63,5.64s22.35-2.55,27-4.73,5-11.09,5-11.09-.19-13.81,0-16.54-5-16.82-5-16.82L152.77,324l-15.84-2-5.79-6-2.45,17.14"/><path class="cls-2" d="M166.85,349.85s-9.46,7.45-16.55,8.72-18,2.37-25.08,1.1-18-8.54-18-8.54"/><path class="cls-1" d="M163.77,274.43s-5.11,16.54-5.47,22.9,0,13.81,0,13.81-2.62,5.67-11,4.84S137,311.87,137,311.87s-.72-20,1.64-27.08,5.9-21.58,5.9-21.58Z"/><path class="cls-1" d="M231.68,328.42s-7.09,3.82-5.63,7.46,9.45,8.54,14.72,8,12.9-1.45,16-5.27,2.18-8,.91-8.72L252.58,327Z"/><path class="cls-2" d="M242.35,354.78s13.07-2.62,16.5-2.36c7,.52,10.63,1.27,14.09,2.54s7.63,8.72,8.9,10.9,0,11.82,0,11.82a41.32,41.32,0,0,1-3.45,4.18c-1.64,1.63-13.81,4.72-23.63,5.63s-22.35-2.54-27-4.72-5-11.09-5-11.09.19-13.81,0-16.54,5-16.82,5-16.82l9.06,5.15,15.84-2,5.78-6,2.46,17.15"/><path class="cls-2" d="M222.77,369.32s9.46,7.45,16.54,8.72,18,2.36,25.08,1.09,18-8.53,18-8.53"/><path class="cls-1" d="M225.85,293.89s5.1,16.54,5.47,22.9,0,13.82,0,13.82,2.62,5.67,11,4.83,10.24-4.11,10.24-4.11.72-20-1.64-27.08-5.9-21.57-5.9-21.57Z"/><circle class="cls-3" cx="199.73" cy="201.56" r="96.8" transform="translate(-84.02 200.27) rotate(-45)"/><path class="cls-4" d="M192.83,297.1c-29.41-3.83-48.9-25-60-43-8.6-13.91-16.35-42-15.47-59,1-19.93,9.31-37.18,22.88-50.91,22.31-22.55,39.69-39.53,66.88-40.08"/><path class="cls-4" d="M208.67,298c29.6-3.28,47.21-28.51,51.42-33.19,11.07-12.3,19.36-42.73,20.24-59.73,1-19.93-4.76-39.36-15.84-54.37-18.22-24.67-32.91-40.15-57.38-46.56"/><path class="cls-5" d="M141.37,124.32s27.72,15.79,63.07,16.53a242.14,242.14,0,0,0,65.08-7.9"/><path class="cls-5" d="M127.17,137.48s30.56,20,75.47,22,77.69-11.57,77.69-11.57"/><path class="cls-5" d="M281.39,253.56s-33.45,29.2-80.83,27.46-86.47-35.68-86.47-35.68"/><ellipse class="cls-6" cx="179.29" cy="200.02" rx="13.72" ry="11.63" transform="translate(-55.26 330.95) rotate(-77.3)"/><ellipse class="cls-6" cx="221.39" cy="203.27" rx="13.72" ry="11.63" transform="translate(-11.51 393.25) rotate(-81.76)"/><ellipse class="cls-7" cx="176.43" cy="197.78" rx="7.92" ry="8.39" transform="translate(-11.9 11.3) rotate(-3.55)"/><ellipse class="cls-7" cx="217.73" cy="200.81" rx="7.92" ry="8.39" transform="translate(-12.01 13.86) rotate(-3.55)"/><path class="cls-8" d="M191.66,245.34S213,242,218.53,231.84"/><circle class="cls-4" cx="174.28" cy="198.22" r="23.07"/><circle class="cls-4" cx="225.02" cy="203.27" r="23.07"/><path class="cls-4" d="M194.81,187.71s5.38-5,12.3,1"/><path class="cls-4" d="M247,196.26l38.14-10.51s8.84,2.58,3.18,14.27"/><path class="cls-4" d="M154,187.25,120,166.1s-6.71-.77-7.77,10.58"/><path class="cls-2" d="M145.87,304.9s-17.47-2.48-19.44-7.8-4.48-13.73-3.92-17.94-.08-19.32-.08-19.32,2.11-11.13,6.25-8.43,8.69,16.94,8.69,16.94"/><path class="cls-1" d="M137.09,284s-5.63,8.33,1.72,14.95,10.79,10.47,17.9,4.13"/><path class="cls-2" d="M153.94,262.49s2.27.18,6.42-1.44a36.73,36.73,0,0,0,4.75-2.28c7.14-4,18.62-8.38,21.72-9s16.76-1.55,18.93,2.48-3.61,6.83-6.77,7.45-20.54,6.21-21.47,7.45-2.79,2.79-1.55,6.2,6.21,16.14,2.49,19.24S170.7,300,168.53,301s-11.17,4.34-16.45,0-14.58-14.28-14.89-21.41-.31-22,5.89-23.58c0,0,9.45-8.91,10.76-11s2.87-10.2,2.87-10.2,2.85-3.92,5.09,2.35-2.77,24.4-2.77,24.4"/><path class="cls-1" d="M270.37,292.15s-6.44,11.49-4.29,15.08,4.87,12.49,6.74,13.35,5.65,4.74,7.63,3.3,3.13.72,5.58,1.87,9.85,3.45,12.39,0,4.12-6,5.12-7.32,8.47-5.6,9.62-11.63S317,293,311.87,288.13s-13.45-12.35-13.45-12.35Z"/><path class="cls-1" d="M270,278.24s-5.89,5.05-3.16,8.6a40.26,40.26,0,0,0,5.72,6s11.67-.81,17.69-6.68a38,38,0,0,0,8.21-11s-2.69-9.21-9.93-6.8"/><path class="cls-1" d="M268.61,250.91s-8.08,5.49-2.63,17.44,4.91,14.33,4.91,14.33,8.45,2.48,13.63-1.59,5.69-8.7,5.69-8.7l-6.51-15.27S279.42,246.61,268.61,250.91Z"/><path class="cls-4" d="M279.42,311.68s8.93,1.58,10.86,7.46"/><path class="cls-4" d="M282.3,323.18s-3.08-4.21.54-6.5"/></g><g id="formel1"><path class="cls-9" d="M142.11,66.83l-35,76.61s-1.79,20.84,33,20.84,37.19-15.46,37.19-15.46Z"/><path class="cls-9" d="M110.68,141.72a44.35,44.35,0,0,1,5.24-2.91"/><path class="cls-10" d="M125.43,135.17a52.6,52.6,0,0,1,16.73-2.12,76.92,76.92,0,0,1,18.46,3"/><path class="cls-9" d="M165.45,137.73a42.42,42.42,0,0,1,5.46,2.46"/><polyline class="cls-9" points="140.8 69.71 142.16 149.68 177.25 148.82"/><path class="cls-11" d="M98.62,20.7h5.09L107.25,32l3.5-11.33h4.94l-5.85,15.75h-5.27Z"/><path class="cls-11" d="M117,24.19h11.73v3.49H117Zm0,5.29h11.73V33H117Z"/><path class="cls-11" d="M148.35,20.43v16h-4.43V26a12.32,12.32,0,0,1-2.08,1.32,15.94,15.94,0,0,1-2.51,1V24.65a10.51,10.51,0,0,0,3.46-1.73,7,7,0,0,0,1.94-2.49Z"/><path class="cls-11" d="M152.21,25h12.07v2.17h-1.82v9.24h-3.09V27.21h-2.23v9.24H154V27.21h-1.79Z"/><path class="cls-11" d="M176.46,29.12h-7.65a4.92,4.92,0,0,1,.8-2.13,10.71,10.71,0,0,1,2.5-2.36,7.27,7.27,0,0,0,1.44-1.26,1.47,1.47,0,0,0,.31-.82,1,1,0,0,0-.31-.72,1.09,1.09,0,0,0-.78-.3,1.07,1.07,0,0,0-.8.31,1.88,1.88,0,0,0-.42,1.08l-2.55-.2a4.09,4.09,0,0,1,.55-1.69,2.52,2.52,0,0,1,1.13-.92,5,5,0,0,1,2-.33,5.72,5.72,0,0,1,2.09.31A2.57,2.57,0,0,1,176,21a2.48,2.48,0,0,1,.43,1.43,2.89,2.89,0,0,1-.49,1.6,6.69,6.69,0,0,1-1.79,1.68c-.51.36-.86.6-1,.75s-.38.32-.61.55h4Z"/><path class="cls-11" d="M178.36,32.07H183v4.38h-4.67Z"/><path class="cls-11" d="M185.67,20.7h4.38v5.8a6,6,0,0,1,1.77-1.32,5.11,5.11,0,0,1,2.08-.4,3.65,3.65,0,0,1,2.81,1.09,4.66,4.66,0,0,1,1,3.33v7.25h-4.4V30.18a2.29,2.29,0,0,0-.39-1.52,1.43,1.43,0,0,0-1.12-.45,1.59,1.59,0,0,0-1.29.6,3.5,3.5,0,0,0-.49,2.16v5.48h-4.38Z"/><text class="cls-12" transform="translate(140.76 36.45)">_<tspan x="0" y="26.4">3</tspan></text></g><polygon class="cls-13" points="279.87 171.65 345.49 140.13 347.18 171.65 279.87 171.65"/><polyline class="cls-14" points="339.12 171.65 339.12 163.41 347.14 163.41"/><polyline class="cls-14" points="345.4 73.22 278.09 73.22 278.09 132.07"/><text class="cls-15" transform="translate(243.68 87.99)">sin</text><text class="cls-15" transform="translate(235.45 107.24)">cos</text><text class="cls-15" transform="translate(239.27 126.69)">tan</text><text class="cls-16" transform="translate(278.09 70.31)">30°</text><text class="cls-16" transform="translate(300.96 70.31)">45°</text><text class="cls-16" transform="translate(323.95 70.31)">60°</text><text class="cls-17" transform="translate(282.36 81.61)">1<tspan x="0" y="10.23">2</tspan></text><text class="cls-17" transform="translate(306.23 81.84)">1<tspan x="0" y="10.23">2</tspan></text><text class="cls-17" transform="translate(330.26 81.33)">1<tspan x="0" y="10.23">2</tspan></text><text class="cls-17" transform="translate(282.28 101.58)">2<tspan x="0" y="10.23">3</tspan></text><text class="cls-17" transform="translate(306.16 101.81)">2<tspan x="0" y="10.23">3</tspan></text><text class="cls-17" transform="translate(330.19 101.3)">1<tspan x="0" y="10.23">2</tspan></text><text class="cls-17" transform="translate(282.28 122.14)">3<tspan x="0" y="10.23">2</tspan></text><text class="cls-17" transform="translate(306.16 122.37)">3<tspan x="0" y="10.23">2</tspan></text><text class="cls-17" transform="translate(330.19 121.86)">3<tspan x="0" y="10.23">2</tspan></text><line class="cls-18" x1="281.47" y1="83.84" x2="288.81" y2="83.84"/><line class="cls-18" x1="304.41" y1="83.84" x2="311.75" y2="83.84"/><line class="cls-18" x1="328.32" y1="83.84" x2="335.65" y2="83.84"/><line class="cls-18" x1="281.47" y1="104.09" x2="288.81" y2="104.09"/><line class="cls-18" x1="304.41" y1="104.09" x2="311.75" y2="104.09"/><line class="cls-18" x1="328.32" y1="104.09" x2="335.65" y2="104.09"/><line class="cls-18" x1="281.85" y1="124.65" x2="289.19" y2="124.65"/><line class="cls-18" x1="304.79" y1="124.65" x2="312.13" y2="124.65"/><line class="cls-18" x1="328.7" y1="124.65" x2="336.03" y2="124.65"/><text class="cls-17" transform="translate(301.56 82.6)">√</text><text class="cls-17" transform="translate(300.56 102.49)">√</text><text class="cls-17" transform="translate(326.45 122.14)">√</text></g></svg>