<svg width="159" height="228" viewBox="0 0 159 228" fill="none" xmlns="http://www.w3.org/2000/svg">
<path d="M101.613 170.866C133.022 139.41 133.022 88.4108 101.613 56.9553C70.204 25.4998 19.28 25.4998 -12.129 56.9553C-43.538 88.4108 -43.538 139.41 -12.129 170.866C19.28 202.321 70.204 202.321 101.613 170.866Z" fill="#00904E" stroke="black" stroke-width="5"/>
<path d="M39.0119 193.408C14.5759 190.221 -1.61778 172.613 -10.8488 157.644C-17.9943 146.069 -24.4336 122.662 -23.6941 108.516C-22.83 91.9325 -15.967 77.5787 -4.68371 66.1622C13.8531 47.39 28.2937 33.2692 50.8851 32.8115" stroke="black" stroke-width="3" stroke-miterlimit="10" stroke-linecap="round"/>
<path d="M-3.74481 49.645C-3.74481 49.645 19.287 62.7839 48.6584 63.3997C78.0297 64.0154 102.732 56.8261 102.732 56.8261" stroke="black" stroke-width="3" stroke-miterlimit="10"/>
<path d="M-15.5432 60.5955C-15.5432 60.5955 9.83997 77.2708 47.1628 78.8934C84.4773 80.5243 111.713 69.2743 111.713 69.2743" stroke="black" stroke-width="3" stroke-miterlimit="10"/>
<path d="M-26.411 150.338C-26.411 150.338 6.06779 178.579 45.4346 180.027C84.8013 181.475 112.594 157.186 112.594 157.186" stroke="black" stroke-width="3" stroke-miterlimit="10"/>
<path d="M68.6741 116.588C68.6741 116.588 84.2613 143.232 118.028 143.573" stroke="black" stroke-width="4" stroke-miterlimit="10" stroke-linecap="round"/>
<path d="M101.344 107.193C101.344 107.193 110.6 116.821 118.02 105.704" stroke="black" stroke-width="2" stroke-miterlimit="10" stroke-linecap="round"/>
<path d="M58.363 192.318C33.927 189.222 17.6917 172.422 8.41918 158.143C1.24874 147.101 -5.24869 124.801 -4.55075 111.329C-3.72819 95.5439 3.10159 81.889 14.3516 71.0384C32.8385 53.2147 47.2376 39.7929 69.829 39.4185" stroke="black" stroke-width="3" stroke-miterlimit="10" stroke-linecap="round"/>
</svg>
