<svg xmlns="http://www.w3.org/2000/svg" viewBox="0 0 420.04 338.9"><defs><style>.cls-1{fill:#ea5b1c;stroke:#1d1d1b;stroke-miterlimit:10;stroke-width:3px;}</style></defs><g id="flugzeug"><path class="cls-1" d="M216.48,187.65l-31.1,100s14.42,4.51,31.1-14,64.44-104.27,64.44-104.27l90.58-31.82s16.22-9.46,8.56-16.22-24.79-17.13-40.56-16.67S288.58,116,288.58,116L171.41,149.35,127.25,162s-22.53,9.46-31.09-3.61a130.86,130.86,0,0,0-16.51-20.73s-9.18-8.11-16.84-3.6,0,22.08,0,22.08l13.07,40.34s12.17,13.28,31.54,11.48S216.48,187.65,216.48,187.65Z"/><path class="cls-1" d="M120.49,93.47l57.68,44.16,49.12-14.42L164.65,93.47S142.12,82.65,120.49,93.47Z"/></g></svg>