<svg xmlns="http://www.w3.org/2000/svg" viewBox="0 0 420.04 338.9"><defs><style>.cls-1{fill:#c8d761;}.cls-1,.cls-2,.cls-3{stroke:#1d1d1b;stroke-miterlimit:10;stroke-width:3px;}.cls-2{fill:#fff;}.cls-3{fill:none;}</style></defs><g id="Ebene_7" data-name="Ebene 7"><path class="cls-1" d="M196.66,246.8s.52-17.44-10.77-32.32-34.37-34.37-36.42-59.5,11.28-84.65,74.38-83.62,77.35,66.69,74.27,85.16S273.61,201.15,260.79,215,250,246.8,250,246.8Z"/><path class="cls-2" d="M196.66,246.8S198.2,273,200.25,275s6.67,7.69,20.52,7.69,22.57-1.54,24.63-6.15S250,246.8,250,246.8Z"/><line class="cls-2" x1="197.03" y1="252.24" x2="249.42" y2="252.24"/><polyline class="cls-2" points="197.15 260.39 214.22 260.39 249.53 260.39"/><line class="cls-2" x1="197.7" y1="268.54" x2="247.22" y2="268.54"/><line class="cls-2" x1="200.49" y1="275.76" x2="245.4" y2="275.76"/><path class="cls-3" d="M237.05,246.8l25.46-75-6,13.79c-18.74,1.77-9.9-33.24-4.95-32.53s-3.19,28.29-14.15,26.52-13.43-31.11-7.07-30.41,1.42,35.36-13.43,34.65-15.56-34.65-8.49-34.65-2.12,34.3-11.26,36.42c0,0-7.12-18.06-7.12-16.1s18.38,77.35,18.38,77.35"/><path class="cls-1" d="M305.86,132.82s23.07-14.71,29-3.18S305.86,132.82,305.86,132.82Z"/><path class="cls-1" d="M288.89,76.37S302.42,52.59,313.08,60,288.89,76.37,288.89,76.37Z"/><path class="cls-1" d="M223.85,54.51S211.78,30,223.91,25.3,223.85,54.51,223.85,54.51Z"/><path class="cls-1" d="M166,71.35s-26.78-5.64-23-18.06S166,71.35,166,71.35Z"/><path class="cls-1" d="M138.48,119.84s-25.45,10-29.11-2.41S138.48,119.84,138.48,119.84Z"/></g></svg>