<svg xmlns="http://www.w3.org/2000/svg" viewBox="0 0 420.04 338.9"><defs><style>.cls-1{fill:#4081c3;}.cls-1,.cls-2{stroke:#1d1d1b;stroke-width:3px;}.cls-2{fill:#fff;}</style></defs><g id="auto"><path class="cls-1" d="M65.66,135.75H90.08l18.31-40s9-23,19.31-23.47,61.91,0,61.91,0L273.17,72s13.93,3.84,23.73,21.89S317,135.75,317,135.75h24.25s6.19,4.07,6.19,9.23-7.23,9.29-7.23,9.29-10.83,1-8.77,5.15,17.54,20.64,16,43.85-1,40.24-7.74,45.91-40.24,9.8-51.59,9.8-54.68,3.1-67.57,3.62-78.93,0-78.93,0l-35.08-3.1L73,255.37s-8.25-1-10.83-11.86S58.06,209,59.61,200.18s4.13-26.9,8.25-30.73,8.77-8,6.71-10.54-7.74-2.06-11.35-3.61S50,141,65.66,135.75Z"/><path class="cls-1" d="M66.83,259v21.67s.52,7.74,9.29,7.74h25.79s7.74,0,8.77-8.77,0-12.9,0-12.9S80.24,264.14,66.83,259Z"/><path class="cls-1" d="M338.2,259v21.67s-.52,7.74-9.29,7.74c-25.55-.82-37.93,6.12-34.56-21.67C294.35,266.72,324.79,264.14,338.2,259Z"/><circle class="cls-2" cx="102.63" cy="200.25" r="18.84"/><circle class="cls-2" cx="302.96" cy="202.34" r="18.84"/><path class="cls-2" d="M102.63,135.18l24.56-46.43s5.16-7.22,12.89-6.19,121.23-.1,121.23-.1,13.93-.93,18.05,6.81S303,135.18,303,135.18s2.2,10.83-5,10.83-74.72,5.16-87.91,5.16-98.88-4.64-98.88-4.64S97.62,144.65,102.63,135.18Z"/></g></svg>