<svg xmlns="http://www.w3.org/2000/svg" viewBox="0 0 420.04 338.9"><defs><style>.cls-1{fill:none;stroke-width:6px;}.cls-1,.cls-2,.cls-3{stroke:#1d1d1b;stroke-miterlimit:10;}.cls-1,.cls-2{stroke-linecap:round;}.cls-2,.cls-3{fill:#926c3c;stroke-width:3px;}</style></defs><g id="tuete"><path class="cls-1" d="M219.77,122.66s-16-75.1,26.47-75.72,31.4,75.72,31.4,75.72"/><polygon class="cls-2" points="267.58 302.42 339.6 302.42 331.6 87.58 324.21 77.73 314.98 84.5 308.82 77.73 300.82 84.5 293.43 77.73 286.05 83.88 279.27 77.73 273.73 84.5 267.58 77.73 257.73 85.11 253.42 77.73 244.8 85.73 234.41 77.73 228.8 85.11 223.26 77.73 216.56 84.5 210.02 77.73 203.35 83.88 198.02 77.73 187.55 84.5 184.47 77.73 175.24 85.11 169.08 77.73 162.31 84.5 156.16 77.73 159.85 281.49 267.58 302.42"/><path class="cls-1" d="M156.37,198.38s-16-75.1,26.47-75.72,31.39,75.72,31.39,75.72"/><polygon class="cls-3" points="89.67 302.42 279.27 302.42 271.27 163.29 262.04 154.06 254.65 160.83 248.5 154.06 241.11 158.98 233.1 154.06 227.56 158.37 220.79 154.06 210.02 158.37 207.25 154.06 199.25 158.98 192.48 154.06 184.47 159.6 178.32 154.06 172.16 160.83 166.62 154.06 159.85 159.6 151.85 154.06 143.84 159.6 137.69 154.06 129.07 159.6 121.68 154.06 114.91 160.22 107.53 154.06 100.75 159.6 96.44 154.06 89.67 302.42"/><path class="cls-1" d="M175.24,198.38s-16-75.1,26.47-75.72,31.4,75.72,31.4,75.72"/><path class="cls-1" d="M232.08,122.66s-16-75.1,26.47-75.72,31.39,75.72,31.39,75.72"/></g></svg>