<?xml version="1.0" encoding="utf-8"?>
<!-- Generator: Adobe Illustrator 25.2.0, SVG Export Plug-In . SVG Version: 6.00 Build 0)  -->
<svg version="1.1" id="Ebene_1" xmlns="http://www.w3.org/2000/svg" xmlns:xlink="http://www.w3.org/1999/xlink" x="0px" y="0px"
	 viewBox="0 0 500 100" style="enable-background:new 0 0 500 100;" xml:space="preserve">
<style type="text/css">
	.st0{clip-path:url(#SVGID_2_);fill:#2C232E;}
</style>
<g>
	<defs>
		<rect id="SVGID_1_" x="9.84" y="11.24" width="479.18" height="79.97"/>
	</defs>
	<clipPath id="SVGID_2_">
		<use xlink:href="#SVGID_1_"  style="overflow:visible;"/>
	</clipPath>
	<path class="st0" d="M450.86,14.21c8.45,0,9.37,6.63,9.37,37.01c0,30.16-0.91,36.56-9.37,36.56V14.21z M449.61,91.21
		c13.02,0,39.41,0,39.41-39.98c0-39.99-26.39-39.99-39.41-39.99h-27.3v79.97H449.61z M415.45,11.24h-57.92v79.97h57.92V53.86
		c-17.94,37.36-25.93,33.93-28.22,33.93V50.43L407,63.22V34.55l-19.76,11.54V14.21c1.14,0,10.28-3.43,28.22,27.88V11.24z
		 M250.89,11.24c13.14,18.51,21.82,39.3,24.33,64.43h-0.69l-32.44-64.43h-26.05l-0.12,0.34v-0.34h-3.65v79.97h30.04
		c-12.22-21.36-24.22-43.64-26.16-71.97l36.56,71.86l26.96,0.11V11.24H250.89z M158.69,59.68c-1.83-10.97-1.71-23.42,1.6-37.24
		l9.94,37.24H158.69z M209.99,91.21l-22.51-79.97h-30.16l-22.51,79.97h35.07c-4.11-7.43-7.88-15.99-10.05-25.82h11.99l6.85,25.82
		H209.99z M132.53,91.21V55.8c-18.96,31.99-18.96,31.99-22.51,31.99V11.24h-29.7v79.97H132.53z M41.83,66.31
		c-2.86,0-3.43-2.63-3.43-7.08V21.75c0-4.46,1.14-7.54,3.88-7.54c3.65,0,5.48,11.54,5.48,29.93C47.77,60.02,45.71,66.31,41.83,66.31
		 M9.84,11.24v79.97H38.4V69.62c2.51,4.46,7.08,6.17,12.91,6.17c11.54,0,24.45-12.11,24.45-33.47c0-31.53-24.79-31.07-35.19-31.07
		H9.84z"/>
	<path class="st0" d="M345.56,56.88c0,0,8.26-1.69,8.26-8.86c0-10.68-8.26-11.23-8.26-11.23c-27.53,0-22.07-23.1-22.07-24.69h-0.27
		h-8h-0.26c0,7.8,3.57,24.99-22.16,24.99c0,0-8.25,1.56-8.25,9.85c0,8.79,8.25,9.19,8.25,9.19c20.87,0,21.29-26.69,21.81-27.28
		c-0.36,1.75,2.55,32.78-23.98,32.78c0,0-7.51,1.33-7.51,9.42c0,10.3,7.51,9.53,7.51,9.53c22.7,0,24.56-34.55,25.37-35.88
		c0,0-2.66,46.5-18.29,46.5h43.37c-15.92,0-18.66-46.52-18.66-46.52c0.73,1.18,1.44,36.34,23.13,36.34c0,0,8.26,0.33,8.26-9.85
		c0-8.21-8.26-9.1-8.26-9.1c-27.27,0-21.89-31.47-22.25-33.22C323.85,30.4,326.09,56.88,345.56,56.88"/>
</g>
</svg>
