<svg width="388" height="313" viewBox="0 0 388 313" fill="none" xmlns="http://www.w3.org/2000/svg">
<path d="M149.061 130.834L138.216 142.554" stroke="#65B555" stroke-width="1.768" stroke-linecap="round"/>
<path d="M181.197 233.637H187.663V228.096L181.197 229.019V233.637Z" fill="#1A3B37"/>
<path d="M236.584 80.0187L222.109 94.6297" stroke="#01914E" stroke-width="2.019" stroke-linecap="round"/>
<path d="M204.577 79.9355L190.111 94.5558" stroke="#01914E" stroke-width="2.019" stroke-linecap="round"/>
<path d="M221.961 107.975C221.961 107.975 217.426 114.163 206.064 111.032" stroke="#1A3B37" stroke-width="2.8" stroke-linecap="round"/>
<path d="M250.014 182.194C250.014 182.194 244.546 185.14 245.664 187.948C246.781 190.755 252.961 194.542 257.026 194.117C261.09 193.692 266.983 193 269.366 190.054C271.75 187.107 271.048 183.884 270.068 183.321C269.089 182.757 266.143 181.076 266.143 181.076L250.014 182.194Z" fill="#EA5B1C" stroke="black" stroke-width="3" stroke-miterlimit="10"/>
<path d="M258.254 202.531C258.254 202.531 268.341 200.508 270.992 200.712C276.405 201.118 279.195 201.691 281.864 202.679C284.534 203.667 287.758 209.412 288.737 211.093C289.716 212.774 288.737 220.208 288.737 220.208C288.737 220.208 287.333 222.176 286.067 223.432C284.802 224.688 275.408 227.08 267.833 227.782C260.259 228.484 250.578 225.814 247.012 224.133C243.447 222.453 243.142 215.581 243.142 215.581C243.142 215.581 243.29 204.923 243.142 202.817C242.994 200.712 247.012 189.841 247.012 189.841L254.005 193.813L266.226 192.242L270.687 187.625L272.581 200.85" fill="#EA5B1C"/>
<path d="M258.254 202.531C258.254 202.531 268.341 200.508 270.992 200.712C276.405 201.118 279.195 201.691 281.864 202.679C284.534 203.667 287.758 209.412 288.737 211.093C289.716 212.774 288.737 220.208 288.737 220.208C288.737 220.208 287.333 222.176 286.067 223.432C284.802 224.688 275.408 227.08 267.833 227.782C260.259 228.484 250.578 225.814 247.012 224.133C243.447 222.453 243.142 215.581 243.142 215.581C243.142 215.581 243.29 204.923 243.142 202.817C242.994 200.712 247.012 189.841 247.012 189.841L254.005 193.813L266.226 192.242L270.687 187.625L272.581 200.85" stroke="black" stroke-width="3" stroke-miterlimit="10" stroke-linecap="round"/>
<path d="M243.142 213.753C243.142 213.753 250.439 219.506 255.908 220.485C261.376 221.464 269.791 222.305 275.269 221.326C280.747 220.347 289.162 214.741 289.162 214.741" stroke="black" stroke-width="3" stroke-miterlimit="10" stroke-linecap="round"/>
<path d="M245.516 155.549C245.516 155.549 249.451 168.313 249.737 173.217C250.014 178.121 249.737 183.875 249.737 183.875C249.737 183.875 251.76 188.253 258.254 187.606C264.748 186.96 266.152 184.438 266.152 184.438C266.152 184.438 266.706 169.014 264.886 163.538C263.067 158.061 260.332 146.895 260.332 146.895L245.516 155.549Z" fill="black"/>
<path d="M221.398 175.877C221.398 175.877 226.866 178.823 225.748 181.631C224.631 184.438 218.451 188.225 214.387 187.8C210.322 187.375 204.429 186.682 202.046 183.736C199.662 180.79 200.364 177.567 201.344 177.003C202.323 176.44 205.269 174.759 205.269 174.759L221.398 175.877Z" fill="#EA5B1C" stroke="black" stroke-width="3" stroke-miterlimit="10"/>
<path d="M213.167 196.214C213.167 196.214 203.08 194.191 200.429 194.394C195.016 194.801 192.226 195.373 189.557 196.362C186.887 197.35 183.664 203.094 182.684 204.775C181.705 206.456 182.684 213.891 182.684 213.891C182.684 213.891 184.088 215.858 185.354 217.114C186.619 218.37 196.014 220.762 203.588 221.464C211.163 222.166 220.843 219.497 224.409 217.816C227.974 216.135 228.279 209.264 228.279 209.264C228.279 209.264 228.132 198.606 228.279 196.5C228.427 194.394 224.409 183.524 224.409 183.524L217.416 187.495L205.195 185.925L200.734 181.307L198.84 194.533" fill="#EA5B1C"/>
<path d="M213.167 196.214C213.167 196.214 203.08 194.191 200.429 194.394C195.016 194.801 192.226 195.373 189.557 196.362C186.887 197.35 183.664 203.094 182.684 204.775C181.705 206.456 182.684 213.891 182.684 213.891C182.684 213.891 184.088 215.858 185.354 217.114C186.619 218.37 196.014 220.762 203.588 221.464C211.163 222.166 220.843 219.497 224.409 217.816C227.974 216.135 228.279 209.264 228.279 209.264C228.279 209.264 228.132 198.606 228.279 196.5C228.427 194.394 224.409 183.524 224.409 183.524L217.416 187.495L205.195 185.925L200.734 181.307L198.84 194.533" stroke="black" stroke-width="3" stroke-miterlimit="10" stroke-linecap="round"/>
<path d="M228.279 207.435C228.279 207.435 220.982 213.189 215.513 214.168C210.045 215.147 201.63 215.988 196.152 215.009C190.684 214.03 182.259 208.423 182.259 208.423" stroke="black" stroke-width="3" stroke-miterlimit="10" stroke-linecap="round"/>
<path d="M225.905 149.231C225.905 149.231 221.97 161.995 221.684 166.899C221.407 171.804 221.684 177.558 221.684 177.558C221.684 177.558 219.661 181.935 213.167 181.289C206.673 180.642 205.269 178.121 205.269 178.121C205.269 178.121 204.715 162.697 206.535 157.22C208.355 151.744 211.089 140.578 211.089 140.578L225.905 149.231Z" fill="black"/>
<path d="M173.955 203.371C173.955 203.371 169.549 205.708 170.454 207.943C171.36 210.169 176.329 213.18 179.608 212.847C182.888 212.515 187.636 211.952 189.557 209.615C191.478 207.278 190.915 204.711 190.12 204.267C189.326 203.824 186.952 202.485 186.952 202.485L173.955 203.371Z" fill="#EA5B1C" stroke="black" stroke-width="3" stroke-miterlimit="10"/>
<path d="M180.597 219.525C180.597 219.525 188.726 217.918 190.859 218.075C195.219 218.398 197.473 218.851 199.616 219.636C201.759 220.421 204.364 224.983 205.159 226.322C205.953 227.662 205.159 233.563 205.159 233.563C205.159 233.563 204.032 235.124 203.006 236.122C201.99 237.128 194.416 239.022 188.31 239.576C182.204 240.13 174.408 238.015 171.535 236.676C168.662 235.336 168.413 229.878 168.413 229.878C168.413 229.878 168.533 221.409 168.413 219.737C168.293 218.066 171.535 209.421 171.535 209.421L177.17 212.58L187.017 211.333L190.61 207.666L192.134 218.176" fill="#EA5B1C"/>
<path d="M180.597 219.525C180.597 219.525 188.726 217.918 190.859 218.075C195.219 218.398 197.473 218.851 199.616 219.636C201.759 220.421 204.364 224.983 205.159 226.322C205.953 227.662 205.159 233.563 205.159 233.563C205.159 233.563 204.032 235.124 203.006 236.122C201.99 237.128 194.416 239.022 188.31 239.576C182.204 240.13 174.408 238.015 171.535 236.676C168.662 235.336 168.413 229.878 168.413 229.878C168.413 229.878 168.533 221.409 168.413 219.737C168.293 218.066 171.535 209.421 171.535 209.421L177.17 212.58L187.017 211.333L190.61 207.666L192.134 218.176" stroke="black" stroke-width="3" stroke-miterlimit="10" stroke-linecap="round"/>
<path d="M168.413 228.437C168.413 228.437 174.297 233.009 178.703 233.785C183.109 234.561 189.899 235.235 194.305 234.45C198.711 233.665 205.5 229.222 205.5 229.222" stroke="black" stroke-width="3" stroke-miterlimit="10" stroke-linecap="round"/>
<path d="M170.334 152.178C170.334 152.178 173.503 192.344 173.734 196.241C173.955 200.139 173.734 204.711 173.734 204.711C173.734 204.711 175.359 208.193 180.597 207.675C185.834 207.158 186.961 205.154 186.961 205.154C186.961 205.154 187.414 192.898 185.945 188.548C184.476 184.198 182.278 145.297 182.278 145.297L170.334 152.178Z" fill="black"/>
<path d="M143.519 203.371C143.519 203.371 147.925 205.708 147.02 207.943C146.114 210.169 141.145 213.18 137.865 212.847C134.586 212.515 129.838 211.952 127.917 209.615C125.996 207.278 126.559 204.711 127.353 204.267C128.148 203.824 130.522 202.485 130.522 202.485L143.519 203.371Z" fill="#EA5B1C" stroke="black" stroke-width="3" stroke-miterlimit="10"/>
<path d="M136.877 219.525C136.877 219.525 128.748 217.918 126.615 218.075C122.255 218.398 120.001 218.851 117.858 219.636C115.715 220.421 113.11 224.983 112.315 226.322C111.521 227.662 112.315 233.563 112.315 233.563C112.315 233.563 113.442 235.124 114.468 236.122C115.493 237.119 123.058 239.022 129.164 239.576C135.27 240.13 143.066 238.015 145.939 236.676C148.812 235.336 149.061 229.878 149.061 229.878C149.061 229.878 148.941 221.409 149.061 219.737C149.172 218.066 145.939 209.421 145.939 209.421L140.304 212.58L130.457 211.333L126.864 207.666L125.34 218.176" fill="#EA5B1C"/>
<path d="M136.877 219.525C136.877 219.525 128.748 217.918 126.615 218.075C122.255 218.398 120.001 218.851 117.858 219.636C115.715 220.421 113.11 224.983 112.315 226.322C111.521 227.662 112.315 233.563 112.315 233.563C112.315 233.563 113.442 235.124 114.468 236.122C115.493 237.119 123.058 239.022 129.164 239.576C135.27 240.13 143.066 238.015 145.939 236.676C148.812 235.336 149.061 229.878 149.061 229.878C149.061 229.878 148.941 221.409 149.061 219.737C149.172 218.066 145.939 209.421 145.939 209.421L140.304 212.58L130.457 211.333L126.864 207.666L125.34 218.176" stroke="black" stroke-width="3" stroke-miterlimit="10" stroke-linecap="round"/>
<path d="M149.061 228.437C149.061 228.437 143.177 233.009 138.771 233.785C134.365 234.561 127.575 235.235 123.169 234.45C118.763 233.665 111.974 229.222 111.974 229.222" stroke="black" stroke-width="3" stroke-miterlimit="10" stroke-linecap="round"/>
<path d="M147.14 152.178C147.14 152.178 143.971 192.344 143.74 196.241C143.519 200.139 143.74 204.711 143.74 204.711C143.74 204.711 142.115 208.193 136.877 207.675C131.64 207.158 130.513 205.154 130.513 205.154C130.513 205.154 130.06 192.898 131.529 188.548C132.997 184.198 135.196 145.297 135.196 145.297L147.14 152.178Z" fill="black"/>
<path d="M262.198 89.0143C260.628 66.1742 240.842 48.9311 218.008 50.5011C195.173 52.0712 177.918 71.8542 179.488 94.685C179.756 98.5825 180.551 102.323 181.807 105.833C181.807 105.833 162.344 124.895 177.585 146.461C192.827 168.026 222.118 154.801 222.118 154.801C222.118 154.801 249.719 169.707 270.364 147.338C297.106 118.384 262.198 89.0143 262.198 89.0143Z" fill="#193B37" stroke="black" stroke-width="3"/>
<path d="M211.957 149.13L185.548 104.697C196.79 103.939 200.697 94.8328 194.231 84.1193L168.025 40.6835C161.467 29.813 151.62 30.2379 146.031 41.6441L123.705 87.2041C118.199 98.4348 122.883 107.172 134.152 106.941L111.715 153.508C106.2 164.96 111.161 173.826 122.809 173.318L202.637 169.836C214.285 169.319 218.451 160.056 211.957 149.13Z" fill="#4CB05D" stroke="black" stroke-width="3" stroke-miterlimit="10"/>
<path d="M164.395 88.3493C164.395 88.3493 158.76 92.8286 148.738 88.3493" stroke="black" stroke-width="3.149" stroke-linecap="round"/>
<path d="M240.86 104.133C240.86 104.133 227.152 127.703 200.715 105.408" stroke="black" stroke-width="3.149" stroke-linecap="round"/>
<path d="M167.712 81.9108C171.033 81.4959 173.328 77.9837 172.838 74.0661C172.348 70.1485 169.259 67.309 165.939 67.7239C162.618 68.1388 160.323 71.651 160.812 75.5686C161.302 79.4862 164.391 82.3257 167.712 81.9108Z" fill="white" stroke="black" stroke-width="2" stroke-miterlimit="10"/>
<path d="M150.03 80.5031C153.373 80.3475 155.934 77.0244 155.751 73.0807C155.567 69.1371 152.708 66.0662 149.365 66.2218C146.022 66.3774 143.461 69.7005 143.645 73.6442C143.829 77.5878 146.687 80.6587 150.03 80.5031Z" fill="white" stroke="black" stroke-width="2" stroke-miterlimit="10"/>
<path d="M152.709 78.9426C154.866 78.2037 155.981 75.7544 155.199 73.472C154.417 71.1896 152.034 69.9384 149.877 70.6774C147.719 71.4164 146.605 73.8656 147.387 76.148C148.169 78.4304 150.552 79.6816 152.709 78.9426Z" fill="black"/>
<path d="M169.962 80.1813C172.119 79.4423 173.234 76.993 172.452 74.7107C171.67 72.4283 169.287 71.1771 167.13 71.916C164.972 72.655 163.857 75.1043 164.64 77.3867C165.422 79.6691 167.804 80.9202 169.962 80.1813Z" fill="black"/>
<path d="M230.23 105.031C233.551 104.616 235.846 101.104 235.356 97.1862C234.867 93.2686 231.777 90.4291 228.457 90.844C225.136 91.2589 222.841 94.7711 223.33 98.6887C223.82 102.606 226.909 105.446 230.23 105.031Z" fill="white" stroke="black" stroke-width="2" stroke-miterlimit="10"/>
<path d="M212.547 103.618C215.89 103.462 218.451 100.139 218.268 96.1952C218.084 92.2516 215.225 89.1808 211.882 89.3363C208.539 89.4919 205.978 92.815 206.162 96.7587C206.345 100.702 209.204 103.773 212.547 103.618Z" fill="white" stroke="black" stroke-width="2" stroke-miterlimit="10"/>
<path d="M210.963 96.6458C212.565 96.0969 213.392 94.2751 212.81 92.5765C212.228 90.878 210.458 89.946 208.855 90.4949C207.253 91.0437 206.426 92.8656 207.008 94.5641C207.59 96.2626 209.361 97.1946 210.963 96.6458Z" fill="black"/>
<path d="M227.478 98.8997C229.076 98.3525 229.9 96.5359 229.32 94.8422C228.74 93.1485 226.974 92.2191 225.377 92.7663C223.779 93.3135 222.955 95.1301 223.535 96.8238C224.116 98.5175 225.881 99.4469 227.478 98.8997Z" fill="black"/>
</svg>
